G04 #@! TF.GenerationSoftware,KiCad,Pcbnew,9.0.1*
G04 #@! TF.CreationDate,2025-04-15T14:17:19+12:00*
G04 #@! TF.ProjectId,ESPFlash,45535046-6c61-4736-982e-6b696361645f,rev?*
G04 #@! TF.SameCoordinates,Original*
G04 #@! TF.FileFunction,Soldermask,Top*
G04 #@! TF.FilePolarity,Negative*
%FSLAX46Y46*%
G04 Gerber Fmt 4.6, Leading zero omitted, Abs format (unit mm)*
G04 Created by KiCad (PCBNEW 9.0.1) date 2025-04-15 14:17:19*
%MOMM*%
%LPD*%
G01*
G04 APERTURE LIST*
G04 Aperture macros list*
%AMRoundRect*
0 Rectangle with rounded corners*
0 $1 Rounding radius*
0 $2 $3 $4 $5 $6 $7 $8 $9 X,Y pos of 4 corners*
0 Add a 4 corners polygon primitive as box body*
4,1,4,$2,$3,$4,$5,$6,$7,$8,$9,$2,$3,0*
0 Add four circle primitives for the rounded corners*
1,1,$1+$1,$2,$3*
1,1,$1+$1,$4,$5*
1,1,$1+$1,$6,$7*
1,1,$1+$1,$8,$9*
0 Add four rect primitives between the rounded corners*
20,1,$1+$1,$2,$3,$4,$5,0*
20,1,$1+$1,$4,$5,$6,$7,0*
20,1,$1+$1,$6,$7,$8,$9,0*
20,1,$1+$1,$8,$9,$2,$3,0*%
%AMFreePoly0*
4,1,229,0.026192,0.903996,0.026383,0.903985,0.052383,0.901985,0.052573,0.901967,0.078573,0.898967,0.078944,0.898910,0.104944,0.893910,0.105167,0.893862,0.130167,0.887862,0.130300,0.887828,0.156300,0.880828,0.156756,0.880682,0.180756,0.871682,0.180923,0.871615,0.204923,0.861615,0.205083,0.861545,0.229083,0.850545,0.229460,0.850353,0.252460,0.837353,0.252684,0.837218,
0.296684,0.809218,0.297030,0.808977,0.318030,0.792977,0.318238,0.792810,0.338238,0.775810,0.338439,0.775630,0.357439,0.757630,0.357630,0.757439,0.375630,0.738439,0.375810,0.738238,0.392810,0.718238,0.392977,0.718030,0.408977,0.697030,0.409218,0.696684,0.437218,0.652684,0.437353,0.652460,0.450353,0.629460,0.450545,0.629083,0.461545,0.605083,0.461615,0.604923,
0.471615,0.580923,0.471682,0.580756,0.480682,0.556756,0.480828,0.556300,0.487828,0.530300,0.487862,0.530167,0.493862,0.505167,0.493910,0.504944,0.498910,0.478944,0.498967,0.478573,0.501967,0.452573,0.501985,0.452383,0.503985,0.426383,0.503996,0.426192,0.504996,0.400192,0.505000,0.400000,0.505000,-0.400000,0.504996,-0.400192,0.503996,-0.426192,0.503985,-0.426383,
0.501985,-0.452383,0.501967,-0.452573,0.498967,-0.478573,0.498910,-0.478944,0.493910,-0.504944,0.493862,-0.505167,0.487862,-0.530167,0.487828,-0.530300,0.480828,-0.556300,0.480682,-0.556756,0.471682,-0.580756,0.471615,-0.580923,0.461615,-0.604923,0.461545,-0.605083,0.450545,-0.629083,0.450353,-0.629460,0.437353,-0.652460,0.437218,-0.652684,0.409218,-0.696684,0.408977,-0.697030,
0.392977,-0.718030,0.392810,-0.718238,0.375810,-0.738238,0.375630,-0.738439,0.357630,-0.757439,0.357439,-0.757630,0.338439,-0.775630,0.338238,-0.775810,0.318238,-0.792810,0.318030,-0.792977,0.297030,-0.808977,0.296684,-0.809218,0.252684,-0.837218,0.252460,-0.837353,0.229460,-0.850353,0.229083,-0.850545,0.205083,-0.861545,0.204923,-0.861615,0.180923,-0.871615,0.180756,-0.871682,
0.156756,-0.880682,0.156300,-0.880828,0.130300,-0.887828,0.130167,-0.887862,0.105167,-0.893862,0.104944,-0.893910,0.078944,-0.898910,0.078573,-0.898967,0.052573,-0.901967,0.052383,-0.901985,0.026383,-0.903985,0.026192,-0.903996,0.000192,-0.904996,-0.000192,-0.904996,-0.026192,-0.903996,-0.026383,-0.903985,-0.052383,-0.901985,-0.052573,-0.901967,-0.078573,-0.898967,-0.078944,-0.898910,
-0.104944,-0.893910,-0.105167,-0.893862,-0.130167,-0.887862,-0.130300,-0.887828,-0.156300,-0.880828,-0.156756,-0.880682,-0.180756,-0.871682,-0.180923,-0.871615,-0.204923,-0.861615,-0.205083,-0.861545,-0.229083,-0.850545,-0.229460,-0.850353,-0.252460,-0.837353,-0.252684,-0.837218,-0.296684,-0.809218,-0.297030,-0.808977,-0.318030,-0.792977,-0.318238,-0.792810,-0.338238,-0.775810,-0.338439,-0.775630,
-0.357439,-0.757630,-0.357630,-0.757439,-0.375630,-0.738439,-0.375810,-0.738238,-0.392810,-0.718238,-0.392977,-0.718030,-0.408977,-0.697030,-0.409218,-0.696684,-0.437218,-0.652684,-0.437353,-0.652460,-0.450353,-0.629460,-0.450545,-0.629083,-0.461545,-0.605083,-0.461615,-0.604923,-0.471615,-0.580923,-0.471682,-0.580756,-0.480682,-0.556756,-0.480828,-0.556300,-0.487828,-0.530300,-0.487862,-0.530167,
-0.493862,-0.505167,-0.493910,-0.504944,-0.498910,-0.478944,-0.498967,-0.478573,-0.501967,-0.452573,-0.501985,-0.452383,-0.503985,-0.426383,-0.503996,-0.426192,-0.504996,-0.400192,-0.505000,-0.400000,-0.505000,0.400000,-0.504996,0.400192,-0.503996,0.426192,-0.503985,0.426383,-0.501985,0.452383,-0.501967,0.452573,-0.498967,0.478573,-0.498910,0.478944,-0.493910,0.504944,-0.493862,0.505167,
-0.487862,0.530167,-0.487828,0.530300,-0.480828,0.556300,-0.480682,0.556756,-0.471682,0.580756,-0.471615,0.580923,-0.461615,0.604923,-0.461545,0.605083,-0.450545,0.629083,-0.450353,0.629460,-0.437353,0.652460,-0.437218,0.652684,-0.409218,0.696684,-0.408977,0.697030,-0.392977,0.718030,-0.392810,0.718238,-0.375810,0.738238,-0.375630,0.738439,-0.357630,0.757439,-0.357439,0.757630,
-0.338439,0.775630,-0.338238,0.775810,-0.318238,0.792810,-0.318030,0.792977,-0.297030,0.808977,-0.296684,0.809218,-0.252684,0.837218,-0.252460,0.837353,-0.229460,0.850353,-0.229083,0.850545,-0.205083,0.861545,-0.204923,0.861615,-0.180923,0.871615,-0.180756,0.871682,-0.156756,0.880682,-0.156300,0.880828,-0.130300,0.887828,-0.130167,0.887862,-0.105167,0.893862,-0.104944,0.893910,
-0.078944,0.898910,-0.078573,0.898967,-0.052573,0.901967,-0.052383,0.901985,-0.026383,0.903985,-0.026192,0.903996,-0.000192,0.904996,0.000192,0.904996,0.026192,0.903996,0.026192,0.903996,$1*%
G04 Aperture macros list end*
%ADD10C,0.010000*%
%ADD11RoundRect,0.243750X0.243750X0.456250X-0.243750X0.456250X-0.243750X-0.456250X0.243750X-0.456250X0*%
%ADD12RoundRect,0.218750X0.256250X-0.218750X0.256250X0.218750X-0.256250X0.218750X-0.256250X-0.218750X0*%
%ADD13C,1.000000*%
%ADD14RoundRect,0.102000X0.600000X1.250000X-0.600000X1.250000X-0.600000X-1.250000X0.600000X-1.250000X0*%
%ADD15RoundRect,0.200000X-0.200000X-0.275000X0.200000X-0.275000X0.200000X0.275000X-0.200000X0.275000X0*%
%ADD16RoundRect,0.200000X0.275000X-0.200000X0.275000X0.200000X-0.275000X0.200000X-0.275000X-0.200000X0*%
%ADD17RoundRect,0.100000X0.225000X0.100000X-0.225000X0.100000X-0.225000X-0.100000X0.225000X-0.100000X0*%
%ADD18RoundRect,0.225000X-0.225000X-0.250000X0.225000X-0.250000X0.225000X0.250000X-0.225000X0.250000X0*%
%ADD19RoundRect,0.237500X0.237500X-0.250000X0.237500X0.250000X-0.237500X0.250000X-0.237500X-0.250000X0*%
%ADD20RoundRect,0.200000X-0.275000X0.200000X-0.275000X-0.200000X0.275000X-0.200000X0.275000X0.200000X0*%
%ADD21RoundRect,0.250000X-0.250000X-0.475000X0.250000X-0.475000X0.250000X0.475000X-0.250000X0.475000X0*%
%ADD22RoundRect,0.198500X0.508500X0.198500X-0.508500X0.198500X-0.508500X-0.198500X0.508500X-0.198500X0*%
%ADD23FreePoly0,90.000000*%
%ADD24C,0.650000*%
%ADD25R,1.150000X0.600000*%
%ADD26R,1.150000X0.300000*%
%ADD27O,2.176000X1.076000*%
%ADD28RoundRect,0.200000X0.200000X0.275000X-0.200000X0.275000X-0.200000X-0.275000X0.200000X-0.275000X0*%
%ADD29RoundRect,0.062500X0.350000X0.062500X-0.350000X0.062500X-0.350000X-0.062500X0.350000X-0.062500X0*%
%ADD30RoundRect,0.062500X0.062500X0.350000X-0.062500X0.350000X-0.062500X-0.350000X0.062500X-0.350000X0*%
%ADD31R,2.600000X2.600000*%
%ADD32RoundRect,0.250000X0.475000X-0.250000X0.475000X0.250000X-0.475000X0.250000X-0.475000X-0.250000X0*%
%ADD33RoundRect,0.225000X0.225000X0.250000X-0.225000X0.250000X-0.225000X-0.250000X0.225000X-0.250000X0*%
%ADD34RoundRect,0.150000X0.512500X0.150000X-0.512500X0.150000X-0.512500X-0.150000X0.512500X-0.150000X0*%
%ADD35R,1.700000X1.700000*%
%ADD36O,1.700000X1.700000*%
%ADD37C,0.600000*%
G04 APERTURE END LIST*
D10*
X64443500Y-31433500D02*
X64475500Y-31435500D01*
X64506500Y-31439500D01*
X64537500Y-31445500D01*
X64567500Y-31452500D01*
X64597500Y-31461500D01*
X64627500Y-31472500D01*
X64656500Y-31484500D01*
X64684500Y-31497500D01*
X64712500Y-31512500D01*
X64739500Y-31529500D01*
X64765500Y-31547500D01*
X64790500Y-31566500D01*
X64813500Y-31586500D01*
X64836500Y-31608500D01*
X64858500Y-31631500D01*
X64878500Y-31654500D01*
X64897500Y-31679500D01*
X64915500Y-31705500D01*
X64932500Y-31732500D01*
X64947500Y-31760500D01*
X64960500Y-31788500D01*
X64972500Y-31817500D01*
X64983500Y-31847500D01*
X64992500Y-31877500D01*
X64999500Y-31907500D01*
X65005500Y-31938500D01*
X65009500Y-31969500D01*
X65011500Y-32001500D01*
X65012500Y-32032500D01*
X65011500Y-32063500D01*
X65009500Y-32095500D01*
X65005500Y-32126500D01*
X64999500Y-32157500D01*
X64992500Y-32187500D01*
X64983500Y-32217500D01*
X64972500Y-32247500D01*
X64960500Y-32276500D01*
X64947500Y-32304500D01*
X64932500Y-32332500D01*
X64915500Y-32359500D01*
X64897500Y-32385500D01*
X64878500Y-32410500D01*
X64858500Y-32433500D01*
X64836500Y-32456500D01*
X64813500Y-32478500D01*
X64790500Y-32498500D01*
X64765500Y-32517500D01*
X64739500Y-32535500D01*
X64712500Y-32552500D01*
X64684500Y-32567500D01*
X64656500Y-32580500D01*
X64627500Y-32592500D01*
X64597500Y-32603500D01*
X64567500Y-32612500D01*
X64537500Y-32619500D01*
X64506500Y-32625500D01*
X64475500Y-32629500D01*
X64443500Y-32631500D01*
X64412500Y-32632500D01*
X64012500Y-32632500D01*
X63612500Y-32632500D01*
X63581500Y-32631500D01*
X63549500Y-32629500D01*
X63518500Y-32625500D01*
X63487500Y-32619500D01*
X63457500Y-32612500D01*
X63427500Y-32603500D01*
X63397500Y-32592500D01*
X63368500Y-32580500D01*
X63340500Y-32567500D01*
X63312500Y-32552500D01*
X63285500Y-32535500D01*
X63259500Y-32517500D01*
X63234500Y-32498500D01*
X63211500Y-32478500D01*
X63188500Y-32456500D01*
X63166500Y-32433500D01*
X63146500Y-32410500D01*
X63127500Y-32385500D01*
X63109500Y-32359500D01*
X63092500Y-32332500D01*
X63077500Y-32304500D01*
X63064500Y-32276500D01*
X63052500Y-32247500D01*
X63041500Y-32217500D01*
X63032500Y-32187500D01*
X63025500Y-32157500D01*
X63019500Y-32126500D01*
X63015500Y-32095500D01*
X63013500Y-32063500D01*
X63012500Y-32032500D01*
X63013500Y-32001500D01*
X63015500Y-31969500D01*
X63019500Y-31938500D01*
X63025500Y-31907500D01*
X63032500Y-31877500D01*
X63041500Y-31847500D01*
X63052500Y-31817500D01*
X63064500Y-31788500D01*
X63077500Y-31760500D01*
X63092500Y-31732500D01*
X63109500Y-31705500D01*
X63127500Y-31679500D01*
X63146500Y-31654500D01*
X63166500Y-31631500D01*
X63188500Y-31608500D01*
X63211500Y-31586500D01*
X63234500Y-31566500D01*
X63259500Y-31547500D01*
X63285500Y-31529500D01*
X63312500Y-31512500D01*
X63340500Y-31497500D01*
X63368500Y-31484500D01*
X63397500Y-31472500D01*
X63427500Y-31461500D01*
X63457500Y-31452500D01*
X63487500Y-31445500D01*
X63518500Y-31439500D01*
X63549500Y-31435500D01*
X63581500Y-31433500D01*
X63612500Y-31432500D01*
X64012500Y-31432500D01*
X64412500Y-31432500D01*
X64443500Y-31433500D01*
G36*
X64443500Y-31433500D02*
G01*
X64475500Y-31435500D01*
X64506500Y-31439500D01*
X64537500Y-31445500D01*
X64567500Y-31452500D01*
X64597500Y-31461500D01*
X64627500Y-31472500D01*
X64656500Y-31484500D01*
X64684500Y-31497500D01*
X64712500Y-31512500D01*
X64739500Y-31529500D01*
X64765500Y-31547500D01*
X64790500Y-31566500D01*
X64813500Y-31586500D01*
X64836500Y-31608500D01*
X64858500Y-31631500D01*
X64878500Y-31654500D01*
X64897500Y-31679500D01*
X64915500Y-31705500D01*
X64932500Y-31732500D01*
X64947500Y-31760500D01*
X64960500Y-31788500D01*
X64972500Y-31817500D01*
X64983500Y-31847500D01*
X64992500Y-31877500D01*
X64999500Y-31907500D01*
X65005500Y-31938500D01*
X65009500Y-31969500D01*
X65011500Y-32001500D01*
X65012500Y-32032500D01*
X65011500Y-32063500D01*
X65009500Y-32095500D01*
X65005500Y-32126500D01*
X64999500Y-32157500D01*
X64992500Y-32187500D01*
X64983500Y-32217500D01*
X64972500Y-32247500D01*
X64960500Y-32276500D01*
X64947500Y-32304500D01*
X64932500Y-32332500D01*
X64915500Y-32359500D01*
X64897500Y-32385500D01*
X64878500Y-32410500D01*
X64858500Y-32433500D01*
X64836500Y-32456500D01*
X64813500Y-32478500D01*
X64790500Y-32498500D01*
X64765500Y-32517500D01*
X64739500Y-32535500D01*
X64712500Y-32552500D01*
X64684500Y-32567500D01*
X64656500Y-32580500D01*
X64627500Y-32592500D01*
X64597500Y-32603500D01*
X64567500Y-32612500D01*
X64537500Y-32619500D01*
X64506500Y-32625500D01*
X64475500Y-32629500D01*
X64443500Y-32631500D01*
X64412500Y-32632500D01*
X64012500Y-32632500D01*
X63612500Y-32632500D01*
X63581500Y-32631500D01*
X63549500Y-32629500D01*
X63518500Y-32625500D01*
X63487500Y-32619500D01*
X63457500Y-32612500D01*
X63427500Y-32603500D01*
X63397500Y-32592500D01*
X63368500Y-32580500D01*
X63340500Y-32567500D01*
X63312500Y-32552500D01*
X63285500Y-32535500D01*
X63259500Y-32517500D01*
X63234500Y-32498500D01*
X63211500Y-32478500D01*
X63188500Y-32456500D01*
X63166500Y-32433500D01*
X63146500Y-32410500D01*
X63127500Y-32385500D01*
X63109500Y-32359500D01*
X63092500Y-32332500D01*
X63077500Y-32304500D01*
X63064500Y-32276500D01*
X63052500Y-32247500D01*
X63041500Y-32217500D01*
X63032500Y-32187500D01*
X63025500Y-32157500D01*
X63019500Y-32126500D01*
X63015500Y-32095500D01*
X63013500Y-32063500D01*
X63012500Y-32032500D01*
X63013500Y-32001500D01*
X63015500Y-31969500D01*
X63019500Y-31938500D01*
X63025500Y-31907500D01*
X63032500Y-31877500D01*
X63041500Y-31847500D01*
X63052500Y-31817500D01*
X63064500Y-31788500D01*
X63077500Y-31760500D01*
X63092500Y-31732500D01*
X63109500Y-31705500D01*
X63127500Y-31679500D01*
X63146500Y-31654500D01*
X63166500Y-31631500D01*
X63188500Y-31608500D01*
X63211500Y-31586500D01*
X63234500Y-31566500D01*
X63259500Y-31547500D01*
X63285500Y-31529500D01*
X63312500Y-31512500D01*
X63340500Y-31497500D01*
X63368500Y-31484500D01*
X63397500Y-31472500D01*
X63427500Y-31461500D01*
X63457500Y-31452500D01*
X63487500Y-31445500D01*
X63518500Y-31439500D01*
X63549500Y-31435500D01*
X63581500Y-31433500D01*
X63612500Y-31432500D01*
X64012500Y-31432500D01*
X64412500Y-31432500D01*
X64443500Y-31433500D01*
G37*
X64443500Y-40073500D02*
X64475500Y-40075500D01*
X64506500Y-40079500D01*
X64537500Y-40085500D01*
X64567500Y-40092500D01*
X64597500Y-40101500D01*
X64627500Y-40112500D01*
X64656500Y-40124500D01*
X64684500Y-40137500D01*
X64712500Y-40152500D01*
X64739500Y-40169500D01*
X64765500Y-40187500D01*
X64790500Y-40206500D01*
X64813500Y-40226500D01*
X64836500Y-40248500D01*
X64858500Y-40271500D01*
X64878500Y-40294500D01*
X64897500Y-40319500D01*
X64915500Y-40345500D01*
X64932500Y-40372500D01*
X64947500Y-40400500D01*
X64960500Y-40428500D01*
X64972500Y-40457500D01*
X64983500Y-40487500D01*
X64992500Y-40517500D01*
X64999500Y-40547500D01*
X65005500Y-40578500D01*
X65009500Y-40609500D01*
X65011500Y-40641500D01*
X65012500Y-40672500D01*
X65011500Y-40703500D01*
X65009500Y-40735500D01*
X65005500Y-40766500D01*
X64999500Y-40797500D01*
X64992500Y-40827500D01*
X64983500Y-40857500D01*
X64972500Y-40887500D01*
X64960500Y-40916500D01*
X64947500Y-40944500D01*
X64932500Y-40972500D01*
X64915500Y-40999500D01*
X64897500Y-41025500D01*
X64878500Y-41050500D01*
X64858500Y-41073500D01*
X64836500Y-41096500D01*
X64813500Y-41118500D01*
X64790500Y-41138500D01*
X64765500Y-41157500D01*
X64739500Y-41175500D01*
X64712500Y-41192500D01*
X64684500Y-41207500D01*
X64656500Y-41220500D01*
X64627500Y-41232500D01*
X64597500Y-41243500D01*
X64567500Y-41252500D01*
X64537500Y-41259500D01*
X64506500Y-41265500D01*
X64475500Y-41269500D01*
X64443500Y-41271500D01*
X64412500Y-41272500D01*
X64012500Y-41272500D01*
X63612500Y-41272500D01*
X63581500Y-41271500D01*
X63549500Y-41269500D01*
X63518500Y-41265500D01*
X63487500Y-41259500D01*
X63457500Y-41252500D01*
X63427500Y-41243500D01*
X63397500Y-41232500D01*
X63368500Y-41220500D01*
X63340500Y-41207500D01*
X63312500Y-41192500D01*
X63285500Y-41175500D01*
X63259500Y-41157500D01*
X63234500Y-41138500D01*
X63211500Y-41118500D01*
X63188500Y-41096500D01*
X63166500Y-41073500D01*
X63146500Y-41050500D01*
X63127500Y-41025500D01*
X63109500Y-40999500D01*
X63092500Y-40972500D01*
X63077500Y-40944500D01*
X63064500Y-40916500D01*
X63052500Y-40887500D01*
X63041500Y-40857500D01*
X63032500Y-40827500D01*
X63025500Y-40797500D01*
X63019500Y-40766500D01*
X63015500Y-40735500D01*
X63013500Y-40703500D01*
X63012500Y-40672500D01*
X63013500Y-40641500D01*
X63015500Y-40609500D01*
X63019500Y-40578500D01*
X63025500Y-40547500D01*
X63032500Y-40517500D01*
X63041500Y-40487500D01*
X63052500Y-40457500D01*
X63064500Y-40428500D01*
X63077500Y-40400500D01*
X63092500Y-40372500D01*
X63109500Y-40345500D01*
X63127500Y-40319500D01*
X63146500Y-40294500D01*
X63166500Y-40271500D01*
X63188500Y-40248500D01*
X63211500Y-40226500D01*
X63234500Y-40206500D01*
X63259500Y-40187500D01*
X63285500Y-40169500D01*
X63312500Y-40152500D01*
X63340500Y-40137500D01*
X63368500Y-40124500D01*
X63397500Y-40112500D01*
X63427500Y-40101500D01*
X63457500Y-40092500D01*
X63487500Y-40085500D01*
X63518500Y-40079500D01*
X63549500Y-40075500D01*
X63581500Y-40073500D01*
X63612500Y-40072500D01*
X64012500Y-40072500D01*
X64412500Y-40072500D01*
X64443500Y-40073500D01*
G36*
X64443500Y-40073500D02*
G01*
X64475500Y-40075500D01*
X64506500Y-40079500D01*
X64537500Y-40085500D01*
X64567500Y-40092500D01*
X64597500Y-40101500D01*
X64627500Y-40112500D01*
X64656500Y-40124500D01*
X64684500Y-40137500D01*
X64712500Y-40152500D01*
X64739500Y-40169500D01*
X64765500Y-40187500D01*
X64790500Y-40206500D01*
X64813500Y-40226500D01*
X64836500Y-40248500D01*
X64858500Y-40271500D01*
X64878500Y-40294500D01*
X64897500Y-40319500D01*
X64915500Y-40345500D01*
X64932500Y-40372500D01*
X64947500Y-40400500D01*
X64960500Y-40428500D01*
X64972500Y-40457500D01*
X64983500Y-40487500D01*
X64992500Y-40517500D01*
X64999500Y-40547500D01*
X65005500Y-40578500D01*
X65009500Y-40609500D01*
X65011500Y-40641500D01*
X65012500Y-40672500D01*
X65011500Y-40703500D01*
X65009500Y-40735500D01*
X65005500Y-40766500D01*
X64999500Y-40797500D01*
X64992500Y-40827500D01*
X64983500Y-40857500D01*
X64972500Y-40887500D01*
X64960500Y-40916500D01*
X64947500Y-40944500D01*
X64932500Y-40972500D01*
X64915500Y-40999500D01*
X64897500Y-41025500D01*
X64878500Y-41050500D01*
X64858500Y-41073500D01*
X64836500Y-41096500D01*
X64813500Y-41118500D01*
X64790500Y-41138500D01*
X64765500Y-41157500D01*
X64739500Y-41175500D01*
X64712500Y-41192500D01*
X64684500Y-41207500D01*
X64656500Y-41220500D01*
X64627500Y-41232500D01*
X64597500Y-41243500D01*
X64567500Y-41252500D01*
X64537500Y-41259500D01*
X64506500Y-41265500D01*
X64475500Y-41269500D01*
X64443500Y-41271500D01*
X64412500Y-41272500D01*
X64012500Y-41272500D01*
X63612500Y-41272500D01*
X63581500Y-41271500D01*
X63549500Y-41269500D01*
X63518500Y-41265500D01*
X63487500Y-41259500D01*
X63457500Y-41252500D01*
X63427500Y-41243500D01*
X63397500Y-41232500D01*
X63368500Y-41220500D01*
X63340500Y-41207500D01*
X63312500Y-41192500D01*
X63285500Y-41175500D01*
X63259500Y-41157500D01*
X63234500Y-41138500D01*
X63211500Y-41118500D01*
X63188500Y-41096500D01*
X63166500Y-41073500D01*
X63146500Y-41050500D01*
X63127500Y-41025500D01*
X63109500Y-40999500D01*
X63092500Y-40972500D01*
X63077500Y-40944500D01*
X63064500Y-40916500D01*
X63052500Y-40887500D01*
X63041500Y-40857500D01*
X63032500Y-40827500D01*
X63025500Y-40797500D01*
X63019500Y-40766500D01*
X63015500Y-40735500D01*
X63013500Y-40703500D01*
X63012500Y-40672500D01*
X63013500Y-40641500D01*
X63015500Y-40609500D01*
X63019500Y-40578500D01*
X63025500Y-40547500D01*
X63032500Y-40517500D01*
X63041500Y-40487500D01*
X63052500Y-40457500D01*
X63064500Y-40428500D01*
X63077500Y-40400500D01*
X63092500Y-40372500D01*
X63109500Y-40345500D01*
X63127500Y-40319500D01*
X63146500Y-40294500D01*
X63166500Y-40271500D01*
X63188500Y-40248500D01*
X63211500Y-40226500D01*
X63234500Y-40206500D01*
X63259500Y-40187500D01*
X63285500Y-40169500D01*
X63312500Y-40152500D01*
X63340500Y-40137500D01*
X63368500Y-40124500D01*
X63397500Y-40112500D01*
X63427500Y-40101500D01*
X63457500Y-40092500D01*
X63487500Y-40085500D01*
X63518500Y-40079500D01*
X63549500Y-40075500D01*
X63581500Y-40073500D01*
X63612500Y-40072500D01*
X64012500Y-40072500D01*
X64412500Y-40072500D01*
X64443500Y-40073500D01*
G37*
D11*
X61062501Y-29875000D03*
X59187499Y-29875000D03*
D12*
X43249999Y-29000000D03*
X43249999Y-27424998D03*
D13*
X60400000Y-24500000D03*
X53600000Y-24500000D03*
D14*
X59500000Y-27250000D03*
X57000000Y-27250000D03*
X54500000Y-27250000D03*
D15*
X63175000Y-28300000D03*
X64825000Y-28300000D03*
D12*
X41200000Y-28949999D03*
X41200000Y-27374997D03*
D16*
X57200000Y-33625000D03*
X57200000Y-31975000D03*
D15*
X39175000Y-34800000D03*
X40825000Y-34800000D03*
D17*
X41050000Y-38250000D03*
X41049999Y-37600000D03*
X41050000Y-36950000D03*
X39150000Y-36950000D03*
X39150001Y-37600000D03*
X39150000Y-38250000D03*
D18*
X47935000Y-30850000D03*
X49485000Y-30850000D03*
D12*
X39199999Y-28950001D03*
X39199999Y-27374999D03*
D19*
X41200001Y-25412500D03*
X41200001Y-23587500D03*
D18*
X47940000Y-32630000D03*
X49490000Y-32630000D03*
D20*
X57200000Y-39125000D03*
X57200000Y-40775000D03*
D21*
X46025000Y-28000000D03*
X47925000Y-28000000D03*
D22*
X48655000Y-25499999D03*
X48655000Y-24550000D03*
X48655000Y-23600001D03*
X46145000Y-23600001D03*
X46145000Y-25499999D03*
D23*
X64012500Y-40672500D03*
D24*
X60332500Y-39242500D03*
X60332500Y-33462500D03*
D23*
X64012500Y-32032500D03*
D25*
X59262500Y-39552500D03*
X59262500Y-38752500D03*
D26*
X59257500Y-37602500D03*
X59257500Y-36602500D03*
X59257500Y-36102500D03*
X59257500Y-35102500D03*
D25*
X59257500Y-33952500D03*
X59262500Y-33152500D03*
X59257500Y-33152500D03*
X59262500Y-33952500D03*
D26*
X59257500Y-34602500D03*
X59257500Y-35602500D03*
X59257500Y-37102500D03*
X59257500Y-38102500D03*
D25*
X59257500Y-38752500D03*
X59257500Y-39552500D03*
D27*
X59832500Y-40672500D03*
X59832500Y-32032500D03*
D28*
X40825000Y-32700000D03*
X39175000Y-32700000D03*
D19*
X39200000Y-25412497D03*
X39200000Y-23587497D03*
D29*
X48600000Y-37600000D03*
X48599999Y-37100000D03*
X48600000Y-36600000D03*
X48600000Y-36100000D03*
X48599999Y-35600000D03*
X48600000Y-35100000D03*
D30*
X47912500Y-34412500D03*
X47412500Y-34412501D03*
X46912500Y-34412500D03*
X46412500Y-34412500D03*
X45912500Y-34412501D03*
X45412500Y-34412500D03*
D29*
X44725000Y-35100000D03*
X44725001Y-35600000D03*
X44725000Y-36100000D03*
X44725000Y-36600000D03*
X44725001Y-37100000D03*
X44725000Y-37600000D03*
D30*
X45412500Y-38287500D03*
X45912500Y-38287499D03*
X46412500Y-38287500D03*
X46912500Y-38287500D03*
X47412500Y-38287499D03*
X47912500Y-38287500D03*
D31*
X46662500Y-36350000D03*
D32*
X51000000Y-25749999D03*
X51000000Y-23850001D03*
D33*
X55475000Y-32100000D03*
X53925000Y-32100000D03*
D28*
X64825000Y-30100000D03*
X63175000Y-30100000D03*
D34*
X55637500Y-37323105D03*
X55637500Y-36373106D03*
X55637500Y-35423107D03*
X53362500Y-35423107D03*
X53362500Y-36373106D03*
X53362500Y-37323105D03*
D19*
X45200000Y-32637500D03*
X45200000Y-30812500D03*
X43200001Y-25412498D03*
X43200001Y-23587498D03*
D35*
X39830000Y-41350000D03*
D36*
X42370000Y-41350000D03*
X44910000Y-41350000D03*
X47450000Y-41350000D03*
X49990000Y-41350000D03*
X52530000Y-41350000D03*
D37*
X47400000Y-35600000D03*
X45900000Y-35600000D03*
X46650000Y-35600000D03*
X46662500Y-36350000D03*
X47400000Y-36350000D03*
X45900000Y-36350000D03*
X47400000Y-37100000D03*
X46650000Y-37100000D03*
X45900000Y-37100000D03*
M02*
