M48
; DRILL file {KiCad 9.0.1} date 2025-04-15T14:17:50+1200
; FORMAT={-:-/ absolute / metric / decimal}
; #@! TF.CreationDate,2025-04-15T14:17:50+12:00
; #@! TF.GenerationSoftware,Kicad,Pcbnew,9.0.1
; #@! TF.FileFunction,Plated,1,2,PTH
FMAT,2
METRIC
; #@! TA.AperFunction,Plated,PTH,ViaDrill
T1C0.300
; #@! TA.AperFunction,Plated,PTH,ComponentDrill
T2C0.600
; #@! TA.AperFunction,Plated,PTH,ComponentDrill
T3C1.000
%
G90
G05
T1
X39.9Y-39.8
X41.6Y-39.4
X42.0Y-37.0
X44.475Y-29.475
X45.9Y-35.6
X45.9Y-36.35
X45.9Y-37.1
X46.55Y-32.675
X46.65Y-35.6
X46.65Y-37.1
X46.663Y-36.35
X46.71Y-29.62
X47.4Y-35.6
X47.4Y-36.35
X47.4Y-37.1
X47.425Y-39.5
X48.7Y-39.8
X49.1Y-27.5
X49.1Y-28.475
X49.975Y-27.5
X49.975Y-28.475
X50.0Y-22.6
X50.85Y-22.6
X50.9Y-39.8
X51.725Y-22.6
X54.5Y-31.0
X54.5Y-36.35
X55.75Y-28.5
X57.55Y-36.373
X60.45Y-36.1
X60.45Y-37.1
X61.9Y-28.3
X64.8Y-31.0
T2
X64.013Y-32.032
X64.013Y-40.672
T3
X39.83Y-41.35
X42.37Y-41.35
X44.91Y-41.35
X47.45Y-41.35
X49.99Y-41.35
X52.53Y-41.35
T2
X59.282Y-32.032G85X60.383Y-32.032
G05
X59.282Y-40.672G85X60.383Y-40.672
G05
M30
