G04 #@! TF.GenerationSoftware,KiCad,Pcbnew,9.0.1*
G04 #@! TF.CreationDate,2025-04-15T14:17:18+12:00*
G04 #@! TF.ProjectId,ESPFlash,45535046-6c61-4736-982e-6b696361645f,rev?*
G04 #@! TF.SameCoordinates,Original*
G04 #@! TF.FileFunction,Paste,Top*
G04 #@! TF.FilePolarity,Positive*
%FSLAX46Y46*%
G04 Gerber Fmt 4.6, Leading zero omitted, Abs format (unit mm)*
G04 Created by KiCad (PCBNEW 9.0.1) date 2025-04-15 14:17:18*
%MOMM*%
%LPD*%
G01*
G04 APERTURE LIST*
G04 Aperture macros list*
%AMRoundRect*
0 Rectangle with rounded corners*
0 $1 Rounding radius*
0 $2 $3 $4 $5 $6 $7 $8 $9 X,Y pos of 4 corners*
0 Add a 4 corners polygon primitive as box body*
4,1,4,$2,$3,$4,$5,$6,$7,$8,$9,$2,$3,0*
0 Add four circle primitives for the rounded corners*
1,1,$1+$1,$2,$3*
1,1,$1+$1,$4,$5*
1,1,$1+$1,$6,$7*
1,1,$1+$1,$8,$9*
0 Add four rect primitives between the rounded corners*
20,1,$1+$1,$2,$3,$4,$5,0*
20,1,$1+$1,$4,$5,$6,$7,0*
20,1,$1+$1,$6,$7,$8,$9,0*
20,1,$1+$1,$8,$9,$2,$3,0*%
G04 Aperture macros list end*
%ADD10RoundRect,0.243750X0.243750X0.456250X-0.243750X0.456250X-0.243750X-0.456250X0.243750X-0.456250X0*%
%ADD11RoundRect,0.218750X0.256250X-0.218750X0.256250X0.218750X-0.256250X0.218750X-0.256250X-0.218750X0*%
%ADD12R,1.200000X2.500000*%
%ADD13RoundRect,0.200000X-0.200000X-0.275000X0.200000X-0.275000X0.200000X0.275000X-0.200000X0.275000X0*%
%ADD14RoundRect,0.200000X0.275000X-0.200000X0.275000X0.200000X-0.275000X0.200000X-0.275000X-0.200000X0*%
%ADD15RoundRect,0.100000X0.225000X0.100000X-0.225000X0.100000X-0.225000X-0.100000X0.225000X-0.100000X0*%
%ADD16RoundRect,0.225000X-0.225000X-0.250000X0.225000X-0.250000X0.225000X0.250000X-0.225000X0.250000X0*%
%ADD17RoundRect,0.237500X0.237500X-0.250000X0.237500X0.250000X-0.237500X0.250000X-0.237500X-0.250000X0*%
%ADD18RoundRect,0.200000X-0.275000X0.200000X-0.275000X-0.200000X0.275000X-0.200000X0.275000X0.200000X0*%
%ADD19RoundRect,0.250000X-0.250000X-0.475000X0.250000X-0.475000X0.250000X0.475000X-0.250000X0.475000X0*%
%ADD20RoundRect,0.147500X0.457500X0.147500X-0.457500X0.147500X-0.457500X-0.147500X0.457500X-0.147500X0*%
%ADD21R,1.150000X0.600000*%
%ADD22R,1.150000X0.300000*%
%ADD23RoundRect,0.200000X0.200000X0.275000X-0.200000X0.275000X-0.200000X-0.275000X0.200000X-0.275000X0*%
%ADD24RoundRect,0.250000X0.275000X0.275000X-0.275000X0.275000X-0.275000X-0.275000X0.275000X-0.275000X0*%
%ADD25RoundRect,0.062500X0.350000X0.062500X-0.350000X0.062500X-0.350000X-0.062500X0.350000X-0.062500X0*%
%ADD26RoundRect,0.062500X0.062500X0.350000X-0.062500X0.350000X-0.062500X-0.350000X0.062500X-0.350000X0*%
%ADD27RoundRect,0.250000X0.475000X-0.250000X0.475000X0.250000X-0.475000X0.250000X-0.475000X-0.250000X0*%
%ADD28RoundRect,0.225000X0.225000X0.250000X-0.225000X0.250000X-0.225000X-0.250000X0.225000X-0.250000X0*%
%ADD29RoundRect,0.150000X0.512500X0.150000X-0.512500X0.150000X-0.512500X-0.150000X0.512500X-0.150000X0*%
G04 APERTURE END LIST*
D10*
X61062501Y-29875000D03*
X59187499Y-29875000D03*
D11*
X43249999Y-29000000D03*
X43249999Y-27424998D03*
D12*
X59500000Y-27250000D03*
X57000000Y-27250000D03*
X54500000Y-27250000D03*
D13*
X63175000Y-28300000D03*
X64825000Y-28300000D03*
D11*
X41200000Y-28949999D03*
X41200000Y-27374997D03*
D14*
X57200000Y-33625000D03*
X57200000Y-31975000D03*
D13*
X39175000Y-34800000D03*
X40825000Y-34800000D03*
D15*
X41050000Y-38250000D03*
X41049999Y-37600000D03*
X41050000Y-36950000D03*
X39150000Y-36950000D03*
X39150001Y-37600000D03*
X39150000Y-38250000D03*
D16*
X47935000Y-30850000D03*
X49485000Y-30850000D03*
D11*
X39199999Y-28950001D03*
X39199999Y-27374999D03*
D17*
X41200001Y-25412500D03*
X41200001Y-23587500D03*
D16*
X47940000Y-32630000D03*
X49490000Y-32630000D03*
D18*
X57200000Y-39125000D03*
X57200000Y-40775000D03*
D19*
X46025000Y-28000000D03*
X47925000Y-28000000D03*
D20*
X48655000Y-25499999D03*
X48655000Y-24550000D03*
X48655000Y-23600001D03*
X46145000Y-23600001D03*
X46145000Y-25499999D03*
D21*
X59262500Y-39552500D03*
X59262500Y-38752500D03*
D22*
X59257500Y-37602500D03*
X59257500Y-36602500D03*
X59257500Y-36102500D03*
X59257500Y-35102500D03*
D21*
X59257500Y-33952500D03*
X59262500Y-33152500D03*
X59257500Y-33152500D03*
X59262500Y-33952500D03*
D22*
X59257500Y-34602500D03*
X59257500Y-35602500D03*
X59257500Y-37102500D03*
X59257500Y-38102500D03*
D21*
X59257500Y-38752500D03*
X59257500Y-39552500D03*
D23*
X40825000Y-32700000D03*
X39175000Y-32700000D03*
D17*
X39200000Y-25412497D03*
X39200000Y-23587497D03*
D24*
X47312500Y-37000000D03*
X47312500Y-35700000D03*
X46012500Y-37000000D03*
X46012500Y-35700000D03*
D25*
X48600000Y-37600000D03*
X48599999Y-37100000D03*
X48600000Y-36600000D03*
X48600000Y-36100000D03*
X48599999Y-35600000D03*
X48600000Y-35100000D03*
D26*
X47912500Y-34412500D03*
X47412500Y-34412501D03*
X46912500Y-34412500D03*
X46412500Y-34412500D03*
X45912500Y-34412501D03*
X45412500Y-34412500D03*
D25*
X44725000Y-35100000D03*
X44725001Y-35600000D03*
X44725000Y-36100000D03*
X44725000Y-36600000D03*
X44725001Y-37100000D03*
X44725000Y-37600000D03*
D26*
X45412500Y-38287500D03*
X45912500Y-38287499D03*
X46412500Y-38287500D03*
X46912500Y-38287500D03*
X47412500Y-38287499D03*
X47912500Y-38287500D03*
D27*
X51000000Y-25749999D03*
X51000000Y-23850001D03*
D28*
X55475000Y-32100000D03*
X53925000Y-32100000D03*
D23*
X64825000Y-30100000D03*
X63175000Y-30100000D03*
D29*
X55637500Y-37323105D03*
X55637500Y-36373106D03*
X55637500Y-35423107D03*
X53362500Y-35423107D03*
X53362500Y-36373106D03*
X53362500Y-37323105D03*
D17*
X45200000Y-32637500D03*
X45200000Y-30812500D03*
X43200001Y-25412498D03*
X43200001Y-23587498D03*
M02*
