G04 #@! TF.GenerationSoftware,KiCad,Pcbnew,9.0.1*
G04 #@! TF.CreationDate,2025-04-15T14:17:18+12:00*
G04 #@! TF.ProjectId,ESPFlash,45535046-6c61-4736-982e-6b696361645f,rev?*
G04 #@! TF.SameCoordinates,Original*
G04 #@! TF.FileFunction,Legend,Top*
G04 #@! TF.FilePolarity,Positive*
%FSLAX46Y46*%
G04 Gerber Fmt 4.6, Leading zero omitted, Abs format (unit mm)*
G04 Created by KiCad (PCBNEW 9.0.1) date 2025-04-15 14:17:18*
%MOMM*%
%LPD*%
G01*
G04 APERTURE LIST*
G04 Aperture macros list*
%AMRoundRect*
0 Rectangle with rounded corners*
0 $1 Rounding radius*
0 $2 $3 $4 $5 $6 $7 $8 $9 X,Y pos of 4 corners*
0 Add a 4 corners polygon primitive as box body*
4,1,4,$2,$3,$4,$5,$6,$7,$8,$9,$2,$3,0*
0 Add four circle primitives for the rounded corners*
1,1,$1+$1,$2,$3*
1,1,$1+$1,$4,$5*
1,1,$1+$1,$6,$7*
1,1,$1+$1,$8,$9*
0 Add four rect primitives between the rounded corners*
20,1,$1+$1,$2,$3,$4,$5,0*
20,1,$1+$1,$4,$5,$6,$7,0*
20,1,$1+$1,$6,$7,$8,$9,0*
20,1,$1+$1,$8,$9,$2,$3,0*%
%AMFreePoly0*
4,1,229,0.026192,0.903996,0.026383,0.903985,0.052383,0.901985,0.052573,0.901967,0.078573,0.898967,0.078944,0.898910,0.104944,0.893910,0.105167,0.893862,0.130167,0.887862,0.130300,0.887828,0.156300,0.880828,0.156756,0.880682,0.180756,0.871682,0.180923,0.871615,0.204923,0.861615,0.205083,0.861545,0.229083,0.850545,0.229460,0.850353,0.252460,0.837353,0.252684,0.837218,
0.296684,0.809218,0.297030,0.808977,0.318030,0.792977,0.318238,0.792810,0.338238,0.775810,0.338439,0.775630,0.357439,0.757630,0.357630,0.757439,0.375630,0.738439,0.375810,0.738238,0.392810,0.718238,0.392977,0.718030,0.408977,0.697030,0.409218,0.696684,0.437218,0.652684,0.437353,0.652460,0.450353,0.629460,0.450545,0.629083,0.461545,0.605083,0.461615,0.604923,
0.471615,0.580923,0.471682,0.580756,0.480682,0.556756,0.480828,0.556300,0.487828,0.530300,0.487862,0.530167,0.493862,0.505167,0.493910,0.504944,0.498910,0.478944,0.498967,0.478573,0.501967,0.452573,0.501985,0.452383,0.503985,0.426383,0.503996,0.426192,0.504996,0.400192,0.505000,0.400000,0.505000,-0.400000,0.504996,-0.400192,0.503996,-0.426192,0.503985,-0.426383,
0.501985,-0.452383,0.501967,-0.452573,0.498967,-0.478573,0.498910,-0.478944,0.493910,-0.504944,0.493862,-0.505167,0.487862,-0.530167,0.487828,-0.530300,0.480828,-0.556300,0.480682,-0.556756,0.471682,-0.580756,0.471615,-0.580923,0.461615,-0.604923,0.461545,-0.605083,0.450545,-0.629083,0.450353,-0.629460,0.437353,-0.652460,0.437218,-0.652684,0.409218,-0.696684,0.408977,-0.697030,
0.392977,-0.718030,0.392810,-0.718238,0.375810,-0.738238,0.375630,-0.738439,0.357630,-0.757439,0.357439,-0.757630,0.338439,-0.775630,0.338238,-0.775810,0.318238,-0.792810,0.318030,-0.792977,0.297030,-0.808977,0.296684,-0.809218,0.252684,-0.837218,0.252460,-0.837353,0.229460,-0.850353,0.229083,-0.850545,0.205083,-0.861545,0.204923,-0.861615,0.180923,-0.871615,0.180756,-0.871682,
0.156756,-0.880682,0.156300,-0.880828,0.130300,-0.887828,0.130167,-0.887862,0.105167,-0.893862,0.104944,-0.893910,0.078944,-0.898910,0.078573,-0.898967,0.052573,-0.901967,0.052383,-0.901985,0.026383,-0.903985,0.026192,-0.903996,0.000192,-0.904996,-0.000192,-0.904996,-0.026192,-0.903996,-0.026383,-0.903985,-0.052383,-0.901985,-0.052573,-0.901967,-0.078573,-0.898967,-0.078944,-0.898910,
-0.104944,-0.893910,-0.105167,-0.893862,-0.130167,-0.887862,-0.130300,-0.887828,-0.156300,-0.880828,-0.156756,-0.880682,-0.180756,-0.871682,-0.180923,-0.871615,-0.204923,-0.861615,-0.205083,-0.861545,-0.229083,-0.850545,-0.229460,-0.850353,-0.252460,-0.837353,-0.252684,-0.837218,-0.296684,-0.809218,-0.297030,-0.808977,-0.318030,-0.792977,-0.318238,-0.792810,-0.338238,-0.775810,-0.338439,-0.775630,
-0.357439,-0.757630,-0.357630,-0.757439,-0.375630,-0.738439,-0.375810,-0.738238,-0.392810,-0.718238,-0.392977,-0.718030,-0.408977,-0.697030,-0.409218,-0.696684,-0.437218,-0.652684,-0.437353,-0.652460,-0.450353,-0.629460,-0.450545,-0.629083,-0.461545,-0.605083,-0.461615,-0.604923,-0.471615,-0.580923,-0.471682,-0.580756,-0.480682,-0.556756,-0.480828,-0.556300,-0.487828,-0.530300,-0.487862,-0.530167,
-0.493862,-0.505167,-0.493910,-0.504944,-0.498910,-0.478944,-0.498967,-0.478573,-0.501967,-0.452573,-0.501985,-0.452383,-0.503985,-0.426383,-0.503996,-0.426192,-0.504996,-0.400192,-0.505000,-0.400000,-0.505000,0.400000,-0.504996,0.400192,-0.503996,0.426192,-0.503985,0.426383,-0.501985,0.452383,-0.501967,0.452573,-0.498967,0.478573,-0.498910,0.478944,-0.493910,0.504944,-0.493862,0.505167,
-0.487862,0.530167,-0.487828,0.530300,-0.480828,0.556300,-0.480682,0.556756,-0.471682,0.580756,-0.471615,0.580923,-0.461615,0.604923,-0.461545,0.605083,-0.450545,0.629083,-0.450353,0.629460,-0.437353,0.652460,-0.437218,0.652684,-0.409218,0.696684,-0.408977,0.697030,-0.392977,0.718030,-0.392810,0.718238,-0.375810,0.738238,-0.375630,0.738439,-0.357630,0.757439,-0.357439,0.757630,
-0.338439,0.775630,-0.338238,0.775810,-0.318238,0.792810,-0.318030,0.792977,-0.297030,0.808977,-0.296684,0.809218,-0.252684,0.837218,-0.252460,0.837353,-0.229460,0.850353,-0.229083,0.850545,-0.205083,0.861545,-0.204923,0.861615,-0.180923,0.871615,-0.180756,0.871682,-0.156756,0.880682,-0.156300,0.880828,-0.130300,0.887828,-0.130167,0.887862,-0.105167,0.893862,-0.104944,0.893910,
-0.078944,0.898910,-0.078573,0.898967,-0.052573,0.901967,-0.052383,0.901985,-0.026383,0.903985,-0.026192,0.903996,-0.000192,0.904996,0.000192,0.904996,0.026192,0.903996,0.026192,0.903996,$1*%
G04 Aperture macros list end*
%ADD10C,0.152400*%
%ADD11C,0.150000*%
%ADD12C,0.120000*%
%ADD13C,0.127000*%
%ADD14C,0.000000*%
%ADD15C,0.200000*%
%ADD16C,0.010000*%
%ADD17RoundRect,0.243750X0.243750X0.456250X-0.243750X0.456250X-0.243750X-0.456250X0.243750X-0.456250X0*%
%ADD18RoundRect,0.218750X0.256250X-0.218750X0.256250X0.218750X-0.256250X0.218750X-0.256250X-0.218750X0*%
%ADD19C,1.000000*%
%ADD20RoundRect,0.102000X0.600000X1.250000X-0.600000X1.250000X-0.600000X-1.250000X0.600000X-1.250000X0*%
%ADD21RoundRect,0.200000X-0.200000X-0.275000X0.200000X-0.275000X0.200000X0.275000X-0.200000X0.275000X0*%
%ADD22RoundRect,0.200000X0.275000X-0.200000X0.275000X0.200000X-0.275000X0.200000X-0.275000X-0.200000X0*%
%ADD23RoundRect,0.100000X0.225000X0.100000X-0.225000X0.100000X-0.225000X-0.100000X0.225000X-0.100000X0*%
%ADD24RoundRect,0.225000X-0.225000X-0.250000X0.225000X-0.250000X0.225000X0.250000X-0.225000X0.250000X0*%
%ADD25RoundRect,0.237500X0.237500X-0.250000X0.237500X0.250000X-0.237500X0.250000X-0.237500X-0.250000X0*%
%ADD26RoundRect,0.200000X-0.275000X0.200000X-0.275000X-0.200000X0.275000X-0.200000X0.275000X0.200000X0*%
%ADD27RoundRect,0.250000X-0.250000X-0.475000X0.250000X-0.475000X0.250000X0.475000X-0.250000X0.475000X0*%
%ADD28RoundRect,0.198500X0.508500X0.198500X-0.508500X0.198500X-0.508500X-0.198500X0.508500X-0.198500X0*%
%ADD29FreePoly0,90.000000*%
%ADD30C,0.650000*%
%ADD31R,1.150000X0.600000*%
%ADD32R,1.150000X0.300000*%
%ADD33O,2.176000X1.076000*%
%ADD34RoundRect,0.200000X0.200000X0.275000X-0.200000X0.275000X-0.200000X-0.275000X0.200000X-0.275000X0*%
%ADD35RoundRect,0.062500X0.350000X0.062500X-0.350000X0.062500X-0.350000X-0.062500X0.350000X-0.062500X0*%
%ADD36RoundRect,0.062500X0.062500X0.350000X-0.062500X0.350000X-0.062500X-0.350000X0.062500X-0.350000X0*%
%ADD37R,2.600000X2.600000*%
%ADD38RoundRect,0.250000X0.475000X-0.250000X0.475000X0.250000X-0.475000X0.250000X-0.475000X-0.250000X0*%
%ADD39RoundRect,0.225000X0.225000X0.250000X-0.225000X0.250000X-0.225000X-0.250000X0.225000X-0.250000X0*%
%ADD40RoundRect,0.150000X0.512500X0.150000X-0.512500X0.150000X-0.512500X-0.150000X0.512500X-0.150000X0*%
%ADD41R,1.700000X1.700000*%
%ADD42O,1.700000X1.700000*%
%ADD43C,0.600000*%
G04 APERTURE END LIST*
D10*
X65429803Y-40023984D02*
X66010375Y-40023984D01*
X66010375Y-40023984D02*
X66126489Y-40062689D01*
X66126489Y-40062689D02*
X66203899Y-40140098D01*
X66203899Y-40140098D02*
X66242603Y-40256213D01*
X66242603Y-40256213D02*
X66242603Y-40333622D01*
X66242603Y-39249889D02*
X66242603Y-39636937D01*
X66242603Y-39636937D02*
X65429803Y-39636937D01*
X66165194Y-38514499D02*
X66203899Y-38553203D01*
X66203899Y-38553203D02*
X66242603Y-38669318D01*
X66242603Y-38669318D02*
X66242603Y-38746727D01*
X66242603Y-38746727D02*
X66203899Y-38862841D01*
X66203899Y-38862841D02*
X66126489Y-38940251D01*
X66126489Y-38940251D02*
X66049079Y-38978956D01*
X66049079Y-38978956D02*
X65894260Y-39017660D01*
X65894260Y-39017660D02*
X65778146Y-39017660D01*
X65778146Y-39017660D02*
X65623327Y-38978956D01*
X65623327Y-38978956D02*
X65545918Y-38940251D01*
X65545918Y-38940251D02*
X65468508Y-38862841D01*
X65468508Y-38862841D02*
X65429803Y-38746727D01*
X65429803Y-38746727D02*
X65429803Y-38669318D01*
X65429803Y-38669318D02*
X65468508Y-38553203D01*
X65468508Y-38553203D02*
X65507213Y-38514499D01*
X65429803Y-37933927D02*
X66010375Y-37933927D01*
X66010375Y-37933927D02*
X66126489Y-37972632D01*
X66126489Y-37972632D02*
X66203899Y-38050041D01*
X66203899Y-38050041D02*
X66242603Y-38166156D01*
X66242603Y-38166156D02*
X66242603Y-38243565D01*
X66242603Y-37159832D02*
X66242603Y-37546880D01*
X66242603Y-37546880D02*
X65429803Y-37546880D01*
X66165194Y-36424442D02*
X66203899Y-36463146D01*
X66203899Y-36463146D02*
X66242603Y-36579261D01*
X66242603Y-36579261D02*
X66242603Y-36656670D01*
X66242603Y-36656670D02*
X66203899Y-36772784D01*
X66203899Y-36772784D02*
X66126489Y-36850194D01*
X66126489Y-36850194D02*
X66049079Y-36888899D01*
X66049079Y-36888899D02*
X65894260Y-36927603D01*
X65894260Y-36927603D02*
X65778146Y-36927603D01*
X65778146Y-36927603D02*
X65623327Y-36888899D01*
X65623327Y-36888899D02*
X65545918Y-36850194D01*
X65545918Y-36850194D02*
X65468508Y-36772784D01*
X65468508Y-36772784D02*
X65429803Y-36656670D01*
X65429803Y-36656670D02*
X65429803Y-36579261D01*
X65429803Y-36579261D02*
X65468508Y-36463146D01*
X65468508Y-36463146D02*
X65507213Y-36424442D01*
X65429803Y-35843870D02*
X66010375Y-35843870D01*
X66010375Y-35843870D02*
X66126489Y-35882575D01*
X66126489Y-35882575D02*
X66203899Y-35959984D01*
X66203899Y-35959984D02*
X66242603Y-36076099D01*
X66242603Y-36076099D02*
X66242603Y-36153508D01*
X66242603Y-35069775D02*
X66242603Y-35456823D01*
X66242603Y-35456823D02*
X65429803Y-35456823D01*
X66165194Y-34334385D02*
X66203899Y-34373089D01*
X66203899Y-34373089D02*
X66242603Y-34489204D01*
X66242603Y-34489204D02*
X66242603Y-34566613D01*
X66242603Y-34566613D02*
X66203899Y-34682727D01*
X66203899Y-34682727D02*
X66126489Y-34760137D01*
X66126489Y-34760137D02*
X66049079Y-34798842D01*
X66049079Y-34798842D02*
X65894260Y-34837546D01*
X65894260Y-34837546D02*
X65778146Y-34837546D01*
X65778146Y-34837546D02*
X65623327Y-34798842D01*
X65623327Y-34798842D02*
X65545918Y-34760137D01*
X65545918Y-34760137D02*
X65468508Y-34682727D01*
X65468508Y-34682727D02*
X65429803Y-34566613D01*
X65429803Y-34566613D02*
X65429803Y-34489204D01*
X65429803Y-34489204D02*
X65468508Y-34373089D01*
X65468508Y-34373089D02*
X65507213Y-34334385D01*
X65429803Y-33753813D02*
X66010375Y-33753813D01*
X66010375Y-33753813D02*
X66126489Y-33792518D01*
X66126489Y-33792518D02*
X66203899Y-33869927D01*
X66203899Y-33869927D02*
X66242603Y-33986042D01*
X66242603Y-33986042D02*
X66242603Y-34063451D01*
X66242603Y-32979718D02*
X66242603Y-33366766D01*
X66242603Y-33366766D02*
X65429803Y-33366766D01*
X66165194Y-32244328D02*
X66203899Y-32283032D01*
X66203899Y-32283032D02*
X66242603Y-32399147D01*
X66242603Y-32399147D02*
X66242603Y-32476556D01*
X66242603Y-32476556D02*
X66203899Y-32592670D01*
X66203899Y-32592670D02*
X66126489Y-32670080D01*
X66126489Y-32670080D02*
X66049079Y-32708785D01*
X66049079Y-32708785D02*
X65894260Y-32747489D01*
X65894260Y-32747489D02*
X65778146Y-32747489D01*
X65778146Y-32747489D02*
X65623327Y-32708785D01*
X65623327Y-32708785D02*
X65545918Y-32670080D01*
X65545918Y-32670080D02*
X65468508Y-32592670D01*
X65468508Y-32592670D02*
X65429803Y-32476556D01*
X65429803Y-32476556D02*
X65429803Y-32399147D01*
X65429803Y-32399147D02*
X65468508Y-32283032D01*
X65468508Y-32283032D02*
X65507213Y-32244328D01*
X49433786Y-43266851D02*
X49704720Y-43266851D01*
X49820834Y-43692603D02*
X49433786Y-43692603D01*
X49433786Y-43692603D02*
X49433786Y-42879803D01*
X49433786Y-42879803D02*
X49820834Y-42879803D01*
X50169176Y-43692603D02*
X50169176Y-42879803D01*
X50169176Y-42879803D02*
X50633633Y-43692603D01*
X50633633Y-43692603D02*
X50633633Y-42879803D01*
X46556377Y-42879803D02*
X47059539Y-42879803D01*
X47059539Y-42879803D02*
X46788605Y-43189441D01*
X46788605Y-43189441D02*
X46904720Y-43189441D01*
X46904720Y-43189441D02*
X46982129Y-43228146D01*
X46982129Y-43228146D02*
X47020834Y-43266851D01*
X47020834Y-43266851D02*
X47059539Y-43344260D01*
X47059539Y-43344260D02*
X47059539Y-43537784D01*
X47059539Y-43537784D02*
X47020834Y-43615194D01*
X47020834Y-43615194D02*
X46982129Y-43653899D01*
X46982129Y-43653899D02*
X46904720Y-43692603D01*
X46904720Y-43692603D02*
X46672491Y-43692603D01*
X46672491Y-43692603D02*
X46595082Y-43653899D01*
X46595082Y-43653899D02*
X46556377Y-43615194D01*
X47330472Y-43150737D02*
X47523996Y-43692603D01*
X47523996Y-43692603D02*
X47717519Y-43150737D01*
X47949748Y-42879803D02*
X48452910Y-42879803D01*
X48452910Y-42879803D02*
X48181976Y-43189441D01*
X48181976Y-43189441D02*
X48298091Y-43189441D01*
X48298091Y-43189441D02*
X48375500Y-43228146D01*
X48375500Y-43228146D02*
X48414205Y-43266851D01*
X48414205Y-43266851D02*
X48452910Y-43344260D01*
X48452910Y-43344260D02*
X48452910Y-43537784D01*
X48452910Y-43537784D02*
X48414205Y-43615194D01*
X48414205Y-43615194D02*
X48375500Y-43653899D01*
X48375500Y-43653899D02*
X48298091Y-43692603D01*
X48298091Y-43692603D02*
X48065862Y-43692603D01*
X48065862Y-43692603D02*
X47988453Y-43653899D01*
X47988453Y-43653899D02*
X47949748Y-43615194D01*
X59290739Y-22394170D02*
X59290739Y-21594170D01*
X59290739Y-21594170D02*
X59595501Y-21594170D01*
X59595501Y-21594170D02*
X59671691Y-21632265D01*
X59671691Y-21632265D02*
X59709786Y-21670360D01*
X59709786Y-21670360D02*
X59747882Y-21746551D01*
X59747882Y-21746551D02*
X59747882Y-21860836D01*
X59747882Y-21860836D02*
X59709786Y-21937027D01*
X59709786Y-21937027D02*
X59671691Y-21975122D01*
X59671691Y-21975122D02*
X59595501Y-22013217D01*
X59595501Y-22013217D02*
X59290739Y-22013217D01*
X60014548Y-21594170D02*
X60205024Y-22394170D01*
X60205024Y-22394170D02*
X60357405Y-21822741D01*
X60357405Y-21822741D02*
X60509786Y-22394170D01*
X60509786Y-22394170D02*
X60700263Y-21594170D01*
X61462168Y-22394170D02*
X61195501Y-22013217D01*
X61005025Y-22394170D02*
X61005025Y-21594170D01*
X61005025Y-21594170D02*
X61309787Y-21594170D01*
X61309787Y-21594170D02*
X61385977Y-21632265D01*
X61385977Y-21632265D02*
X61424072Y-21670360D01*
X61424072Y-21670360D02*
X61462168Y-21746551D01*
X61462168Y-21746551D02*
X61462168Y-21860836D01*
X61462168Y-21860836D02*
X61424072Y-21937027D01*
X61424072Y-21937027D02*
X61385977Y-21975122D01*
X61385977Y-21975122D02*
X61309787Y-22013217D01*
X61309787Y-22013217D02*
X61005025Y-22013217D01*
G36*
X62355015Y-43432480D02*
G01*
X62294179Y-43462898D01*
X62032537Y-43462898D01*
X61952296Y-43422779D01*
X61912177Y-43342539D01*
X61912177Y-43259467D01*
X61952296Y-43179227D01*
X62032536Y-43139108D01*
X62312167Y-43139108D01*
X62327033Y-43137644D01*
X62329563Y-43136595D01*
X62332293Y-43136402D01*
X62346245Y-43131063D01*
X62355015Y-43126678D01*
X62355015Y-43432480D01*
G37*
G36*
X59469408Y-42411245D02*
G01*
X59511445Y-42453283D01*
X59557395Y-42545182D01*
X59557395Y-42687777D01*
X59511446Y-42779674D01*
X59469407Y-42821712D01*
X59377512Y-42867660D01*
X58995510Y-42867660D01*
X58995510Y-42365298D01*
X59377512Y-42365298D01*
X59469408Y-42411245D01*
G37*
G36*
X64789161Y-43754187D02*
G01*
X56382793Y-43754187D01*
X56382793Y-42289098D01*
X56521682Y-42289098D01*
X56521682Y-43539098D01*
X56523146Y-43553964D01*
X56534524Y-43581432D01*
X56555548Y-43602456D01*
X56583016Y-43613834D01*
X56597882Y-43615298D01*
X57193120Y-43615298D01*
X57207986Y-43613834D01*
X57235454Y-43602456D01*
X57256478Y-43581432D01*
X57267856Y-43553964D01*
X57267856Y-43524232D01*
X57256478Y-43496764D01*
X57235454Y-43475740D01*
X57207986Y-43464362D01*
X57193120Y-43462898D01*
X56674082Y-43462898D01*
X56674082Y-42960536D01*
X57014548Y-42960536D01*
X57029414Y-42959072D01*
X57056882Y-42947694D01*
X57077906Y-42926670D01*
X57089284Y-42899202D01*
X57089284Y-42869470D01*
X57077906Y-42842002D01*
X57056882Y-42820978D01*
X57029414Y-42809600D01*
X57014548Y-42808136D01*
X56674082Y-42808136D01*
X56674082Y-42527194D01*
X57593110Y-42527194D01*
X57593110Y-42646241D01*
X57594574Y-42661107D01*
X57595622Y-42663637D01*
X57595816Y-42666367D01*
X57601155Y-42680319D01*
X57660679Y-42799367D01*
X57664704Y-42805762D01*
X57665475Y-42807623D01*
X57667192Y-42809715D01*
X57668636Y-42812009D01*
X57670158Y-42813329D01*
X57674952Y-42819170D01*
X57734475Y-42878694D01*
X57740319Y-42883490D01*
X57741638Y-42885011D01*
X57743928Y-42886453D01*
X57746022Y-42888171D01*
X57747881Y-42888941D01*
X57754280Y-42892969D01*
X57873328Y-42952491D01*
X57874413Y-42952906D01*
X57874857Y-42953235D01*
X57881109Y-42955468D01*
X57887279Y-42957830D01*
X57887826Y-42957868D01*
X57888924Y-42958261D01*
X58118905Y-43015756D01*
X58219407Y-43066007D01*
X58261447Y-43108047D01*
X58307395Y-43199943D01*
X58307395Y-43283014D01*
X58261445Y-43374913D01*
X58219407Y-43416951D01*
X58127512Y-43462898D01*
X57860247Y-43462898D01*
X57693406Y-43407285D01*
X57678840Y-43403973D01*
X57649184Y-43406081D01*
X57622590Y-43419378D01*
X57603110Y-43441838D01*
X57593708Y-43470045D01*
X57595816Y-43499701D01*
X57609113Y-43526295D01*
X57631573Y-43545775D01*
X57645214Y-43551865D01*
X57823785Y-43611388D01*
X57831156Y-43613064D01*
X57833015Y-43613834D01*
X57835709Y-43614099D01*
X57838351Y-43614700D01*
X57840359Y-43614557D01*
X57847881Y-43615298D01*
X58145500Y-43615298D01*
X58160366Y-43613834D01*
X58162896Y-43612785D01*
X58165626Y-43612592D01*
X58179577Y-43607254D01*
X58298625Y-43547731D01*
X58305025Y-43543702D01*
X58306882Y-43542933D01*
X58308973Y-43541216D01*
X58311267Y-43539773D01*
X58312585Y-43538253D01*
X58318430Y-43533457D01*
X58377954Y-43473932D01*
X58382748Y-43468089D01*
X58384270Y-43466770D01*
X58385714Y-43464475D01*
X58387430Y-43462385D01*
X58388199Y-43460528D01*
X58392228Y-43454128D01*
X58451750Y-43335080D01*
X58457089Y-43321129D01*
X58457282Y-43318399D01*
X58458331Y-43315869D01*
X58459795Y-43301003D01*
X58459795Y-43181955D01*
X58458331Y-43167089D01*
X58457282Y-43164558D01*
X58457089Y-43161829D01*
X58451750Y-43147877D01*
X58392227Y-43028831D01*
X58388200Y-43022433D01*
X58387430Y-43020574D01*
X58385713Y-43018482D01*
X58384270Y-43016189D01*
X58382748Y-43014869D01*
X58377954Y-43009027D01*
X58318430Y-42949502D01*
X58312588Y-42944708D01*
X58311268Y-42943186D01*
X58308971Y-42941740D01*
X58306882Y-42940026D01*
X58305025Y-42939257D01*
X58298626Y-42935229D01*
X58179578Y-42875705D01*
X58178492Y-42875289D01*
X58178049Y-42874961D01*
X58171787Y-42872723D01*
X58165626Y-42870366D01*
X58165079Y-42870327D01*
X58163982Y-42869935D01*
X57934001Y-42812439D01*
X57833494Y-42762186D01*
X57791458Y-42720150D01*
X57745510Y-42628253D01*
X57745510Y-42545181D01*
X57791458Y-42453284D01*
X57833495Y-42411246D01*
X57925393Y-42365298D01*
X58192657Y-42365298D01*
X58359498Y-42420911D01*
X58374064Y-42424224D01*
X58403720Y-42422116D01*
X58430314Y-42408819D01*
X58449794Y-42386359D01*
X58459196Y-42358152D01*
X58457088Y-42328496D01*
X58443792Y-42301902D01*
X58429029Y-42289098D01*
X58843110Y-42289098D01*
X58843110Y-43539098D01*
X58844574Y-43553964D01*
X58855952Y-43581432D01*
X58876976Y-43602456D01*
X58904444Y-43613834D01*
X58934176Y-43613834D01*
X58961644Y-43602456D01*
X58982668Y-43581432D01*
X58994046Y-43553964D01*
X58995510Y-43539098D01*
X58995510Y-43020060D01*
X59395500Y-43020060D01*
X59410366Y-43018596D01*
X59412896Y-43017547D01*
X59415626Y-43017354D01*
X59429578Y-43012015D01*
X59548626Y-42952491D01*
X59555025Y-42948462D01*
X59556882Y-42947694D01*
X59558971Y-42945979D01*
X59561268Y-42944534D01*
X59562588Y-42943011D01*
X59568430Y-42938218D01*
X59627952Y-42878695D01*
X59632746Y-42872853D01*
X59634269Y-42871533D01*
X59635712Y-42869238D01*
X59637429Y-42867148D01*
X59638198Y-42865289D01*
X59642226Y-42858891D01*
X59701750Y-42739842D01*
X59707089Y-42725891D01*
X59707283Y-42723160D01*
X59708331Y-42720631D01*
X59709795Y-42705765D01*
X59709795Y-42527194D01*
X59708331Y-42512328D01*
X59707283Y-42509798D01*
X59707089Y-42507068D01*
X59701750Y-42493117D01*
X59642226Y-42374068D01*
X59638200Y-42367672D01*
X59637430Y-42365812D01*
X59635712Y-42363719D01*
X59634269Y-42361426D01*
X59632746Y-42360105D01*
X59627953Y-42354265D01*
X59568430Y-42294741D01*
X59562588Y-42289946D01*
X59561853Y-42289098D01*
X60093110Y-42289098D01*
X60093110Y-43539098D01*
X60094574Y-43553964D01*
X60105952Y-43581432D01*
X60126976Y-43602456D01*
X60154444Y-43613834D01*
X60184176Y-43613834D01*
X60211644Y-43602456D01*
X60232668Y-43581432D01*
X60244046Y-43553964D01*
X60245510Y-43539098D01*
X60245510Y-42960536D01*
X60585976Y-42960536D01*
X60600842Y-42959072D01*
X60628310Y-42947694D01*
X60649334Y-42926670D01*
X60660712Y-42899202D01*
X60660712Y-42869470D01*
X60649334Y-42842002D01*
X60628310Y-42820978D01*
X60600842Y-42809600D01*
X60585976Y-42808136D01*
X60245510Y-42808136D01*
X60245510Y-42365298D01*
X60764548Y-42365298D01*
X60779414Y-42363834D01*
X60806882Y-42352456D01*
X60827906Y-42331432D01*
X60839284Y-42303964D01*
X60839284Y-42289098D01*
X61164539Y-42289098D01*
X61164539Y-43360527D01*
X61166003Y-43375393D01*
X61167051Y-43377923D01*
X61167245Y-43380653D01*
X61172583Y-43394604D01*
X61232106Y-43513652D01*
X61233672Y-43516140D01*
X61234063Y-43517312D01*
X61235328Y-43518770D01*
X61240064Y-43526294D01*
X61247282Y-43532554D01*
X61253543Y-43539773D01*
X61261066Y-43544508D01*
X61262525Y-43545774D01*
X61263696Y-43546164D01*
X61266185Y-43547731D01*
X61385233Y-43607253D01*
X61399184Y-43612592D01*
X61428840Y-43614699D01*
X61457047Y-43605297D01*
X61479508Y-43585817D01*
X61492804Y-43559224D01*
X61494911Y-43529567D01*
X61485509Y-43501361D01*
X61466029Y-43478900D01*
X61453387Y-43470942D01*
X61357057Y-43422778D01*
X61316939Y-43342538D01*
X61316939Y-43241479D01*
X61759777Y-43241479D01*
X61759777Y-43360527D01*
X61761241Y-43375393D01*
X61762289Y-43377923D01*
X61762483Y-43380653D01*
X61767822Y-43394605D01*
X61827346Y-43513653D01*
X61828911Y-43516140D01*
X61829302Y-43517312D01*
X61830567Y-43518770D01*
X61835303Y-43526295D01*
X61842523Y-43532557D01*
X61848782Y-43539773D01*
X61856302Y-43544506D01*
X61857764Y-43545774D01*
X61858938Y-43546165D01*
X61861424Y-43547730D01*
X61980470Y-43607253D01*
X61994422Y-43612592D01*
X61997151Y-43612785D01*
X61999682Y-43613834D01*
X62014548Y-43615298D01*
X62312167Y-43615298D01*
X62327033Y-43613834D01*
X62329563Y-43612785D01*
X62332293Y-43612592D01*
X62346244Y-43607254D01*
X62377867Y-43591442D01*
X62388881Y-43602456D01*
X62416349Y-43613834D01*
X62446081Y-43613834D01*
X62473549Y-43602456D01*
X62494573Y-43581432D01*
X62505951Y-43553964D01*
X62507415Y-43539098D01*
X62507415Y-42884336D01*
X62890729Y-42884336D01*
X62890729Y-42943860D01*
X62892193Y-42958726D01*
X62893241Y-42961256D01*
X62893435Y-42963986D01*
X62898774Y-42977938D01*
X62958298Y-43096986D01*
X62959863Y-43099473D01*
X62960254Y-43100645D01*
X62961519Y-43102103D01*
X62966255Y-43109628D01*
X62973475Y-43115889D01*
X62979733Y-43123105D01*
X62987255Y-43127840D01*
X62988716Y-43129107D01*
X62989888Y-43129497D01*
X62992375Y-43131063D01*
X63111422Y-43190587D01*
X63125374Y-43195926D01*
X63128104Y-43196120D01*
X63130634Y-43197168D01*
X63145500Y-43198632D01*
X63306085Y-43198632D01*
X63386323Y-43238751D01*
X63426443Y-43318991D01*
X63426443Y-43342539D01*
X63386323Y-43422779D01*
X63306085Y-43462898D01*
X63103965Y-43462898D01*
X63001006Y-43411420D01*
X62987055Y-43406081D01*
X62957399Y-43403974D01*
X62929192Y-43413376D01*
X62906731Y-43432856D01*
X62893435Y-43459449D01*
X62891328Y-43489105D01*
X62900730Y-43517312D01*
X62920210Y-43539773D01*
X62932852Y-43547730D01*
X63051898Y-43607253D01*
X63065850Y-43612592D01*
X63068579Y-43612785D01*
X63071110Y-43613834D01*
X63085976Y-43615298D01*
X63324072Y-43615298D01*
X63338938Y-43613834D01*
X63341468Y-43612785D01*
X63344198Y-43612592D01*
X63358149Y-43607253D01*
X63477196Y-43547731D01*
X63479684Y-43546164D01*
X63480856Y-43545774D01*
X63482315Y-43544508D01*
X63489838Y-43539773D01*
X63496096Y-43532557D01*
X63503317Y-43526295D01*
X63508052Y-43518770D01*
X63509318Y-43517312D01*
X63509708Y-43516139D01*
X63511274Y-43513653D01*
X63570798Y-43394604D01*
X63576137Y-43380653D01*
X63576331Y-43377922D01*
X63577379Y-43375393D01*
X63578843Y-43360527D01*
X63578843Y-43301003D01*
X63577379Y-43286137D01*
X63576331Y-43283607D01*
X63576137Y-43280877D01*
X63570798Y-43266926D01*
X63511274Y-43147877D01*
X63509708Y-43145390D01*
X63509318Y-43144218D01*
X63508052Y-43142759D01*
X63503317Y-43135235D01*
X63496096Y-43128972D01*
X63489838Y-43121757D01*
X63482315Y-43117021D01*
X63480856Y-43115756D01*
X63479684Y-43115365D01*
X63477196Y-43113799D01*
X63358149Y-43054277D01*
X63344198Y-43048938D01*
X63341468Y-43048744D01*
X63338938Y-43047696D01*
X63324072Y-43046232D01*
X63163488Y-43046232D01*
X63083248Y-43006111D01*
X63043129Y-42925872D01*
X63043129Y-42902324D01*
X63083248Y-42822084D01*
X63163488Y-42781965D01*
X63306084Y-42781965D01*
X63409041Y-42833444D01*
X63422993Y-42838783D01*
X63452649Y-42840891D01*
X63480856Y-42831488D01*
X63503317Y-42812009D01*
X63516613Y-42785416D01*
X63518721Y-42755759D01*
X63509319Y-42727553D01*
X63489839Y-42705092D01*
X63477197Y-42697134D01*
X63358150Y-42637610D01*
X63344199Y-42632271D01*
X63341467Y-42632076D01*
X63338938Y-42631029D01*
X63324072Y-42629565D01*
X63145500Y-42629565D01*
X63130634Y-42631029D01*
X63128104Y-42632076D01*
X63125374Y-42632271D01*
X63111422Y-42637610D01*
X62992375Y-42697134D01*
X62989890Y-42698697D01*
X62988717Y-42699089D01*
X62987254Y-42700357D01*
X62979733Y-42705092D01*
X62973473Y-42712309D01*
X62966256Y-42718569D01*
X62961520Y-42726091D01*
X62960254Y-42727552D01*
X62959863Y-42728724D01*
X62958298Y-42731211D01*
X62898774Y-42850258D01*
X62893435Y-42864209D01*
X62893240Y-42866940D01*
X62892193Y-42869470D01*
X62890729Y-42884336D01*
X62507415Y-42884336D01*
X62505951Y-42869470D01*
X62504903Y-42866940D01*
X62504709Y-42864210D01*
X62499370Y-42850258D01*
X62439846Y-42731211D01*
X62438280Y-42728724D01*
X62437890Y-42727552D01*
X62436623Y-42726091D01*
X62431888Y-42718569D01*
X62424672Y-42712311D01*
X62418411Y-42705091D01*
X62410886Y-42700355D01*
X62409428Y-42699090D01*
X62408256Y-42698699D01*
X62405769Y-42697134D01*
X62286721Y-42637610D01*
X62272769Y-42632271D01*
X62270039Y-42632077D01*
X62267509Y-42631029D01*
X62252643Y-42629565D01*
X62014548Y-42629565D01*
X61999682Y-42631029D01*
X61997152Y-42632076D01*
X61994422Y-42632271D01*
X61980470Y-42637610D01*
X61861423Y-42697134D01*
X61848781Y-42705092D01*
X61829302Y-42727552D01*
X61819900Y-42755759D01*
X61822007Y-42785416D01*
X61835304Y-42812009D01*
X61857764Y-42831488D01*
X61885971Y-42840890D01*
X61915628Y-42838783D01*
X61929579Y-42833444D01*
X62032536Y-42781965D01*
X62234655Y-42781965D01*
X62314894Y-42822084D01*
X62355015Y-42902324D01*
X62355015Y-42956290D01*
X62294179Y-42986708D01*
X62014548Y-42986708D01*
X61999682Y-42988172D01*
X61997152Y-42989219D01*
X61994422Y-42989414D01*
X61980470Y-42994753D01*
X61861423Y-43054277D01*
X61858938Y-43055840D01*
X61857765Y-43056232D01*
X61856302Y-43057500D01*
X61848781Y-43062235D01*
X61842521Y-43069452D01*
X61835304Y-43075712D01*
X61830568Y-43083234D01*
X61829302Y-43084695D01*
X61828911Y-43085867D01*
X61827346Y-43088354D01*
X61767822Y-43207401D01*
X61762483Y-43221352D01*
X61762288Y-43224083D01*
X61761241Y-43226613D01*
X61759777Y-43241479D01*
X61316939Y-43241479D01*
X61316939Y-42289098D01*
X63962158Y-42289098D01*
X63962158Y-43539098D01*
X63963622Y-43553964D01*
X63975000Y-43581432D01*
X63996024Y-43602456D01*
X64023492Y-43613834D01*
X64053224Y-43613834D01*
X64080692Y-43602456D01*
X64101716Y-43581432D01*
X64113094Y-43553964D01*
X64114558Y-43539098D01*
X64114558Y-42856375D01*
X64143019Y-42827913D01*
X64234917Y-42781965D01*
X64377512Y-42781965D01*
X64457751Y-42822084D01*
X64497872Y-42902324D01*
X64497872Y-43539098D01*
X64499336Y-43553964D01*
X64510714Y-43581432D01*
X64531738Y-43602456D01*
X64559206Y-43613834D01*
X64588938Y-43613834D01*
X64616406Y-43602456D01*
X64637430Y-43581432D01*
X64648808Y-43553964D01*
X64650272Y-43539098D01*
X64650272Y-42884336D01*
X64648808Y-42869470D01*
X64647760Y-42866940D01*
X64647566Y-42864210D01*
X64642227Y-42850258D01*
X64582703Y-42731211D01*
X64581137Y-42728724D01*
X64580747Y-42727552D01*
X64579480Y-42726091D01*
X64574745Y-42718569D01*
X64567529Y-42712311D01*
X64561268Y-42705091D01*
X64553743Y-42700355D01*
X64552285Y-42699090D01*
X64551113Y-42698699D01*
X64548626Y-42697134D01*
X64429578Y-42637610D01*
X64415626Y-42632271D01*
X64412896Y-42632077D01*
X64410366Y-42631029D01*
X64395500Y-42629565D01*
X64216929Y-42629565D01*
X64202063Y-42631029D01*
X64199533Y-42632076D01*
X64196803Y-42632271D01*
X64182852Y-42637610D01*
X64114558Y-42671756D01*
X64114558Y-42289098D01*
X64113094Y-42274232D01*
X64101716Y-42246764D01*
X64080692Y-42225740D01*
X64053224Y-42214362D01*
X64023492Y-42214362D01*
X63996024Y-42225740D01*
X63975000Y-42246764D01*
X63963622Y-42274232D01*
X63962158Y-42289098D01*
X61316939Y-42289098D01*
X61315475Y-42274232D01*
X61304097Y-42246764D01*
X61283073Y-42225740D01*
X61255605Y-42214362D01*
X61225873Y-42214362D01*
X61198405Y-42225740D01*
X61177381Y-42246764D01*
X61166003Y-42274232D01*
X61164539Y-42289098D01*
X60839284Y-42289098D01*
X60839284Y-42274232D01*
X60827906Y-42246764D01*
X60806882Y-42225740D01*
X60779414Y-42214362D01*
X60764548Y-42212898D01*
X60169310Y-42212898D01*
X60154444Y-42214362D01*
X60126976Y-42225740D01*
X60105952Y-42246764D01*
X60094574Y-42274232D01*
X60093110Y-42289098D01*
X59561853Y-42289098D01*
X59561268Y-42288424D01*
X59558973Y-42286980D01*
X59556883Y-42285264D01*
X59555024Y-42284494D01*
X59548626Y-42280467D01*
X59429578Y-42220943D01*
X59415626Y-42215604D01*
X59412896Y-42215410D01*
X59410366Y-42214362D01*
X59395500Y-42212898D01*
X58919310Y-42212898D01*
X58904444Y-42214362D01*
X58876976Y-42225740D01*
X58855952Y-42246764D01*
X58844574Y-42274232D01*
X58843110Y-42289098D01*
X58429029Y-42289098D01*
X58421331Y-42282422D01*
X58407691Y-42276332D01*
X58229121Y-42216808D01*
X58221747Y-42215131D01*
X58219890Y-42214362D01*
X58217197Y-42214096D01*
X58214555Y-42213496D01*
X58212546Y-42213638D01*
X58205024Y-42212898D01*
X57907405Y-42212898D01*
X57892539Y-42214362D01*
X57890009Y-42215409D01*
X57887279Y-42215604D01*
X57873328Y-42220943D01*
X57754279Y-42280467D01*
X57747880Y-42284494D01*
X57746022Y-42285264D01*
X57743931Y-42286980D01*
X57741637Y-42288424D01*
X57740316Y-42289946D01*
X57734475Y-42294741D01*
X57674952Y-42354265D01*
X57670158Y-42360105D01*
X57668636Y-42361426D01*
X57667192Y-42363719D01*
X57665475Y-42365812D01*
X57664704Y-42367672D01*
X57660679Y-42374068D01*
X57601155Y-42493116D01*
X57595816Y-42507068D01*
X57595622Y-42509797D01*
X57594574Y-42512328D01*
X57593110Y-42527194D01*
X56674082Y-42527194D01*
X56674082Y-42365298D01*
X57193120Y-42365298D01*
X57207986Y-42363834D01*
X57235454Y-42352456D01*
X57256478Y-42331432D01*
X57267856Y-42303964D01*
X57267856Y-42274232D01*
X57256478Y-42246764D01*
X57235454Y-42225740D01*
X57207986Y-42214362D01*
X57193120Y-42212898D01*
X56597882Y-42212898D01*
X56583016Y-42214362D01*
X56555548Y-42225740D01*
X56534524Y-42246764D01*
X56523146Y-42274232D01*
X56521682Y-42289098D01*
X56382793Y-42289098D01*
X56382793Y-42074009D01*
X64789161Y-42074009D01*
X64789161Y-43754187D01*
G37*
X51464720Y-43266851D02*
X51580834Y-43305556D01*
X51580834Y-43305556D02*
X51619539Y-43344260D01*
X51619539Y-43344260D02*
X51658243Y-43421670D01*
X51658243Y-43421670D02*
X51658243Y-43537784D01*
X51658243Y-43537784D02*
X51619539Y-43615194D01*
X51619539Y-43615194D02*
X51580834Y-43653899D01*
X51580834Y-43653899D02*
X51503424Y-43692603D01*
X51503424Y-43692603D02*
X51193786Y-43692603D01*
X51193786Y-43692603D02*
X51193786Y-42879803D01*
X51193786Y-42879803D02*
X51464720Y-42879803D01*
X51464720Y-42879803D02*
X51542129Y-42918508D01*
X51542129Y-42918508D02*
X51580834Y-42957213D01*
X51580834Y-42957213D02*
X51619539Y-43034622D01*
X51619539Y-43034622D02*
X51619539Y-43112032D01*
X51619539Y-43112032D02*
X51580834Y-43189441D01*
X51580834Y-43189441D02*
X51542129Y-43228146D01*
X51542129Y-43228146D02*
X51464720Y-43266851D01*
X51464720Y-43266851D02*
X51193786Y-43266851D01*
X52161405Y-42879803D02*
X52316224Y-42879803D01*
X52316224Y-42879803D02*
X52393634Y-42918508D01*
X52393634Y-42918508D02*
X52471043Y-42995918D01*
X52471043Y-42995918D02*
X52509748Y-43150737D01*
X52509748Y-43150737D02*
X52509748Y-43421670D01*
X52509748Y-43421670D02*
X52471043Y-43576489D01*
X52471043Y-43576489D02*
X52393634Y-43653899D01*
X52393634Y-43653899D02*
X52316224Y-43692603D01*
X52316224Y-43692603D02*
X52161405Y-43692603D01*
X52161405Y-43692603D02*
X52083996Y-43653899D01*
X52083996Y-43653899D02*
X52006586Y-43576489D01*
X52006586Y-43576489D02*
X51967882Y-43421670D01*
X51967882Y-43421670D02*
X51967882Y-43150737D01*
X51967882Y-43150737D02*
X52006586Y-42995918D01*
X52006586Y-42995918D02*
X52083996Y-42918508D01*
X52083996Y-42918508D02*
X52161405Y-42879803D01*
X53012910Y-42879803D02*
X53167729Y-42879803D01*
X53167729Y-42879803D02*
X53245139Y-42918508D01*
X53245139Y-42918508D02*
X53322548Y-42995918D01*
X53322548Y-42995918D02*
X53361253Y-43150737D01*
X53361253Y-43150737D02*
X53361253Y-43421670D01*
X53361253Y-43421670D02*
X53322548Y-43576489D01*
X53322548Y-43576489D02*
X53245139Y-43653899D01*
X53245139Y-43653899D02*
X53167729Y-43692603D01*
X53167729Y-43692603D02*
X53012910Y-43692603D01*
X53012910Y-43692603D02*
X52935501Y-43653899D01*
X52935501Y-43653899D02*
X52858091Y-43576489D01*
X52858091Y-43576489D02*
X52819387Y-43421670D01*
X52819387Y-43421670D02*
X52819387Y-43150737D01*
X52819387Y-43150737D02*
X52858091Y-42995918D01*
X52858091Y-42995918D02*
X52935501Y-42918508D01*
X52935501Y-42918508D02*
X53012910Y-42879803D01*
X53593482Y-42879803D02*
X54057939Y-42879803D01*
X53825711Y-43692603D02*
X53825711Y-42879803D01*
X41717672Y-42879803D02*
X42182129Y-42879803D01*
X41949901Y-43692603D02*
X41949901Y-42879803D01*
X42375653Y-42879803D02*
X42917519Y-43692603D01*
X42917519Y-42879803D02*
X42375653Y-43692603D01*
X44798243Y-43692603D02*
X44527310Y-43305556D01*
X44333786Y-43692603D02*
X44333786Y-42879803D01*
X44333786Y-42879803D02*
X44643424Y-42879803D01*
X44643424Y-42879803D02*
X44720834Y-42918508D01*
X44720834Y-42918508D02*
X44759539Y-42957213D01*
X44759539Y-42957213D02*
X44798243Y-43034622D01*
X44798243Y-43034622D02*
X44798243Y-43150737D01*
X44798243Y-43150737D02*
X44759539Y-43228146D01*
X44759539Y-43228146D02*
X44720834Y-43266851D01*
X44720834Y-43266851D02*
X44643424Y-43305556D01*
X44643424Y-43305556D02*
X44333786Y-43305556D01*
X45069177Y-42879803D02*
X45611043Y-43692603D01*
X45611043Y-42879803D02*
X45069177Y-43692603D01*
X39259539Y-42918508D02*
X39182129Y-42879803D01*
X39182129Y-42879803D02*
X39066015Y-42879803D01*
X39066015Y-42879803D02*
X38949901Y-42918508D01*
X38949901Y-42918508D02*
X38872491Y-42995918D01*
X38872491Y-42995918D02*
X38833786Y-43073327D01*
X38833786Y-43073327D02*
X38795082Y-43228146D01*
X38795082Y-43228146D02*
X38795082Y-43344260D01*
X38795082Y-43344260D02*
X38833786Y-43499079D01*
X38833786Y-43499079D02*
X38872491Y-43576489D01*
X38872491Y-43576489D02*
X38949901Y-43653899D01*
X38949901Y-43653899D02*
X39066015Y-43692603D01*
X39066015Y-43692603D02*
X39143424Y-43692603D01*
X39143424Y-43692603D02*
X39259539Y-43653899D01*
X39259539Y-43653899D02*
X39298243Y-43615194D01*
X39298243Y-43615194D02*
X39298243Y-43344260D01*
X39298243Y-43344260D02*
X39143424Y-43344260D01*
X39646586Y-43692603D02*
X39646586Y-42879803D01*
X39646586Y-42879803D02*
X40111043Y-43692603D01*
X40111043Y-43692603D02*
X40111043Y-42879803D01*
X40498091Y-43692603D02*
X40498091Y-42879803D01*
X40498091Y-42879803D02*
X40691615Y-42879803D01*
X40691615Y-42879803D02*
X40807729Y-42918508D01*
X40807729Y-42918508D02*
X40885139Y-42995918D01*
X40885139Y-42995918D02*
X40923844Y-43073327D01*
X40923844Y-43073327D02*
X40962548Y-43228146D01*
X40962548Y-43228146D02*
X40962548Y-43344260D01*
X40962548Y-43344260D02*
X40923844Y-43499079D01*
X40923844Y-43499079D02*
X40885139Y-43576489D01*
X40885139Y-43576489D02*
X40807729Y-43653899D01*
X40807729Y-43653899D02*
X40691615Y-43692603D01*
X40691615Y-43692603D02*
X40498091Y-43692603D01*
X49757142Y-36035836D02*
X49947618Y-36569170D01*
X49947618Y-36569170D02*
X50138095Y-36035836D01*
X50861904Y-36569170D02*
X50404761Y-36569170D01*
X50633333Y-36569170D02*
X50633333Y-35769170D01*
X50633333Y-35769170D02*
X50557142Y-35883455D01*
X50557142Y-35883455D02*
X50480952Y-35959646D01*
X50480952Y-35959646D02*
X50404761Y-35997741D01*
X51204762Y-36492979D02*
X51242857Y-36531075D01*
X51242857Y-36531075D02*
X51204762Y-36569170D01*
X51204762Y-36569170D02*
X51166666Y-36531075D01*
X51166666Y-36531075D02*
X51204762Y-36492979D01*
X51204762Y-36492979D02*
X51204762Y-36569170D01*
X52004761Y-36569170D02*
X51547618Y-36569170D01*
X51776190Y-36569170D02*
X51776190Y-35769170D01*
X51776190Y-35769170D02*
X51699999Y-35883455D01*
X51699999Y-35883455D02*
X51623809Y-35959646D01*
X51623809Y-35959646D02*
X51547618Y-35997741D01*
X52943120Y-21594170D02*
X53095501Y-21594170D01*
X53095501Y-21594170D02*
X53171691Y-21632265D01*
X53171691Y-21632265D02*
X53247882Y-21708455D01*
X53247882Y-21708455D02*
X53285977Y-21860836D01*
X53285977Y-21860836D02*
X53285977Y-22127503D01*
X53285977Y-22127503D02*
X53247882Y-22279884D01*
X53247882Y-22279884D02*
X53171691Y-22356075D01*
X53171691Y-22356075D02*
X53095501Y-22394170D01*
X53095501Y-22394170D02*
X52943120Y-22394170D01*
X52943120Y-22394170D02*
X52866929Y-22356075D01*
X52866929Y-22356075D02*
X52790739Y-22279884D01*
X52790739Y-22279884D02*
X52752643Y-22127503D01*
X52752643Y-22127503D02*
X52752643Y-21860836D01*
X52752643Y-21860836D02*
X52790739Y-21708455D01*
X52790739Y-21708455D02*
X52866929Y-21632265D01*
X52866929Y-21632265D02*
X52943120Y-21594170D01*
X53895500Y-21975122D02*
X53628834Y-21975122D01*
X53628834Y-22394170D02*
X53628834Y-21594170D01*
X53628834Y-21594170D02*
X54009786Y-21594170D01*
X54581214Y-21975122D02*
X54314548Y-21975122D01*
X54314548Y-22394170D02*
X54314548Y-21594170D01*
X54314548Y-21594170D02*
X54695500Y-21594170D01*
D11*
X42812294Y-32009523D02*
X43459913Y-32009523D01*
X43459913Y-32009523D02*
X43536103Y-31971428D01*
X43536103Y-31971428D02*
X43574199Y-31933333D01*
X43574199Y-31933333D02*
X43612294Y-31857142D01*
X43612294Y-31857142D02*
X43612294Y-31704761D01*
X43612294Y-31704761D02*
X43574199Y-31628571D01*
X43574199Y-31628571D02*
X43536103Y-31590476D01*
X43536103Y-31590476D02*
X43459913Y-31552380D01*
X43459913Y-31552380D02*
X42812294Y-31552380D01*
X43574199Y-31209524D02*
X43612294Y-31095238D01*
X43612294Y-31095238D02*
X43612294Y-30904762D01*
X43612294Y-30904762D02*
X43574199Y-30828571D01*
X43574199Y-30828571D02*
X43536103Y-30790476D01*
X43536103Y-30790476D02*
X43459913Y-30752381D01*
X43459913Y-30752381D02*
X43383722Y-30752381D01*
X43383722Y-30752381D02*
X43307532Y-30790476D01*
X43307532Y-30790476D02*
X43269437Y-30828571D01*
X43269437Y-30828571D02*
X43231341Y-30904762D01*
X43231341Y-30904762D02*
X43193246Y-31057143D01*
X43193246Y-31057143D02*
X43155151Y-31133333D01*
X43155151Y-31133333D02*
X43117056Y-31171428D01*
X43117056Y-31171428D02*
X43040865Y-31209524D01*
X43040865Y-31209524D02*
X42964675Y-31209524D01*
X42964675Y-31209524D02*
X42888484Y-31171428D01*
X42888484Y-31171428D02*
X42850389Y-31133333D01*
X42850389Y-31133333D02*
X42812294Y-31057143D01*
X42812294Y-31057143D02*
X42812294Y-30866666D01*
X42812294Y-30866666D02*
X42850389Y-30752381D01*
X43193246Y-30142857D02*
X43231341Y-30028571D01*
X43231341Y-30028571D02*
X43269437Y-29990476D01*
X43269437Y-29990476D02*
X43345627Y-29952380D01*
X43345627Y-29952380D02*
X43459913Y-29952380D01*
X43459913Y-29952380D02*
X43536103Y-29990476D01*
X43536103Y-29990476D02*
X43574199Y-30028571D01*
X43574199Y-30028571D02*
X43612294Y-30104761D01*
X43612294Y-30104761D02*
X43612294Y-30409523D01*
X43612294Y-30409523D02*
X42812294Y-30409523D01*
X42812294Y-30409523D02*
X42812294Y-30142857D01*
X42812294Y-30142857D02*
X42850389Y-30066666D01*
X42850389Y-30066666D02*
X42888484Y-30028571D01*
X42888484Y-30028571D02*
X42964675Y-29990476D01*
X42964675Y-29990476D02*
X43040865Y-29990476D01*
X43040865Y-29990476D02*
X43117056Y-30028571D01*
X43117056Y-30028571D02*
X43155151Y-30066666D01*
X43155151Y-30066666D02*
X43193246Y-30142857D01*
X43193246Y-30142857D02*
X43193246Y-30409523D01*
X41562295Y-30795830D02*
X41181342Y-31062497D01*
X41562295Y-31252973D02*
X40762295Y-31252973D01*
X40762295Y-31252973D02*
X40762295Y-30948211D01*
X40762295Y-30948211D02*
X40800390Y-30872021D01*
X40800390Y-30872021D02*
X40838485Y-30833926D01*
X40838485Y-30833926D02*
X40914676Y-30795830D01*
X40914676Y-30795830D02*
X41028961Y-30795830D01*
X41028961Y-30795830D02*
X41105152Y-30833926D01*
X41105152Y-30833926D02*
X41143247Y-30872021D01*
X41143247Y-30872021D02*
X41181342Y-30948211D01*
X41181342Y-30948211D02*
X41181342Y-31252973D01*
X40762295Y-30529164D02*
X41562295Y-29995830D01*
X40762295Y-29995830D02*
X41562295Y-30529164D01*
X38762294Y-31272023D02*
X38762294Y-30814880D01*
X39562294Y-31043452D02*
X38762294Y-31043452D01*
X38762294Y-30624404D02*
X39562294Y-30091070D01*
X38762294Y-30091070D02*
X39562294Y-30624404D01*
D12*
X60383578Y-29165000D02*
X59866422Y-29165000D01*
X60383578Y-30585000D02*
X59866422Y-30585000D01*
X42514999Y-27412499D02*
X42514999Y-29697499D01*
X42514999Y-29697499D02*
X43984999Y-29697499D01*
X43984999Y-29697499D02*
X43984999Y-27412499D01*
D13*
X52500000Y-26300000D02*
X52500000Y-22700000D01*
X61500000Y-22700000D02*
X52500000Y-22700000D01*
X61500000Y-26300000D02*
X61500000Y-22700000D01*
D12*
X63762742Y-27777500D02*
X64237258Y-27777500D01*
X63762742Y-28822500D02*
X64237258Y-28822500D01*
X40465000Y-27362498D02*
X40465000Y-29647498D01*
X40465000Y-29647498D02*
X41935000Y-29647498D01*
X41935000Y-29647498D02*
X41935000Y-27362498D01*
X56677500Y-33037258D02*
X56677500Y-32562742D01*
X57722500Y-33037258D02*
X57722500Y-32562742D01*
X39762742Y-34277500D02*
X40237258Y-34277500D01*
X39762742Y-35322500D02*
X40237258Y-35322500D01*
X40800000Y-36440000D02*
X39400000Y-36440000D01*
X40810000Y-38760000D02*
X39400000Y-38760000D01*
X41420000Y-39040000D02*
X40940000Y-39040000D01*
X41180000Y-38710000D01*
X41420000Y-39040000D01*
G36*
X41420000Y-39040000D02*
G01*
X40940000Y-39040000D01*
X41180000Y-38710000D01*
X41420000Y-39040000D01*
G37*
X48569419Y-30340000D02*
X48850581Y-30340000D01*
X48569419Y-31360000D02*
X48850581Y-31360000D01*
X38464999Y-27362500D02*
X38464999Y-29647500D01*
X38464999Y-29647500D02*
X39934999Y-29647500D01*
X39934999Y-29647500D02*
X39934999Y-27362500D01*
X40677501Y-24754724D02*
X40677501Y-24245276D01*
X41722501Y-24754724D02*
X41722501Y-24245276D01*
X48574419Y-32120000D02*
X48855581Y-32120000D01*
X48574419Y-33140000D02*
X48855581Y-33140000D01*
D14*
G36*
X64023471Y-22016196D02*
G01*
X64082955Y-22031100D01*
X64138334Y-22061267D01*
X64186773Y-22107392D01*
X64220913Y-22160744D01*
X64244143Y-22227619D01*
X64249965Y-22296331D01*
X64239677Y-22363254D01*
X64214577Y-22424762D01*
X64175962Y-22477230D01*
X64125129Y-22517030D01*
X64087357Y-22533988D01*
X64052872Y-22545598D01*
X64050146Y-23176046D01*
X64047419Y-23806493D01*
X64425977Y-23589132D01*
X64804535Y-23371770D01*
X64800317Y-23305514D01*
X64803097Y-23264616D01*
X64908367Y-23264616D01*
X64914116Y-23320872D01*
X64919101Y-23335964D01*
X64949069Y-23388103D01*
X64991211Y-23424738D01*
X65041977Y-23444513D01*
X65097820Y-23446072D01*
X65155191Y-23428058D01*
X65157265Y-23427015D01*
X65201843Y-23393845D01*
X65230934Y-23350531D01*
X65244615Y-23301249D01*
X65242960Y-23250179D01*
X65226045Y-23201497D01*
X65193946Y-23159381D01*
X65151927Y-23130442D01*
X65096875Y-23112208D01*
X65044300Y-23113954D01*
X64998456Y-23131026D01*
X64952159Y-23165502D01*
X64921589Y-23211429D01*
X64908367Y-23264616D01*
X64803097Y-23264616D01*
X64805308Y-23232081D01*
X64828531Y-23166276D01*
X64867753Y-23110399D01*
X64920739Y-23066750D01*
X64985254Y-23037629D01*
X65059064Y-23025336D01*
X65072746Y-23025086D01*
X65141326Y-23031650D01*
X65198270Y-23052569D01*
X65249526Y-23090448D01*
X65270514Y-23111743D01*
X65308972Y-23168194D01*
X65329866Y-23231624D01*
X65333766Y-23298124D01*
X65321240Y-23363788D01*
X65292855Y-23424705D01*
X65249180Y-23476967D01*
X65213481Y-23504058D01*
X65144331Y-23538582D01*
X65077396Y-23553358D01*
X65010730Y-23548228D01*
X64942384Y-23523033D01*
X64870410Y-23477614D01*
X64868271Y-23476010D01*
X64856287Y-23479020D01*
X64827184Y-23492311D01*
X64782005Y-23515326D01*
X64721789Y-23547508D01*
X64647580Y-23588299D01*
X64560419Y-23637143D01*
X64461346Y-23693481D01*
X64454704Y-23697283D01*
X64370729Y-23745369D01*
X64292612Y-23790097D01*
X64222223Y-23830396D01*
X64161431Y-23865196D01*
X64112104Y-23893427D01*
X64076112Y-23914021D01*
X64055325Y-23925906D01*
X64050825Y-23928468D01*
X64050258Y-23938915D01*
X64049467Y-23968348D01*
X64048491Y-24014610D01*
X64047368Y-24075539D01*
X64046136Y-24148976D01*
X64044834Y-24232760D01*
X64043501Y-24324733D01*
X64042653Y-24386608D01*
X64041199Y-24510917D01*
X64040453Y-24614638D01*
X64040420Y-24698321D01*
X64041107Y-24762516D01*
X64042520Y-24807773D01*
X64044664Y-24834640D01*
X64047546Y-24843669D01*
X64047601Y-24843672D01*
X64058690Y-24838565D01*
X64085854Y-24824085D01*
X64126882Y-24801488D01*
X64179565Y-24772031D01*
X64241696Y-24736972D01*
X64311064Y-24697568D01*
X64385462Y-24655077D01*
X64462680Y-24610755D01*
X64540509Y-24565862D01*
X64616740Y-24521653D01*
X64689165Y-24479386D01*
X64738841Y-24450197D01*
X64800914Y-24413599D01*
X64802687Y-24338296D01*
X64912230Y-24338296D01*
X64926634Y-24390758D01*
X64940647Y-24416147D01*
X64976282Y-24452547D01*
X65023484Y-24475849D01*
X65076384Y-24484920D01*
X65129112Y-24478630D01*
X65169564Y-24460260D01*
X65212418Y-24420740D01*
X65238464Y-24373128D01*
X65247948Y-24321488D01*
X65241115Y-24269885D01*
X65218211Y-24222384D01*
X65179481Y-24183050D01*
X65151818Y-24166513D01*
X65097898Y-24150277D01*
X65046547Y-24152357D01*
X65000163Y-24169917D01*
X64961142Y-24200125D01*
X64931882Y-24240146D01*
X64914779Y-24287148D01*
X64912230Y-24338296D01*
X64802687Y-24338296D01*
X64802760Y-24335193D01*
X64813569Y-24255473D01*
X64841748Y-24187485D01*
X64886966Y-24131777D01*
X64948890Y-24088898D01*
X64953605Y-24086508D01*
X64992293Y-24074156D01*
X65042546Y-24067348D01*
X65096879Y-24066146D01*
X65147804Y-24070617D01*
X65187837Y-24080823D01*
X65195563Y-24084439D01*
X65235354Y-24112462D01*
X65275157Y-24150944D01*
X65306639Y-24191494D01*
X65313308Y-24202984D01*
X65332456Y-24260609D01*
X65336170Y-24325490D01*
X65325409Y-24391520D01*
X65301130Y-24452591D01*
X65266685Y-24500178D01*
X65210278Y-24545098D01*
X65146050Y-24574320D01*
X65078008Y-24587580D01*
X65010154Y-24584611D01*
X64946493Y-24565149D01*
X64891029Y-24528929D01*
X64887091Y-24525322D01*
X64864774Y-24504372D01*
X64622728Y-24643811D01*
X64504529Y-24711912D01*
X64403381Y-24770213D01*
X64318001Y-24819459D01*
X64247105Y-24860393D01*
X64189413Y-24893759D01*
X64143640Y-24920303D01*
X64108505Y-24940768D01*
X64082725Y-24955899D01*
X64065018Y-24966441D01*
X64054100Y-24973137D01*
X64048690Y-24976732D01*
X64047715Y-24977531D01*
X64046477Y-24988974D01*
X64045371Y-25019288D01*
X64044397Y-25066323D01*
X64043556Y-25127934D01*
X64042847Y-25201974D01*
X64042270Y-25286294D01*
X64041826Y-25378748D01*
X64041515Y-25477189D01*
X64041336Y-25579468D01*
X64041290Y-25683441D01*
X64041377Y-25786958D01*
X64041597Y-25887872D01*
X64041950Y-25984038D01*
X64042436Y-26073307D01*
X64043055Y-26153532D01*
X64043808Y-26222565D01*
X64044693Y-26278261D01*
X64045712Y-26318471D01*
X64046865Y-26341049D01*
X64047669Y-26345254D01*
X64059490Y-26339820D01*
X64068483Y-26321929D01*
X64075213Y-26289197D01*
X64080248Y-26239237D01*
X64082837Y-26197210D01*
X64086001Y-26157058D01*
X64280224Y-26157058D01*
X64290226Y-26159824D01*
X64317942Y-26162209D01*
X64359940Y-26164051D01*
X64412785Y-26165190D01*
X64459991Y-26165487D01*
X64526603Y-26165245D01*
X64574848Y-26164358D01*
X64607507Y-26162579D01*
X64627358Y-26159663D01*
X64637182Y-26155365D01*
X64639758Y-26149625D01*
X64636767Y-26143169D01*
X64625755Y-26138692D01*
X64603665Y-26135859D01*
X64567438Y-26134336D01*
X64514016Y-26133788D01*
X64494802Y-26133763D01*
X64349846Y-26133763D01*
X64476297Y-26012691D01*
X64602747Y-25891620D01*
X64743484Y-25891084D01*
X64805695Y-25890094D01*
X64849230Y-25887711D01*
X64873226Y-25884007D01*
X64877685Y-25879975D01*
X64864825Y-25875525D01*
X64834959Y-25872053D01*
X64792222Y-25869915D01*
X64754573Y-25869400D01*
X64708217Y-25868609D01*
X64671256Y-25866461D01*
X64647783Y-25863298D01*
X64641521Y-25859981D01*
X64650073Y-25849794D01*
X64671336Y-25827905D01*
X64702565Y-25797047D01*
X64741012Y-25759953D01*
X64763719Y-25738374D01*
X64882393Y-25626186D01*
X64946130Y-25626186D01*
X64980043Y-25624587D01*
X65003048Y-25620407D01*
X65009866Y-25615612D01*
X65000415Y-25609305D01*
X64976502Y-25605522D01*
X64962281Y-25605037D01*
X64933890Y-25604273D01*
X64916870Y-25602341D01*
X64914696Y-25601195D01*
X64921756Y-25592721D01*
X64941017Y-25572400D01*
X64969596Y-25543213D01*
X65004609Y-25508139D01*
X65007223Y-25505544D01*
X65045288Y-25467319D01*
X65069552Y-25441466D01*
X65081580Y-25425828D01*
X65082935Y-25418243D01*
X65075180Y-25416552D01*
X65071414Y-25416860D01*
X65049065Y-25426623D01*
X65013262Y-25452492D01*
X64963955Y-25494505D01*
X64926014Y-25529206D01*
X64808950Y-25638430D01*
X64808950Y-25548336D01*
X64807787Y-25506650D01*
X64804684Y-25473508D01*
X64800225Y-25454237D01*
X64798376Y-25451707D01*
X64793188Y-25458360D01*
X64789675Y-25484948D01*
X64787958Y-25530313D01*
X64787801Y-25553545D01*
X64787801Y-25661919D01*
X64732285Y-25713268D01*
X64676769Y-25764616D01*
X64671482Y-25626609D01*
X64668085Y-25562226D01*
X64663886Y-25518679D01*
X64659266Y-25495686D01*
X64654605Y-25492968D01*
X64650285Y-25510243D01*
X64646685Y-25547231D01*
X64644186Y-25603651D01*
X64643367Y-25647335D01*
X64641689Y-25800666D01*
X64521760Y-25913839D01*
X64401831Y-26027012D01*
X64396544Y-25882973D01*
X64393455Y-25818252D01*
X64389562Y-25773055D01*
X64384664Y-25745765D01*
X64378557Y-25734767D01*
X64378039Y-25734551D01*
X64372851Y-25737611D01*
X64369123Y-25752293D01*
X64366667Y-25780908D01*
X64365297Y-25825766D01*
X64364826Y-25889176D01*
X64364821Y-25898097D01*
X64364821Y-26066024D01*
X64322523Y-26107327D01*
X64299293Y-26131404D01*
X64283929Y-26150001D01*
X64280224Y-26157058D01*
X64086001Y-26157058D01*
X64090038Y-26105836D01*
X64102322Y-26028087D01*
X64121433Y-25956706D01*
X64149114Y-25884434D01*
X64167840Y-25843320D01*
X64236096Y-25724129D01*
X64322407Y-25614826D01*
X64425540Y-25516618D01*
X64544263Y-25430713D01*
X64648248Y-25372350D01*
X64720506Y-25338946D01*
X64793348Y-25311171D01*
X64873403Y-25286789D01*
X64967297Y-25263562D01*
X64977375Y-25261290D01*
X65023719Y-25251810D01*
X65076679Y-25242393D01*
X65132126Y-25233598D01*
X65185928Y-25225987D01*
X65233955Y-25220121D01*
X65272077Y-25216559D01*
X65296163Y-25215864D01*
X65302303Y-25217180D01*
X65300209Y-25227956D01*
X65291089Y-25252699D01*
X65276870Y-25286215D01*
X65275725Y-25288776D01*
X65260984Y-25323640D01*
X65241449Y-25372718D01*
X65219347Y-25430276D01*
X65196903Y-25490578D01*
X65189886Y-25509867D01*
X65166735Y-25572034D01*
X65141968Y-25635390D01*
X65118200Y-25693436D01*
X65098046Y-25739672D01*
X65093740Y-25748914D01*
X65021224Y-25880566D01*
X64935795Y-25998803D01*
X64838957Y-26102511D01*
X64732215Y-26190575D01*
X64617074Y-26261883D01*
X64495039Y-26315321D01*
X64367613Y-26349773D01*
X64264363Y-26362821D01*
X64210287Y-26367445D01*
X64171402Y-26375043D01*
X64141750Y-26388339D01*
X64115374Y-26410058D01*
X64086317Y-26442925D01*
X64084577Y-26445044D01*
X64045353Y-26492912D01*
X64043825Y-26726593D01*
X64043217Y-26803012D01*
X64042359Y-26861043D01*
X64041007Y-26903447D01*
X64038916Y-26932988D01*
X64035842Y-26952425D01*
X64031539Y-26964520D01*
X64025762Y-26972035D01*
X64021771Y-26975287D01*
X63994196Y-26988889D01*
X63969895Y-26983529D01*
X63952414Y-26969150D01*
X63947341Y-26963426D01*
X63943151Y-26956051D01*
X63939760Y-26945095D01*
X63937083Y-26928627D01*
X63935036Y-26904715D01*
X63933536Y-26871429D01*
X63932496Y-26826838D01*
X63931834Y-26769011D01*
X63931464Y-26696017D01*
X63931303Y-26605924D01*
X63931265Y-26496802D01*
X63931265Y-26485035D01*
X63931265Y-26022069D01*
X63870462Y-25962864D01*
X63809658Y-25903659D01*
X63718699Y-25897730D01*
X63578360Y-25878246D01*
X63444324Y-25838711D01*
X63317372Y-25779490D01*
X63198288Y-25700948D01*
X63087854Y-25603451D01*
X63087747Y-25603343D01*
X63025913Y-25537154D01*
X62970607Y-25469223D01*
X62920264Y-25396720D01*
X62873314Y-25316813D01*
X62828190Y-25226672D01*
X62783325Y-25123466D01*
X62737151Y-25004364D01*
X62702194Y-24907119D01*
X62701723Y-24905811D01*
X62831511Y-24905811D01*
X62838758Y-24915121D01*
X62858619Y-24936015D01*
X62888265Y-24965623D01*
X62924866Y-25001078D01*
X62934612Y-25010366D01*
X62970941Y-25045819D01*
X62999315Y-25075347D01*
X63017433Y-25096405D01*
X63022996Y-25106446D01*
X63021856Y-25106928D01*
X62986619Y-25105711D01*
X62953094Y-25107600D01*
X62927542Y-25111902D01*
X62916220Y-25117926D01*
X62916111Y-25118609D01*
X62925873Y-25124063D01*
X62951952Y-25127821D01*
X62988592Y-25129184D01*
X63061073Y-25129184D01*
X63192152Y-25255953D01*
X63323230Y-25382723D01*
X63191461Y-25381612D01*
X63126952Y-25382001D01*
X63083203Y-25384448D01*
X63059923Y-25388976D01*
X63055754Y-25392311D01*
X63061745Y-25397473D01*
X63084593Y-25401085D01*
X63125637Y-25403258D01*
X63186217Y-25404102D01*
X63199201Y-25404121D01*
X63346585Y-25404121D01*
X63477664Y-25530508D01*
X63608742Y-25656896D01*
X63463967Y-25657403D01*
X63398372Y-25658346D01*
X63352165Y-25660841D01*
X63323622Y-25665182D01*
X63311021Y-25671663D01*
X63312637Y-25680578D01*
X63314706Y-25682871D01*
X63327230Y-25685464D01*
X63356214Y-25687405D01*
X63397552Y-25688712D01*
X63447135Y-25689403D01*
X63500857Y-25689498D01*
X63554611Y-25689014D01*
X63604289Y-25687969D01*
X63645784Y-25686383D01*
X63674990Y-25684272D01*
X63687798Y-25681656D01*
X63688051Y-25681205D01*
X63681054Y-25669744D01*
X63663016Y-25649068D01*
X63645753Y-25631474D01*
X63603455Y-25590171D01*
X63603455Y-25417837D01*
X63603199Y-25352788D01*
X63602257Y-25306051D01*
X63600369Y-25274793D01*
X63597273Y-25256181D01*
X63592709Y-25247383D01*
X63587593Y-25245504D01*
X63581310Y-25248415D01*
X63576894Y-25259132D01*
X63574040Y-25280631D01*
X63572443Y-25315889D01*
X63571795Y-25367880D01*
X63571731Y-25399774D01*
X63571731Y-25554044D01*
X63439550Y-25429930D01*
X63307368Y-25305816D01*
X63307368Y-25143478D01*
X63306699Y-25077849D01*
X63304768Y-25027797D01*
X63301689Y-24995075D01*
X63297576Y-24981435D01*
X63296794Y-24981140D01*
X63292389Y-24991377D01*
X63289066Y-25020774D01*
X63286962Y-25067366D01*
X63286220Y-25129186D01*
X63286219Y-25129925D01*
X63286219Y-25278710D01*
X63223018Y-25222452D01*
X63159817Y-25166195D01*
X63159571Y-25057806D01*
X63158476Y-25007978D01*
X63155645Y-24971735D01*
X63151376Y-24952083D01*
X63148751Y-24949417D01*
X63143696Y-24959405D01*
X63140087Y-24987080D01*
X63138301Y-25029005D01*
X63138176Y-25045391D01*
X63138176Y-25141366D01*
X63015919Y-25026886D01*
X62961608Y-24977589D01*
X62916743Y-24940095D01*
X62882957Y-24915694D01*
X62862589Y-24905811D01*
X62840846Y-24903091D01*
X62831517Y-24905681D01*
X62831511Y-24905811D01*
X62701723Y-24905811D01*
X62683534Y-24855347D01*
X62665151Y-24806914D01*
X62649289Y-24767586D01*
X62639067Y-24744833D01*
X62627309Y-24719290D01*
X62621923Y-24703000D01*
X62622133Y-24700569D01*
X62634520Y-24699591D01*
X62663645Y-24701578D01*
X62705391Y-24705972D01*
X62755644Y-24712218D01*
X62810286Y-24719757D01*
X62865201Y-24728034D01*
X62916275Y-24736490D01*
X62959390Y-24744570D01*
X62979204Y-24748882D01*
X63143299Y-24796287D01*
X63293140Y-24857717D01*
X63428133Y-24932738D01*
X63547682Y-25020915D01*
X63651193Y-25121812D01*
X63738069Y-25234995D01*
X63803579Y-25351249D01*
X63847826Y-25457841D01*
X63876290Y-25561801D01*
X63890959Y-25671477D01*
X63893716Y-25730033D01*
X63895668Y-25785769D01*
X63898838Y-25824141D01*
X63903784Y-25848921D01*
X63911062Y-25863885D01*
X63913961Y-25867203D01*
X63917469Y-25869600D01*
X63920461Y-25868262D01*
X63922970Y-25861725D01*
X63925028Y-25848525D01*
X63926668Y-25827197D01*
X63927922Y-25796278D01*
X63928823Y-25754303D01*
X63929404Y-25699808D01*
X63929696Y-25631330D01*
X63929733Y-25547404D01*
X63929547Y-25446566D01*
X63929171Y-25327351D01*
X63928700Y-25204066D01*
X63925978Y-24523468D01*
X63495384Y-24277628D01*
X63394176Y-24219945D01*
X63309721Y-24172080D01*
X63240478Y-24133237D01*
X63184905Y-24102620D01*
X63141464Y-24079434D01*
X63108612Y-24062883D01*
X63084811Y-24052170D01*
X63068518Y-24046499D01*
X63058195Y-24045076D01*
X63052300Y-24047103D01*
X63051254Y-24048156D01*
X63023498Y-24070312D01*
X62981967Y-24090418D01*
X62934024Y-24105723D01*
X62887032Y-24113481D01*
X62875040Y-24113926D01*
X62808853Y-24109045D01*
X62754775Y-24092253D01*
X62705822Y-24060737D01*
X62676240Y-24033824D01*
X62629485Y-23974652D01*
X62601499Y-23911344D01*
X62592559Y-23855492D01*
X62682750Y-23855492D01*
X62693492Y-23908259D01*
X62707350Y-23935343D01*
X62735446Y-23965323D01*
X62774584Y-23992328D01*
X62816690Y-24011717D01*
X62852664Y-24018859D01*
X62878324Y-24014121D01*
X62911830Y-24002138D01*
X62927089Y-23995066D01*
X62972893Y-23962095D01*
X63002508Y-23920241D01*
X63016810Y-23873110D01*
X63016677Y-23824310D01*
X63002986Y-23777446D01*
X62976613Y-23736127D01*
X62938437Y-23703958D01*
X62889334Y-23684547D01*
X62850575Y-23680474D01*
X62792895Y-23687767D01*
X62747346Y-23710922D01*
X62710211Y-23751778D01*
X62688361Y-23800932D01*
X62682750Y-23855492D01*
X62592559Y-23855492D01*
X62591149Y-23846686D01*
X62597303Y-23783464D01*
X62618827Y-23724464D01*
X62654589Y-23672471D01*
X62703456Y-23630272D01*
X62764296Y-23600652D01*
X62835975Y-23586398D01*
X62858519Y-23585536D01*
X62930006Y-23594946D01*
X62994701Y-23621827D01*
X63050031Y-23663349D01*
X63093422Y-23716681D01*
X63122299Y-23778992D01*
X63134089Y-23847453D01*
X63132361Y-23886678D01*
X63125893Y-23939550D01*
X63504787Y-24155573D01*
X63587344Y-24202681D01*
X63664849Y-24246980D01*
X63735222Y-24287276D01*
X63796384Y-24322375D01*
X63846255Y-24351082D01*
X63882754Y-24372204D01*
X63903802Y-24384546D01*
X63907473Y-24386785D01*
X63931265Y-24401974D01*
X63931167Y-23943410D01*
X63931069Y-23484846D01*
X63537266Y-23259920D01*
X63452401Y-23211440D01*
X63371962Y-23165472D01*
X63298088Y-23123241D01*
X63232914Y-23085966D01*
X63178577Y-23054872D01*
X63137215Y-23031180D01*
X63110964Y-23016112D01*
X63103965Y-23012073D01*
X63064466Y-22989151D01*
X63040373Y-23011785D01*
X62990569Y-23045082D01*
X62929464Y-23065173D01*
X62862729Y-23071468D01*
X62796038Y-23063379D01*
X62740058Y-23042965D01*
X62679898Y-23001902D01*
X62635305Y-22950627D01*
X62606060Y-22892239D01*
X62591944Y-22829834D01*
X62592336Y-22798665D01*
X62680232Y-22798665D01*
X62688434Y-22849938D01*
X62713615Y-22898992D01*
X62737989Y-22926405D01*
X62786186Y-22958571D01*
X62839549Y-22970345D01*
X62897223Y-22961609D01*
X62922408Y-22951849D01*
X62968337Y-22920316D01*
X62999860Y-22876554D01*
X63015412Y-22825137D01*
X63013429Y-22770639D01*
X62998662Y-22728853D01*
X62963719Y-22678850D01*
X62919307Y-22647557D01*
X62864227Y-22634218D01*
X62847377Y-22633597D01*
X62790627Y-22642573D01*
X62744208Y-22667127D01*
X62709449Y-22703700D01*
X62687681Y-22748733D01*
X62680232Y-22798665D01*
X62592336Y-22798665D01*
X62592740Y-22766512D01*
X62608229Y-22705370D01*
X62638192Y-22649506D01*
X62682412Y-22602017D01*
X62740670Y-22566002D01*
X62774559Y-22553396D01*
X62848312Y-22540463D01*
X62917701Y-22547806D01*
X62983925Y-22575719D01*
X63042197Y-22619016D01*
X63089211Y-22672941D01*
X63117045Y-22733922D01*
X63126585Y-22804243D01*
X63125617Y-22833648D01*
X63121241Y-22894148D01*
X63516673Y-23120762D01*
X63600272Y-23168627D01*
X63678290Y-23213211D01*
X63748796Y-23253418D01*
X63809859Y-23288149D01*
X63859550Y-23316308D01*
X63895936Y-23336799D01*
X63917089Y-23348523D01*
X63921685Y-23350902D01*
X63924027Y-23341526D01*
X63926114Y-23312775D01*
X63927904Y-23266419D01*
X63929353Y-23204230D01*
X63930420Y-23127981D01*
X63931061Y-23039443D01*
X63931240Y-22954357D01*
X63931215Y-22554288D01*
X63873524Y-22524144D01*
X63811148Y-22481319D01*
X63766603Y-22427220D01*
X63739728Y-22361573D01*
X63730362Y-22284105D01*
X63730349Y-22280897D01*
X63731420Y-22272093D01*
X63820751Y-22272093D01*
X63829541Y-22323403D01*
X63856118Y-22372040D01*
X63866091Y-22383740D01*
X63913523Y-22421776D01*
X63965825Y-22440178D01*
X64020611Y-22438364D01*
X64050568Y-22428696D01*
X64099032Y-22397748D01*
X64134423Y-22354352D01*
X64154373Y-22303093D01*
X64156517Y-22248553D01*
X64152882Y-22230502D01*
X64128590Y-22175003D01*
X64090148Y-22134892D01*
X64038981Y-22111250D01*
X63987307Y-22104910D01*
X63931288Y-22114101D01*
X63885014Y-22139114D01*
X63850095Y-22176249D01*
X63828138Y-22221809D01*
X63820751Y-22272093D01*
X63731420Y-22272093D01*
X63739167Y-22208406D01*
X63763730Y-22146316D01*
X63801202Y-22095322D01*
X63848748Y-22056118D01*
X63903532Y-22029400D01*
X63962718Y-22015861D01*
X64023471Y-22016196D01*
G37*
D12*
X56677500Y-39712742D02*
X56677500Y-40187258D01*
X57722500Y-39712742D02*
X57722500Y-40187258D01*
X46713748Y-27265000D02*
X47236252Y-27265000D01*
X46713748Y-28735000D02*
X47236252Y-28735000D01*
D13*
X46600000Y-24885000D02*
X46600000Y-24215000D01*
X47070000Y-23100000D02*
X47730000Y-23100000D01*
X47730000Y-26000000D02*
X47070000Y-26000000D01*
D15*
X49910000Y-25600000D02*
G75*
G02*
X49710000Y-25600000I-100000J0D01*
G01*
X49710000Y-25600000D02*
G75*
G02*
X49910000Y-25600000I100000J0D01*
G01*
X61362500Y-31882500D02*
X62612500Y-31882500D01*
X61362500Y-40822500D02*
X62612500Y-40822500D01*
X65332500Y-40822500D02*
X66612500Y-40822500D01*
X66612500Y-31882500D02*
X65332500Y-31882500D01*
D12*
X40237258Y-32177500D02*
X39762742Y-32177500D01*
X40237258Y-33222500D02*
X39762742Y-33222500D01*
X38677500Y-24754721D02*
X38677500Y-24245273D01*
X39722500Y-24754721D02*
X39722500Y-24245273D01*
X44552500Y-34240000D02*
X44552500Y-34715000D01*
X44552500Y-38460000D02*
X44552500Y-37985000D01*
X45027500Y-34240000D02*
X44552500Y-34240000D01*
X45027500Y-38460000D02*
X44552500Y-38460000D01*
X48297500Y-34240000D02*
X48772500Y-34240000D01*
X48297500Y-38460000D02*
X48472500Y-38460000D01*
X48772500Y-34240000D02*
X48772500Y-34715000D01*
X48772500Y-37985000D02*
X48772500Y-38220000D01*
X49012499Y-38790000D02*
X48532500Y-38790000D01*
X48772500Y-38460000D01*
X49012499Y-38790000D01*
G36*
X49012499Y-38790000D02*
G01*
X48532500Y-38790000D01*
X48772500Y-38460000D01*
X49012499Y-38790000D01*
G37*
X50265000Y-25061253D02*
X50265000Y-24538747D01*
X51735000Y-25061253D02*
X51735000Y-24538747D01*
X54840581Y-31590000D02*
X54559419Y-31590000D01*
X54840581Y-32610000D02*
X54559419Y-32610000D01*
X64237258Y-29577500D02*
X63762742Y-29577500D01*
X64237258Y-30622500D02*
X63762742Y-30622500D01*
X54500000Y-34813105D02*
X53700000Y-34813106D01*
X54500000Y-34813105D02*
X55300000Y-34813106D01*
X54500000Y-37933107D02*
X53700000Y-37933106D01*
X54500000Y-37933107D02*
X55300000Y-37933106D01*
X56040000Y-38213106D02*
X55560000Y-38213106D01*
X55800000Y-37883106D01*
X56040000Y-38213106D01*
G36*
X56040000Y-38213106D02*
G01*
X55560000Y-38213106D01*
X55800000Y-37883106D01*
X56040000Y-38213106D01*
G37*
X44677500Y-31979724D02*
X44677500Y-31470276D01*
X45722500Y-31979724D02*
X45722500Y-31470276D01*
X42677501Y-24754722D02*
X42677501Y-24245274D01*
X43722501Y-24754722D02*
X43722501Y-24245274D01*
%LPC*%
D16*
X64443500Y-31433500D02*
X64475500Y-31435500D01*
X64506500Y-31439500D01*
X64537500Y-31445500D01*
X64567500Y-31452500D01*
X64597500Y-31461500D01*
X64627500Y-31472500D01*
X64656500Y-31484500D01*
X64684500Y-31497500D01*
X64712500Y-31512500D01*
X64739500Y-31529500D01*
X64765500Y-31547500D01*
X64790500Y-31566500D01*
X64813500Y-31586500D01*
X64836500Y-31608500D01*
X64858500Y-31631500D01*
X64878500Y-31654500D01*
X64897500Y-31679500D01*
X64915500Y-31705500D01*
X64932500Y-31732500D01*
X64947500Y-31760500D01*
X64960500Y-31788500D01*
X64972500Y-31817500D01*
X64983500Y-31847500D01*
X64992500Y-31877500D01*
X64999500Y-31907500D01*
X65005500Y-31938500D01*
X65009500Y-31969500D01*
X65011500Y-32001500D01*
X65012500Y-32032500D01*
X65011500Y-32063500D01*
X65009500Y-32095500D01*
X65005500Y-32126500D01*
X64999500Y-32157500D01*
X64992500Y-32187500D01*
X64983500Y-32217500D01*
X64972500Y-32247500D01*
X64960500Y-32276500D01*
X64947500Y-32304500D01*
X64932500Y-32332500D01*
X64915500Y-32359500D01*
X64897500Y-32385500D01*
X64878500Y-32410500D01*
X64858500Y-32433500D01*
X64836500Y-32456500D01*
X64813500Y-32478500D01*
X64790500Y-32498500D01*
X64765500Y-32517500D01*
X64739500Y-32535500D01*
X64712500Y-32552500D01*
X64684500Y-32567500D01*
X64656500Y-32580500D01*
X64627500Y-32592500D01*
X64597500Y-32603500D01*
X64567500Y-32612500D01*
X64537500Y-32619500D01*
X64506500Y-32625500D01*
X64475500Y-32629500D01*
X64443500Y-32631500D01*
X64412500Y-32632500D01*
X64012500Y-32632500D01*
X63612500Y-32632500D01*
X63581500Y-32631500D01*
X63549500Y-32629500D01*
X63518500Y-32625500D01*
X63487500Y-32619500D01*
X63457500Y-32612500D01*
X63427500Y-32603500D01*
X63397500Y-32592500D01*
X63368500Y-32580500D01*
X63340500Y-32567500D01*
X63312500Y-32552500D01*
X63285500Y-32535500D01*
X63259500Y-32517500D01*
X63234500Y-32498500D01*
X63211500Y-32478500D01*
X63188500Y-32456500D01*
X63166500Y-32433500D01*
X63146500Y-32410500D01*
X63127500Y-32385500D01*
X63109500Y-32359500D01*
X63092500Y-32332500D01*
X63077500Y-32304500D01*
X63064500Y-32276500D01*
X63052500Y-32247500D01*
X63041500Y-32217500D01*
X63032500Y-32187500D01*
X63025500Y-32157500D01*
X63019500Y-32126500D01*
X63015500Y-32095500D01*
X63013500Y-32063500D01*
X63012500Y-32032500D01*
X63013500Y-32001500D01*
X63015500Y-31969500D01*
X63019500Y-31938500D01*
X63025500Y-31907500D01*
X63032500Y-31877500D01*
X63041500Y-31847500D01*
X63052500Y-31817500D01*
X63064500Y-31788500D01*
X63077500Y-31760500D01*
X63092500Y-31732500D01*
X63109500Y-31705500D01*
X63127500Y-31679500D01*
X63146500Y-31654500D01*
X63166500Y-31631500D01*
X63188500Y-31608500D01*
X63211500Y-31586500D01*
X63234500Y-31566500D01*
X63259500Y-31547500D01*
X63285500Y-31529500D01*
X63312500Y-31512500D01*
X63340500Y-31497500D01*
X63368500Y-31484500D01*
X63397500Y-31472500D01*
X63427500Y-31461500D01*
X63457500Y-31452500D01*
X63487500Y-31445500D01*
X63518500Y-31439500D01*
X63549500Y-31435500D01*
X63581500Y-31433500D01*
X63612500Y-31432500D01*
X64012500Y-31432500D01*
X64412500Y-31432500D01*
X64443500Y-31433500D01*
G36*
X64443500Y-31433500D02*
G01*
X64475500Y-31435500D01*
X64506500Y-31439500D01*
X64537500Y-31445500D01*
X64567500Y-31452500D01*
X64597500Y-31461500D01*
X64627500Y-31472500D01*
X64656500Y-31484500D01*
X64684500Y-31497500D01*
X64712500Y-31512500D01*
X64739500Y-31529500D01*
X64765500Y-31547500D01*
X64790500Y-31566500D01*
X64813500Y-31586500D01*
X64836500Y-31608500D01*
X64858500Y-31631500D01*
X64878500Y-31654500D01*
X64897500Y-31679500D01*
X64915500Y-31705500D01*
X64932500Y-31732500D01*
X64947500Y-31760500D01*
X64960500Y-31788500D01*
X64972500Y-31817500D01*
X64983500Y-31847500D01*
X64992500Y-31877500D01*
X64999500Y-31907500D01*
X65005500Y-31938500D01*
X65009500Y-31969500D01*
X65011500Y-32001500D01*
X65012500Y-32032500D01*
X65011500Y-32063500D01*
X65009500Y-32095500D01*
X65005500Y-32126500D01*
X64999500Y-32157500D01*
X64992500Y-32187500D01*
X64983500Y-32217500D01*
X64972500Y-32247500D01*
X64960500Y-32276500D01*
X64947500Y-32304500D01*
X64932500Y-32332500D01*
X64915500Y-32359500D01*
X64897500Y-32385500D01*
X64878500Y-32410500D01*
X64858500Y-32433500D01*
X64836500Y-32456500D01*
X64813500Y-32478500D01*
X64790500Y-32498500D01*
X64765500Y-32517500D01*
X64739500Y-32535500D01*
X64712500Y-32552500D01*
X64684500Y-32567500D01*
X64656500Y-32580500D01*
X64627500Y-32592500D01*
X64597500Y-32603500D01*
X64567500Y-32612500D01*
X64537500Y-32619500D01*
X64506500Y-32625500D01*
X64475500Y-32629500D01*
X64443500Y-32631500D01*
X64412500Y-32632500D01*
X64012500Y-32632500D01*
X63612500Y-32632500D01*
X63581500Y-32631500D01*
X63549500Y-32629500D01*
X63518500Y-32625500D01*
X63487500Y-32619500D01*
X63457500Y-32612500D01*
X63427500Y-32603500D01*
X63397500Y-32592500D01*
X63368500Y-32580500D01*
X63340500Y-32567500D01*
X63312500Y-32552500D01*
X63285500Y-32535500D01*
X63259500Y-32517500D01*
X63234500Y-32498500D01*
X63211500Y-32478500D01*
X63188500Y-32456500D01*
X63166500Y-32433500D01*
X63146500Y-32410500D01*
X63127500Y-32385500D01*
X63109500Y-32359500D01*
X63092500Y-32332500D01*
X63077500Y-32304500D01*
X63064500Y-32276500D01*
X63052500Y-32247500D01*
X63041500Y-32217500D01*
X63032500Y-32187500D01*
X63025500Y-32157500D01*
X63019500Y-32126500D01*
X63015500Y-32095500D01*
X63013500Y-32063500D01*
X63012500Y-32032500D01*
X63013500Y-32001500D01*
X63015500Y-31969500D01*
X63019500Y-31938500D01*
X63025500Y-31907500D01*
X63032500Y-31877500D01*
X63041500Y-31847500D01*
X63052500Y-31817500D01*
X63064500Y-31788500D01*
X63077500Y-31760500D01*
X63092500Y-31732500D01*
X63109500Y-31705500D01*
X63127500Y-31679500D01*
X63146500Y-31654500D01*
X63166500Y-31631500D01*
X63188500Y-31608500D01*
X63211500Y-31586500D01*
X63234500Y-31566500D01*
X63259500Y-31547500D01*
X63285500Y-31529500D01*
X63312500Y-31512500D01*
X63340500Y-31497500D01*
X63368500Y-31484500D01*
X63397500Y-31472500D01*
X63427500Y-31461500D01*
X63457500Y-31452500D01*
X63487500Y-31445500D01*
X63518500Y-31439500D01*
X63549500Y-31435500D01*
X63581500Y-31433500D01*
X63612500Y-31432500D01*
X64012500Y-31432500D01*
X64412500Y-31432500D01*
X64443500Y-31433500D01*
G37*
X64443500Y-40073500D02*
X64475500Y-40075500D01*
X64506500Y-40079500D01*
X64537500Y-40085500D01*
X64567500Y-40092500D01*
X64597500Y-40101500D01*
X64627500Y-40112500D01*
X64656500Y-40124500D01*
X64684500Y-40137500D01*
X64712500Y-40152500D01*
X64739500Y-40169500D01*
X64765500Y-40187500D01*
X64790500Y-40206500D01*
X64813500Y-40226500D01*
X64836500Y-40248500D01*
X64858500Y-40271500D01*
X64878500Y-40294500D01*
X64897500Y-40319500D01*
X64915500Y-40345500D01*
X64932500Y-40372500D01*
X64947500Y-40400500D01*
X64960500Y-40428500D01*
X64972500Y-40457500D01*
X64983500Y-40487500D01*
X64992500Y-40517500D01*
X64999500Y-40547500D01*
X65005500Y-40578500D01*
X65009500Y-40609500D01*
X65011500Y-40641500D01*
X65012500Y-40672500D01*
X65011500Y-40703500D01*
X65009500Y-40735500D01*
X65005500Y-40766500D01*
X64999500Y-40797500D01*
X64992500Y-40827500D01*
X64983500Y-40857500D01*
X64972500Y-40887500D01*
X64960500Y-40916500D01*
X64947500Y-40944500D01*
X64932500Y-40972500D01*
X64915500Y-40999500D01*
X64897500Y-41025500D01*
X64878500Y-41050500D01*
X64858500Y-41073500D01*
X64836500Y-41096500D01*
X64813500Y-41118500D01*
X64790500Y-41138500D01*
X64765500Y-41157500D01*
X64739500Y-41175500D01*
X64712500Y-41192500D01*
X64684500Y-41207500D01*
X64656500Y-41220500D01*
X64627500Y-41232500D01*
X64597500Y-41243500D01*
X64567500Y-41252500D01*
X64537500Y-41259500D01*
X64506500Y-41265500D01*
X64475500Y-41269500D01*
X64443500Y-41271500D01*
X64412500Y-41272500D01*
X64012500Y-41272500D01*
X63612500Y-41272500D01*
X63581500Y-41271500D01*
X63549500Y-41269500D01*
X63518500Y-41265500D01*
X63487500Y-41259500D01*
X63457500Y-41252500D01*
X63427500Y-41243500D01*
X63397500Y-41232500D01*
X63368500Y-41220500D01*
X63340500Y-41207500D01*
X63312500Y-41192500D01*
X63285500Y-41175500D01*
X63259500Y-41157500D01*
X63234500Y-41138500D01*
X63211500Y-41118500D01*
X63188500Y-41096500D01*
X63166500Y-41073500D01*
X63146500Y-41050500D01*
X63127500Y-41025500D01*
X63109500Y-40999500D01*
X63092500Y-40972500D01*
X63077500Y-40944500D01*
X63064500Y-40916500D01*
X63052500Y-40887500D01*
X63041500Y-40857500D01*
X63032500Y-40827500D01*
X63025500Y-40797500D01*
X63019500Y-40766500D01*
X63015500Y-40735500D01*
X63013500Y-40703500D01*
X63012500Y-40672500D01*
X63013500Y-40641500D01*
X63015500Y-40609500D01*
X63019500Y-40578500D01*
X63025500Y-40547500D01*
X63032500Y-40517500D01*
X63041500Y-40487500D01*
X63052500Y-40457500D01*
X63064500Y-40428500D01*
X63077500Y-40400500D01*
X63092500Y-40372500D01*
X63109500Y-40345500D01*
X63127500Y-40319500D01*
X63146500Y-40294500D01*
X63166500Y-40271500D01*
X63188500Y-40248500D01*
X63211500Y-40226500D01*
X63234500Y-40206500D01*
X63259500Y-40187500D01*
X63285500Y-40169500D01*
X63312500Y-40152500D01*
X63340500Y-40137500D01*
X63368500Y-40124500D01*
X63397500Y-40112500D01*
X63427500Y-40101500D01*
X63457500Y-40092500D01*
X63487500Y-40085500D01*
X63518500Y-40079500D01*
X63549500Y-40075500D01*
X63581500Y-40073500D01*
X63612500Y-40072500D01*
X64012500Y-40072500D01*
X64412500Y-40072500D01*
X64443500Y-40073500D01*
G36*
X64443500Y-40073500D02*
G01*
X64475500Y-40075500D01*
X64506500Y-40079500D01*
X64537500Y-40085500D01*
X64567500Y-40092500D01*
X64597500Y-40101500D01*
X64627500Y-40112500D01*
X64656500Y-40124500D01*
X64684500Y-40137500D01*
X64712500Y-40152500D01*
X64739500Y-40169500D01*
X64765500Y-40187500D01*
X64790500Y-40206500D01*
X64813500Y-40226500D01*
X64836500Y-40248500D01*
X64858500Y-40271500D01*
X64878500Y-40294500D01*
X64897500Y-40319500D01*
X64915500Y-40345500D01*
X64932500Y-40372500D01*
X64947500Y-40400500D01*
X64960500Y-40428500D01*
X64972500Y-40457500D01*
X64983500Y-40487500D01*
X64992500Y-40517500D01*
X64999500Y-40547500D01*
X65005500Y-40578500D01*
X65009500Y-40609500D01*
X65011500Y-40641500D01*
X65012500Y-40672500D01*
X65011500Y-40703500D01*
X65009500Y-40735500D01*
X65005500Y-40766500D01*
X64999500Y-40797500D01*
X64992500Y-40827500D01*
X64983500Y-40857500D01*
X64972500Y-40887500D01*
X64960500Y-40916500D01*
X64947500Y-40944500D01*
X64932500Y-40972500D01*
X64915500Y-40999500D01*
X64897500Y-41025500D01*
X64878500Y-41050500D01*
X64858500Y-41073500D01*
X64836500Y-41096500D01*
X64813500Y-41118500D01*
X64790500Y-41138500D01*
X64765500Y-41157500D01*
X64739500Y-41175500D01*
X64712500Y-41192500D01*
X64684500Y-41207500D01*
X64656500Y-41220500D01*
X64627500Y-41232500D01*
X64597500Y-41243500D01*
X64567500Y-41252500D01*
X64537500Y-41259500D01*
X64506500Y-41265500D01*
X64475500Y-41269500D01*
X64443500Y-41271500D01*
X64412500Y-41272500D01*
X64012500Y-41272500D01*
X63612500Y-41272500D01*
X63581500Y-41271500D01*
X63549500Y-41269500D01*
X63518500Y-41265500D01*
X63487500Y-41259500D01*
X63457500Y-41252500D01*
X63427500Y-41243500D01*
X63397500Y-41232500D01*
X63368500Y-41220500D01*
X63340500Y-41207500D01*
X63312500Y-41192500D01*
X63285500Y-41175500D01*
X63259500Y-41157500D01*
X63234500Y-41138500D01*
X63211500Y-41118500D01*
X63188500Y-41096500D01*
X63166500Y-41073500D01*
X63146500Y-41050500D01*
X63127500Y-41025500D01*
X63109500Y-40999500D01*
X63092500Y-40972500D01*
X63077500Y-40944500D01*
X63064500Y-40916500D01*
X63052500Y-40887500D01*
X63041500Y-40857500D01*
X63032500Y-40827500D01*
X63025500Y-40797500D01*
X63019500Y-40766500D01*
X63015500Y-40735500D01*
X63013500Y-40703500D01*
X63012500Y-40672500D01*
X63013500Y-40641500D01*
X63015500Y-40609500D01*
X63019500Y-40578500D01*
X63025500Y-40547500D01*
X63032500Y-40517500D01*
X63041500Y-40487500D01*
X63052500Y-40457500D01*
X63064500Y-40428500D01*
X63077500Y-40400500D01*
X63092500Y-40372500D01*
X63109500Y-40345500D01*
X63127500Y-40319500D01*
X63146500Y-40294500D01*
X63166500Y-40271500D01*
X63188500Y-40248500D01*
X63211500Y-40226500D01*
X63234500Y-40206500D01*
X63259500Y-40187500D01*
X63285500Y-40169500D01*
X63312500Y-40152500D01*
X63340500Y-40137500D01*
X63368500Y-40124500D01*
X63397500Y-40112500D01*
X63427500Y-40101500D01*
X63457500Y-40092500D01*
X63487500Y-40085500D01*
X63518500Y-40079500D01*
X63549500Y-40075500D01*
X63581500Y-40073500D01*
X63612500Y-40072500D01*
X64012500Y-40072500D01*
X64412500Y-40072500D01*
X64443500Y-40073500D01*
G37*
D17*
X61062501Y-29875000D03*
X59187499Y-29875000D03*
D18*
X43249999Y-29000000D03*
X43249999Y-27424998D03*
D19*
X60400000Y-24500000D03*
X53600000Y-24500000D03*
D20*
X59500000Y-27250000D03*
X57000000Y-27250000D03*
X54500000Y-27250000D03*
D21*
X63175000Y-28300000D03*
X64825000Y-28300000D03*
D18*
X41200000Y-28949999D03*
X41200000Y-27374997D03*
D22*
X57200000Y-33625000D03*
X57200000Y-31975000D03*
D21*
X39175000Y-34800000D03*
X40825000Y-34800000D03*
D23*
X41050000Y-38250000D03*
X41049999Y-37600000D03*
X41050000Y-36950000D03*
X39150000Y-36950000D03*
X39150001Y-37600000D03*
X39150000Y-38250000D03*
D24*
X47935000Y-30850000D03*
X49485000Y-30850000D03*
D18*
X39199999Y-28950001D03*
X39199999Y-27374999D03*
D25*
X41200001Y-25412500D03*
X41200001Y-23587500D03*
D24*
X47940000Y-32630000D03*
X49490000Y-32630000D03*
D26*
X57200000Y-39125000D03*
X57200000Y-40775000D03*
D27*
X46025000Y-28000000D03*
X47925000Y-28000000D03*
D28*
X48655000Y-25499999D03*
X48655000Y-24550000D03*
X48655000Y-23600001D03*
X46145000Y-23600001D03*
X46145000Y-25499999D03*
D29*
X64012500Y-40672500D03*
D30*
X60332500Y-39242500D03*
X60332500Y-33462500D03*
D29*
X64012500Y-32032500D03*
D31*
X59262500Y-39552500D03*
X59262500Y-38752500D03*
D32*
X59257500Y-37602500D03*
X59257500Y-36602500D03*
X59257500Y-36102500D03*
X59257500Y-35102500D03*
D31*
X59257500Y-33952500D03*
X59262500Y-33152500D03*
X59257500Y-33152500D03*
X59262500Y-33952500D03*
D32*
X59257500Y-34602500D03*
X59257500Y-35602500D03*
X59257500Y-37102500D03*
X59257500Y-38102500D03*
D31*
X59257500Y-38752500D03*
X59257500Y-39552500D03*
D33*
X59832500Y-40672500D03*
X59832500Y-32032500D03*
D34*
X40825000Y-32700000D03*
X39175000Y-32700000D03*
D25*
X39200000Y-25412497D03*
X39200000Y-23587497D03*
D35*
X48600000Y-37600000D03*
X48599999Y-37100000D03*
X48600000Y-36600000D03*
X48600000Y-36100000D03*
X48599999Y-35600000D03*
X48600000Y-35100000D03*
D36*
X47912500Y-34412500D03*
X47412500Y-34412501D03*
X46912500Y-34412500D03*
X46412500Y-34412500D03*
X45912500Y-34412501D03*
X45412500Y-34412500D03*
D35*
X44725000Y-35100000D03*
X44725001Y-35600000D03*
X44725000Y-36100000D03*
X44725000Y-36600000D03*
X44725001Y-37100000D03*
X44725000Y-37600000D03*
D36*
X45412500Y-38287500D03*
X45912500Y-38287499D03*
X46412500Y-38287500D03*
X46912500Y-38287500D03*
X47412500Y-38287499D03*
X47912500Y-38287500D03*
D37*
X46662500Y-36350000D03*
D38*
X51000000Y-25749999D03*
X51000000Y-23850001D03*
D39*
X55475000Y-32100000D03*
X53925000Y-32100000D03*
D34*
X64825000Y-30100000D03*
X63175000Y-30100000D03*
D40*
X55637500Y-37323105D03*
X55637500Y-36373106D03*
X55637500Y-35423107D03*
X53362500Y-35423107D03*
X53362500Y-36373106D03*
X53362500Y-37323105D03*
D25*
X45200000Y-32637500D03*
X45200000Y-30812500D03*
X43200001Y-25412498D03*
X43200001Y-23587498D03*
D41*
X39830000Y-41350000D03*
D42*
X42370000Y-41350000D03*
X44910000Y-41350000D03*
X47450000Y-41350000D03*
X49990000Y-41350000D03*
X52530000Y-41350000D03*
D43*
X47400000Y-35600000D03*
X45900000Y-35600000D03*
X46650000Y-35600000D03*
X46662500Y-36350000D03*
X47400000Y-36350000D03*
X45900000Y-36350000D03*
X47400000Y-37100000D03*
X46650000Y-37100000D03*
X45900000Y-37100000D03*
%LPD*%
M02*
