G04 #@! TF.GenerationSoftware,KiCad,Pcbnew,9.0.1*
G04 #@! TF.CreationDate,2025-04-15T14:17:19+12:00*
G04 #@! TF.ProjectId,ESPFlash,45535046-6c61-4736-982e-6b696361645f,rev?*
G04 #@! TF.SameCoordinates,Original*
G04 #@! TF.FileFunction,Profile,NP*
%FSLAX46Y46*%
G04 Gerber Fmt 4.6, Leading zero omitted, Abs format (unit mm)*
G04 Created by KiCad (PCBNEW 9.0.1) date 2025-04-15 14:17:19*
%MOMM*%
%LPD*%
G01*
G04 APERTURE LIST*
G04 #@! TA.AperFunction,Profile*
%ADD10C,0.038100*%
G04 #@! TD*
G04 #@! TA.AperFunction,Profile*
%ADD11C,0.010000*%
G04 #@! TD*
G04 APERTURE END LIST*
D10*
X66750000Y-42250000D02*
G75*
G02*
X64750000Y-44250000I-2000000J0D01*
G01*
X64750000Y-44250000D02*
X39000000Y-44250000D01*
X66750000Y-23250000D02*
X66750000Y-42250000D01*
X37000000Y-42250000D02*
X37000000Y-23250000D01*
X39000000Y-21250000D02*
X64750000Y-21250000D01*
X37000000Y-23250000D02*
G75*
G02*
X39000000Y-21250000I2000000J0D01*
G01*
X39000000Y-44250000D02*
G75*
G02*
X37000000Y-42250000I0J2000000D01*
G01*
X64750000Y-21250000D02*
G75*
G02*
X66750000Y-23250000I0J-2000000D01*
G01*
D11*
X63612500Y-31732500D02*
X64412500Y-31732500D01*
X63612500Y-40372500D02*
X64412500Y-40372500D01*
X64412500Y-32332500D02*
X63612500Y-32332500D01*
X64412500Y-40972500D02*
X63612500Y-40972500D01*
X63312500Y-32032500D02*
G75*
G02*
X63612500Y-31732500I300000J0D01*
G01*
X63312500Y-40672500D02*
G75*
G02*
X63612500Y-40372500I300000J0D01*
G01*
X63612500Y-32332500D02*
G75*
G02*
X63312500Y-32032500I0J300000D01*
G01*
X63612500Y-40972500D02*
G75*
G02*
X63312500Y-40672500I0J300000D01*
G01*
X64412500Y-31732500D02*
G75*
G02*
X64712500Y-32032500I0J-300000D01*
G01*
X64412500Y-40372500D02*
G75*
G02*
X64712500Y-40672500I0J-300000D01*
G01*
X64712500Y-32032500D02*
G75*
G02*
X64412500Y-32332500I-300000J0D01*
G01*
X64712500Y-40672500D02*
G75*
G02*
X64412500Y-40972500I-300000J0D01*
G01*
M02*
