G04 #@! TF.GenerationSoftware,KiCad,Pcbnew,9.0.1*
G04 #@! TF.CreationDate,2025-04-15T14:17:18+12:00*
G04 #@! TF.ProjectId,ESPFlash,45535046-6c61-4736-982e-6b696361645f,rev?*
G04 #@! TF.SameCoordinates,Original*
G04 #@! TF.FileFunction,Copper,L1,Top*
G04 #@! TF.FilePolarity,Positive*
%FSLAX46Y46*%
G04 Gerber Fmt 4.6, Leading zero omitted, Abs format (unit mm)*
G04 Created by KiCad (PCBNEW 9.0.1) date 2025-04-15 14:17:18*
%MOMM*%
%LPD*%
G01*
G04 APERTURE LIST*
G04 Aperture macros list*
%AMRoundRect*
0 Rectangle with rounded corners*
0 $1 Rounding radius*
0 $2 $3 $4 $5 $6 $7 $8 $9 X,Y pos of 4 corners*
0 Add a 4 corners polygon primitive as box body*
4,1,4,$2,$3,$4,$5,$6,$7,$8,$9,$2,$3,0*
0 Add four circle primitives for the rounded corners*
1,1,$1+$1,$2,$3*
1,1,$1+$1,$4,$5*
1,1,$1+$1,$6,$7*
1,1,$1+$1,$8,$9*
0 Add four rect primitives between the rounded corners*
20,1,$1+$1,$2,$3,$4,$5,0*
20,1,$1+$1,$4,$5,$6,$7,0*
20,1,$1+$1,$6,$7,$8,$9,0*
20,1,$1+$1,$8,$9,$2,$3,0*%
%AMFreePoly0*
4,1,229,0.026192,0.903996,0.026383,0.903985,0.052383,0.901985,0.052573,0.901967,0.078573,0.898967,0.078944,0.898910,0.104944,0.893910,0.105167,0.893862,0.130167,0.887862,0.130300,0.887828,0.156300,0.880828,0.156756,0.880682,0.180756,0.871682,0.180923,0.871615,0.204923,0.861615,0.205083,0.861545,0.229083,0.850545,0.229460,0.850353,0.252460,0.837353,0.252684,0.837218,
0.296684,0.809218,0.297030,0.808977,0.318030,0.792977,0.318238,0.792810,0.338238,0.775810,0.338439,0.775630,0.357439,0.757630,0.357630,0.757439,0.375630,0.738439,0.375810,0.738238,0.392810,0.718238,0.392977,0.718030,0.408977,0.697030,0.409218,0.696684,0.437218,0.652684,0.437353,0.652460,0.450353,0.629460,0.450545,0.629083,0.461545,0.605083,0.461615,0.604923,
0.471615,0.580923,0.471682,0.580756,0.480682,0.556756,0.480828,0.556300,0.487828,0.530300,0.487862,0.530167,0.493862,0.505167,0.493910,0.504944,0.498910,0.478944,0.498967,0.478573,0.501967,0.452573,0.501985,0.452383,0.503985,0.426383,0.503996,0.426192,0.504996,0.400192,0.505000,0.400000,0.505000,-0.400000,0.504996,-0.400192,0.503996,-0.426192,0.503985,-0.426383,
0.501985,-0.452383,0.501967,-0.452573,0.498967,-0.478573,0.498910,-0.478944,0.493910,-0.504944,0.493862,-0.505167,0.487862,-0.530167,0.487828,-0.530300,0.480828,-0.556300,0.480682,-0.556756,0.471682,-0.580756,0.471615,-0.580923,0.461615,-0.604923,0.461545,-0.605083,0.450545,-0.629083,0.450353,-0.629460,0.437353,-0.652460,0.437218,-0.652684,0.409218,-0.696684,0.408977,-0.697030,
0.392977,-0.718030,0.392810,-0.718238,0.375810,-0.738238,0.375630,-0.738439,0.357630,-0.757439,0.357439,-0.757630,0.338439,-0.775630,0.338238,-0.775810,0.318238,-0.792810,0.318030,-0.792977,0.297030,-0.808977,0.296684,-0.809218,0.252684,-0.837218,0.252460,-0.837353,0.229460,-0.850353,0.229083,-0.850545,0.205083,-0.861545,0.204923,-0.861615,0.180923,-0.871615,0.180756,-0.871682,
0.156756,-0.880682,0.156300,-0.880828,0.130300,-0.887828,0.130167,-0.887862,0.105167,-0.893862,0.104944,-0.893910,0.078944,-0.898910,0.078573,-0.898967,0.052573,-0.901967,0.052383,-0.901985,0.026383,-0.903985,0.026192,-0.903996,0.000192,-0.904996,-0.000192,-0.904996,-0.026192,-0.903996,-0.026383,-0.903985,-0.052383,-0.901985,-0.052573,-0.901967,-0.078573,-0.898967,-0.078944,-0.898910,
-0.104944,-0.893910,-0.105167,-0.893862,-0.130167,-0.887862,-0.130300,-0.887828,-0.156300,-0.880828,-0.156756,-0.880682,-0.180756,-0.871682,-0.180923,-0.871615,-0.204923,-0.861615,-0.205083,-0.861545,-0.229083,-0.850545,-0.229460,-0.850353,-0.252460,-0.837353,-0.252684,-0.837218,-0.296684,-0.809218,-0.297030,-0.808977,-0.318030,-0.792977,-0.318238,-0.792810,-0.338238,-0.775810,-0.338439,-0.775630,
-0.357439,-0.757630,-0.357630,-0.757439,-0.375630,-0.738439,-0.375810,-0.738238,-0.392810,-0.718238,-0.392977,-0.718030,-0.408977,-0.697030,-0.409218,-0.696684,-0.437218,-0.652684,-0.437353,-0.652460,-0.450353,-0.629460,-0.450545,-0.629083,-0.461545,-0.605083,-0.461615,-0.604923,-0.471615,-0.580923,-0.471682,-0.580756,-0.480682,-0.556756,-0.480828,-0.556300,-0.487828,-0.530300,-0.487862,-0.530167,
-0.493862,-0.505167,-0.493910,-0.504944,-0.498910,-0.478944,-0.498967,-0.478573,-0.501967,-0.452573,-0.501985,-0.452383,-0.503985,-0.426383,-0.503996,-0.426192,-0.504996,-0.400192,-0.505000,-0.400000,-0.505000,0.400000,-0.504996,0.400192,-0.503996,0.426192,-0.503985,0.426383,-0.501985,0.452383,-0.501967,0.452573,-0.498967,0.478573,-0.498910,0.478944,-0.493910,0.504944,-0.493862,0.505167,
-0.487862,0.530167,-0.487828,0.530300,-0.480828,0.556300,-0.480682,0.556756,-0.471682,0.580756,-0.471615,0.580923,-0.461615,0.604923,-0.461545,0.605083,-0.450545,0.629083,-0.450353,0.629460,-0.437353,0.652460,-0.437218,0.652684,-0.409218,0.696684,-0.408977,0.697030,-0.392977,0.718030,-0.392810,0.718238,-0.375810,0.738238,-0.375630,0.738439,-0.357630,0.757439,-0.357439,0.757630,
-0.338439,0.775630,-0.338238,0.775810,-0.318238,0.792810,-0.318030,0.792977,-0.297030,0.808977,-0.296684,0.809218,-0.252684,0.837218,-0.252460,0.837353,-0.229460,0.850353,-0.229083,0.850545,-0.205083,0.861545,-0.204923,0.861615,-0.180923,0.871615,-0.180756,0.871682,-0.156756,0.880682,-0.156300,0.880828,-0.130300,0.887828,-0.130167,0.887862,-0.105167,0.893862,-0.104944,0.893910,
-0.078944,0.898910,-0.078573,0.898967,-0.052573,0.901967,-0.052383,0.901985,-0.026383,0.903985,-0.026192,0.903996,-0.000192,0.904996,0.000192,0.904996,0.026192,0.903996,0.026192,0.903996,$1*%
G04 Aperture macros list end*
G04 #@! TA.AperFunction,SMDPad,CuDef*
%ADD10RoundRect,0.243750X0.243750X0.456250X-0.243750X0.456250X-0.243750X-0.456250X0.243750X-0.456250X0*%
G04 #@! TD*
G04 #@! TA.AperFunction,SMDPad,CuDef*
%ADD11RoundRect,0.218750X0.256250X-0.218750X0.256250X0.218750X-0.256250X0.218750X-0.256250X-0.218750X0*%
G04 #@! TD*
G04 #@! TA.AperFunction,SMDPad,CuDef*
%ADD12R,1.200000X2.500000*%
G04 #@! TD*
G04 #@! TA.AperFunction,SMDPad,CuDef*
%ADD13RoundRect,0.200000X-0.200000X-0.275000X0.200000X-0.275000X0.200000X0.275000X-0.200000X0.275000X0*%
G04 #@! TD*
G04 #@! TA.AperFunction,SMDPad,CuDef*
%ADD14RoundRect,0.200000X0.275000X-0.200000X0.275000X0.200000X-0.275000X0.200000X-0.275000X-0.200000X0*%
G04 #@! TD*
G04 #@! TA.AperFunction,SMDPad,CuDef*
%ADD15RoundRect,0.100000X0.225000X0.100000X-0.225000X0.100000X-0.225000X-0.100000X0.225000X-0.100000X0*%
G04 #@! TD*
G04 #@! TA.AperFunction,SMDPad,CuDef*
%ADD16RoundRect,0.225000X-0.225000X-0.250000X0.225000X-0.250000X0.225000X0.250000X-0.225000X0.250000X0*%
G04 #@! TD*
G04 #@! TA.AperFunction,SMDPad,CuDef*
%ADD17RoundRect,0.237500X0.237500X-0.250000X0.237500X0.250000X-0.237500X0.250000X-0.237500X-0.250000X0*%
G04 #@! TD*
G04 #@! TA.AperFunction,SMDPad,CuDef*
%ADD18RoundRect,0.200000X-0.275000X0.200000X-0.275000X-0.200000X0.275000X-0.200000X0.275000X0.200000X0*%
G04 #@! TD*
G04 #@! TA.AperFunction,SMDPad,CuDef*
%ADD19RoundRect,0.250000X-0.250000X-0.475000X0.250000X-0.475000X0.250000X0.475000X-0.250000X0.475000X0*%
G04 #@! TD*
G04 #@! TA.AperFunction,SMDPad,CuDef*
%ADD20RoundRect,0.147500X0.457500X0.147500X-0.457500X0.147500X-0.457500X-0.147500X0.457500X-0.147500X0*%
G04 #@! TD*
G04 #@! TA.AperFunction,ComponentPad*
%ADD21FreePoly0,90.000000*%
G04 #@! TD*
G04 #@! TA.AperFunction,SMDPad,CuDef*
%ADD22R,1.150000X0.600000*%
G04 #@! TD*
G04 #@! TA.AperFunction,SMDPad,CuDef*
%ADD23R,1.150000X0.300000*%
G04 #@! TD*
G04 #@! TA.AperFunction,ComponentPad*
%ADD24O,2.100000X1.000000*%
G04 #@! TD*
G04 #@! TA.AperFunction,SMDPad,CuDef*
%ADD25RoundRect,0.200000X0.200000X0.275000X-0.200000X0.275000X-0.200000X-0.275000X0.200000X-0.275000X0*%
G04 #@! TD*
G04 #@! TA.AperFunction,SMDPad,CuDef*
%ADD26RoundRect,0.062500X0.350000X0.062500X-0.350000X0.062500X-0.350000X-0.062500X0.350000X-0.062500X0*%
G04 #@! TD*
G04 #@! TA.AperFunction,SMDPad,CuDef*
%ADD27RoundRect,0.062500X0.062500X0.350000X-0.062500X0.350000X-0.062500X-0.350000X0.062500X-0.350000X0*%
G04 #@! TD*
G04 #@! TA.AperFunction,HeatsinkPad*
%ADD28R,2.600000X2.600000*%
G04 #@! TD*
G04 #@! TA.AperFunction,SMDPad,CuDef*
%ADD29RoundRect,0.250000X0.475000X-0.250000X0.475000X0.250000X-0.475000X0.250000X-0.475000X-0.250000X0*%
G04 #@! TD*
G04 #@! TA.AperFunction,SMDPad,CuDef*
%ADD30RoundRect,0.225000X0.225000X0.250000X-0.225000X0.250000X-0.225000X-0.250000X0.225000X-0.250000X0*%
G04 #@! TD*
G04 #@! TA.AperFunction,SMDPad,CuDef*
%ADD31RoundRect,0.150000X0.512500X0.150000X-0.512500X0.150000X-0.512500X-0.150000X0.512500X-0.150000X0*%
G04 #@! TD*
G04 #@! TA.AperFunction,ComponentPad*
%ADD32R,1.700000X1.700000*%
G04 #@! TD*
G04 #@! TA.AperFunction,ComponentPad*
%ADD33O,1.700000X1.700000*%
G04 #@! TD*
G04 #@! TA.AperFunction,ViaPad*
%ADD34C,0.600000*%
G04 #@! TD*
G04 #@! TA.AperFunction,Conductor*
%ADD35C,0.400000*%
G04 #@! TD*
G04 #@! TA.AperFunction,Conductor*
%ADD36C,0.150000*%
G04 #@! TD*
G04 #@! TA.AperFunction,Conductor*
%ADD37C,0.200000*%
G04 #@! TD*
G04 #@! TA.AperFunction,Conductor*
%ADD38C,0.300000*%
G04 #@! TD*
G04 APERTURE END LIST*
D10*
X61062501Y-29875000D03*
X59187499Y-29875000D03*
D11*
X43249999Y-29000000D03*
X43249999Y-27424998D03*
D12*
X59500000Y-27250000D03*
X57000000Y-27250000D03*
X54500000Y-27250000D03*
D13*
X63175000Y-28300000D03*
X64825000Y-28300000D03*
D11*
X41200000Y-28949999D03*
X41200000Y-27374997D03*
D14*
X57200000Y-33625000D03*
X57200000Y-31975000D03*
D13*
X39175000Y-34800000D03*
X40825000Y-34800000D03*
D15*
X41050000Y-38250000D03*
X41049999Y-37600000D03*
X41050000Y-36950000D03*
X39150000Y-36950000D03*
X39150001Y-37600000D03*
X39150000Y-38250000D03*
D16*
X47935000Y-30850000D03*
X49485000Y-30850000D03*
D11*
X39199999Y-28950001D03*
X39199999Y-27374999D03*
D17*
X41200001Y-25412500D03*
X41200001Y-23587500D03*
D16*
X47940000Y-32630000D03*
X49490000Y-32630000D03*
D18*
X57200000Y-39125000D03*
X57200000Y-40775000D03*
D19*
X46025000Y-28000000D03*
X47925000Y-28000000D03*
D20*
X48655000Y-25499999D03*
X48655000Y-24550000D03*
X48655000Y-23600001D03*
X46145000Y-23600001D03*
X46145000Y-25499999D03*
D21*
X64012500Y-40672500D03*
X64012500Y-32032500D03*
D22*
X59262500Y-39552500D03*
X59262500Y-38752500D03*
D23*
X59257500Y-37602500D03*
X59257500Y-36602500D03*
X59257500Y-36102500D03*
X59257500Y-35102500D03*
D22*
X59257500Y-33952500D03*
X59262500Y-33152500D03*
X59257500Y-33152500D03*
X59262500Y-33952500D03*
D23*
X59257500Y-34602500D03*
X59257500Y-35602500D03*
X59257500Y-37102500D03*
X59257500Y-38102500D03*
D22*
X59257500Y-38752500D03*
X59257500Y-39552500D03*
D24*
X59832500Y-40672500D03*
X59832500Y-32032500D03*
D25*
X40825000Y-32700000D03*
X39175000Y-32700000D03*
D17*
X39200000Y-25412497D03*
X39200000Y-23587497D03*
D26*
X48600000Y-37600000D03*
X48599999Y-37100000D03*
X48600000Y-36600000D03*
X48600000Y-36100000D03*
X48599999Y-35600000D03*
X48600000Y-35100000D03*
D27*
X47912500Y-34412500D03*
X47412500Y-34412501D03*
X46912500Y-34412500D03*
X46412500Y-34412500D03*
X45912500Y-34412501D03*
X45412500Y-34412500D03*
D26*
X44725000Y-35100000D03*
X44725001Y-35600000D03*
X44725000Y-36100000D03*
X44725000Y-36600000D03*
X44725001Y-37100000D03*
X44725000Y-37600000D03*
D27*
X45412500Y-38287500D03*
X45912500Y-38287499D03*
X46412500Y-38287500D03*
X46912500Y-38287500D03*
X47412500Y-38287499D03*
X47912500Y-38287500D03*
D28*
X46662500Y-36350000D03*
D29*
X51000000Y-25749999D03*
X51000000Y-23850001D03*
D30*
X55475000Y-32100000D03*
X53925000Y-32100000D03*
D25*
X64825000Y-30100000D03*
X63175000Y-30100000D03*
D31*
X55637500Y-37323105D03*
X55637500Y-36373106D03*
X55637500Y-35423107D03*
X53362500Y-35423107D03*
X53362500Y-36373106D03*
X53362500Y-37323105D03*
D17*
X45200000Y-32637500D03*
X45200000Y-30812500D03*
X43200001Y-25412498D03*
X43200001Y-23587498D03*
D32*
X39830000Y-41350000D03*
D33*
X42370000Y-41350000D03*
X44910000Y-41350000D03*
X47450000Y-41350000D03*
X49990000Y-41350000D03*
X52530000Y-41350000D03*
D34*
X50850000Y-22600000D03*
X47400000Y-35600000D03*
X45900000Y-35600000D03*
X51725000Y-22600000D03*
X49100000Y-28475000D03*
X50000000Y-22600000D03*
X46650000Y-35600000D03*
X46662500Y-36350000D03*
X47400000Y-36350000D03*
X45900000Y-36350000D03*
X49100000Y-27500000D03*
X61900000Y-28300000D03*
X47400000Y-37100000D03*
X57550000Y-36373106D03*
X49975000Y-27500000D03*
X46650000Y-37100000D03*
X45900000Y-37100000D03*
X44475000Y-29475000D03*
X49975000Y-28475000D03*
X54500000Y-36350000D03*
X54500000Y-31000000D03*
X46710000Y-29620000D03*
X55750000Y-28500000D03*
X39900000Y-39800000D03*
X48700000Y-39800000D03*
X42000000Y-37000000D03*
X50900000Y-39800000D03*
X47425000Y-39500000D03*
X41600000Y-39400000D03*
X60450000Y-37100000D03*
X60450000Y-36100000D03*
X46550000Y-32675000D03*
X64800000Y-31000000D03*
D35*
X43249999Y-29000000D02*
X44000000Y-29000000D01*
X59262500Y-33152500D02*
X59262500Y-32602500D01*
X54801000Y-32976000D02*
X53925000Y-32100000D01*
X56199000Y-32976000D02*
X54801000Y-32976000D01*
X49485000Y-28965000D02*
X49975000Y-28475000D01*
X59262500Y-39552500D02*
X58422500Y-39552500D01*
X57550000Y-36373106D02*
X55637500Y-36373106D01*
X59262500Y-32602500D02*
X59832500Y-32032500D01*
D36*
X63175000Y-28300000D02*
X61900000Y-28300000D01*
D35*
X44000000Y-29000000D02*
X44475000Y-29475000D01*
D36*
X49200000Y-32700000D02*
X49350000Y-32700000D01*
D37*
X49350000Y-32975000D02*
X49350000Y-32700000D01*
D35*
X59262500Y-39552500D02*
X59262500Y-40102500D01*
X57375000Y-31975000D02*
X58552500Y-33152500D01*
X59262500Y-40102500D02*
X59832500Y-40672500D01*
D37*
X48599999Y-37100000D02*
X47412500Y-37100000D01*
D35*
X49490000Y-32630000D02*
X49490000Y-30855000D01*
X49485000Y-30850000D02*
X49485000Y-28965000D01*
X57200000Y-31975000D02*
X56199000Y-32976000D01*
X58422500Y-39552500D02*
X57200000Y-40775000D01*
X57200000Y-31975000D02*
X57375000Y-31975000D01*
X58552500Y-33152500D02*
X59262500Y-33152500D01*
D37*
X49490000Y-30855000D02*
X49485000Y-30850000D01*
D35*
X55476894Y-36373106D02*
X55637500Y-36373106D01*
X55500000Y-30800000D02*
X55500000Y-29600000D01*
D36*
X47440000Y-23980000D02*
X47440000Y-25140000D01*
D35*
X55500000Y-30800000D02*
X54700000Y-30800000D01*
X56700000Y-29600000D02*
X59262499Y-29600000D01*
D36*
X47819999Y-23600001D02*
X47440000Y-23980000D01*
D35*
X55500000Y-32075000D02*
X55475000Y-32100000D01*
D36*
X47799999Y-25499999D02*
X48655000Y-25499999D01*
X47440000Y-25140000D02*
X47799999Y-25499999D01*
D35*
X53362500Y-36373106D02*
X54476894Y-36373106D01*
D36*
X61974000Y-28899000D02*
X60163499Y-28899000D01*
D35*
X51000000Y-28825000D02*
X51775000Y-29600000D01*
X51775000Y-29600000D02*
X56700000Y-29600000D01*
X54700000Y-30800000D02*
X54500000Y-31000000D01*
X51000000Y-25499999D02*
X51000000Y-28825000D01*
D36*
X48655000Y-23600001D02*
X47819999Y-23600001D01*
X63175000Y-30100000D02*
X61974000Y-28899000D01*
D35*
X55500000Y-30800000D02*
X55500000Y-32075000D01*
X55500000Y-29600000D02*
X56700000Y-29600000D01*
X54476894Y-36373106D02*
X54500000Y-36350000D01*
D36*
X60163499Y-28899000D02*
X59187499Y-29875000D01*
D35*
X44232499Y-23587498D02*
X46145000Y-25499999D01*
D36*
X47912500Y-32657500D02*
X47940000Y-32630000D01*
D35*
X39200000Y-23587497D02*
X43437498Y-23587497D01*
D36*
X47912500Y-34412500D02*
X47912500Y-32657500D01*
D35*
X45200000Y-29550000D02*
X45200000Y-28825000D01*
X47940000Y-32630000D02*
X47940000Y-30855000D01*
X46710000Y-29620000D02*
X46710000Y-28685000D01*
D36*
X47940000Y-30855000D02*
X47935000Y-30850000D01*
D35*
X46710000Y-28685000D02*
X46025000Y-28000000D01*
X55750000Y-28500000D02*
X57000000Y-27250000D01*
X45200000Y-30812500D02*
X45200000Y-29550000D01*
X43200001Y-23587498D02*
X44232499Y-23587498D01*
X45200000Y-28825000D02*
X46025000Y-28000000D01*
D36*
X48599999Y-35600000D02*
X48600000Y-35100000D01*
D35*
X46500000Y-30850000D02*
X45200000Y-29550000D01*
D36*
X47912500Y-34412500D02*
X48600000Y-35100000D01*
D35*
X47935000Y-30850000D02*
X46500000Y-30850000D01*
D37*
X41549661Y-32837159D02*
X41549661Y-32350339D01*
X44725001Y-35600000D02*
X44312502Y-35600000D01*
X39199999Y-30000677D02*
X39199999Y-28950001D01*
X41549661Y-32350339D02*
X39199999Y-30000677D01*
X44312502Y-35600000D02*
X41549661Y-32837159D01*
D36*
X39200000Y-25412497D02*
X39199999Y-27374999D01*
X41200001Y-25412500D02*
X41200000Y-27374997D01*
D37*
X44725000Y-35100000D02*
X41200000Y-31575000D01*
X41200000Y-31575000D02*
X41200000Y-28949999D01*
D38*
X59262500Y-38752500D02*
X59847500Y-38752500D01*
D37*
X61623799Y-33268630D02*
X61623799Y-33376201D01*
D35*
X61623799Y-33268630D02*
X61623799Y-30436298D01*
D37*
X61626000Y-33270831D02*
X61623799Y-33268630D01*
D38*
X59847500Y-38752500D02*
X61626000Y-36974000D01*
X59866493Y-33952500D02*
X59262500Y-33952500D01*
D35*
X61623799Y-30436298D02*
X61062501Y-29875000D01*
D38*
X61626000Y-36974000D02*
X61626000Y-33270831D01*
X60052492Y-34138499D02*
X59866493Y-33952500D01*
X60861501Y-34138499D02*
X60052492Y-34138499D01*
X61623799Y-33376201D02*
X60861501Y-34138499D01*
D36*
X39150000Y-39050000D02*
X39900000Y-39800000D01*
X39150000Y-38250000D02*
X39150000Y-39050000D01*
X48700000Y-39800000D02*
X49590000Y-40690000D01*
X39900000Y-39800000D02*
X39997104Y-39702896D01*
D37*
X46412500Y-39847499D02*
X44909999Y-41350000D01*
D36*
X46375000Y-38250000D02*
X46400000Y-38275000D01*
D37*
X46412500Y-38287500D02*
X46412500Y-39847499D01*
D36*
X52450000Y-41350000D02*
X52530000Y-41350000D01*
X41950000Y-36950000D02*
X42000000Y-37000000D01*
X41050000Y-36950000D02*
X41950000Y-36950000D01*
X50900000Y-39800000D02*
X52450000Y-41350000D01*
D37*
X45912500Y-38287499D02*
X45912500Y-38699998D01*
X45711498Y-38901000D02*
X45374000Y-38901000D01*
X45912500Y-38699998D02*
X45711498Y-38901000D01*
X45374000Y-38901000D02*
X42925000Y-41350000D01*
X42925000Y-41350000D02*
X42370000Y-41350000D01*
D36*
X39175000Y-32700000D02*
X38599000Y-33276000D01*
X38825002Y-37600000D02*
X39150001Y-37600000D01*
X38599000Y-33276000D02*
X38599000Y-37373998D01*
X38599000Y-37373998D02*
X38825002Y-37600000D01*
D37*
X45412500Y-38287500D02*
X41087500Y-38287500D01*
D36*
X40249000Y-37773999D02*
X40249000Y-33276000D01*
X41050000Y-38250000D02*
X40725001Y-38250000D01*
D37*
X41087500Y-38287500D02*
X41050000Y-38250000D01*
D36*
X40249000Y-33276000D02*
X40825000Y-32700000D01*
X40725001Y-38250000D02*
X40249000Y-37773999D01*
D37*
X47425000Y-39500000D02*
X47425000Y-39406807D01*
X47425000Y-39406807D02*
X47412500Y-39394307D01*
D36*
X39825000Y-37556905D02*
X39825000Y-37743094D01*
X39150000Y-36950000D02*
X39150000Y-34825000D01*
D37*
X47412500Y-39394307D02*
X47412500Y-38287499D01*
D36*
X39150000Y-34825000D02*
X39175000Y-34800000D01*
X39825000Y-37743094D02*
X41481906Y-39400000D01*
X39218095Y-36950000D02*
X39825000Y-37556905D01*
X39150000Y-36950000D02*
X39218095Y-36950000D01*
X40725000Y-37600000D02*
X41049999Y-37600000D01*
X40825000Y-34800000D02*
X40549000Y-35076000D01*
X40549000Y-35076000D02*
X40549000Y-37424000D01*
X40549000Y-37424000D02*
X40725000Y-37600000D01*
X43200001Y-25412498D02*
X43200001Y-27375000D01*
X43200001Y-27375000D02*
X43249999Y-27424998D01*
X58322500Y-37602500D02*
X59257500Y-37602500D01*
X57200000Y-39125000D02*
X57200000Y-38725000D01*
X57200000Y-38725000D02*
X58322500Y-37602500D01*
X57200000Y-33934840D02*
X57200000Y-33625000D01*
X59257500Y-34602500D02*
X57867660Y-34602500D01*
X57867660Y-34602500D02*
X57200000Y-33934840D01*
X45389022Y-32637500D02*
X46912500Y-34160978D01*
X46912500Y-34160978D02*
X46912500Y-34412500D01*
X45200000Y-32637500D02*
X45389022Y-32637500D01*
D37*
X57976895Y-37323105D02*
X55637500Y-37323105D01*
D36*
X60847500Y-36602500D02*
X59257500Y-36602500D01*
D37*
X55637500Y-37323105D02*
X55136500Y-37824105D01*
D36*
X61100000Y-35850000D02*
X61100000Y-36350000D01*
D37*
X49028297Y-36600000D02*
X48600000Y-36600000D01*
D36*
X59257500Y-35602500D02*
X60852500Y-35602500D01*
D37*
X58697500Y-36602500D02*
X57976895Y-37323105D01*
X59257500Y-36602500D02*
X58697500Y-36602500D01*
D36*
X60852500Y-35602500D02*
X61100000Y-35850000D01*
D37*
X50252402Y-37824105D02*
X49028297Y-36600000D01*
X55136500Y-37824105D02*
X50252402Y-37824105D01*
D36*
X61100000Y-36350000D02*
X60847500Y-36602500D01*
D37*
X55136500Y-34922107D02*
X50206190Y-34922107D01*
X57923107Y-35423107D02*
X56653687Y-35423107D01*
X59257500Y-36102500D02*
X58602500Y-36102500D01*
X59260000Y-36100000D02*
X59257500Y-36102500D01*
X56653687Y-35423107D02*
X55637500Y-35423107D01*
X60447500Y-37102500D02*
X60450000Y-37100000D01*
X55637500Y-35423107D02*
X55136500Y-34922107D01*
X49028297Y-36100000D02*
X48600000Y-36100000D01*
X50206190Y-34922107D02*
X49028297Y-36100000D01*
X59257500Y-37102500D02*
X60447500Y-37102500D01*
X58602500Y-36102500D02*
X57923107Y-35423107D01*
X60450000Y-36100000D02*
X59260000Y-36100000D01*
D36*
X46900000Y-38526522D02*
X46900000Y-38274999D01*
D35*
X64825000Y-30100000D02*
X64825000Y-30975000D01*
X64825000Y-30100000D02*
X64825000Y-28300000D01*
D38*
X47412500Y-33972500D02*
X47420000Y-33980000D01*
X46550000Y-32675000D02*
X47412500Y-33537500D01*
X47412500Y-33537500D02*
X47412500Y-33972500D01*
D35*
X65190000Y-27250000D02*
X59500000Y-27250000D01*
X65790000Y-41910000D02*
X65790000Y-27850000D01*
X64861043Y-42838957D02*
X65790000Y-41910000D01*
X47450000Y-41350000D02*
X48938957Y-42838957D01*
X65790000Y-27850000D02*
X65190000Y-27250000D01*
X48938957Y-42838957D02*
X64861043Y-42838957D01*
G04 #@! TA.AperFunction,Conductor*
G36*
X46923059Y-29100000D02*
G01*
X47002259Y-29550239D01*
X47000317Y-29558981D01*
X46993056Y-29563734D01*
X46712320Y-29620530D01*
X46707680Y-29620530D01*
X46426943Y-29563734D01*
X46419514Y-29558734D01*
X46417740Y-29550239D01*
X46496941Y-29100000D01*
X46510000Y-29025764D01*
X46910000Y-29025764D01*
X46923059Y-29100000D01*
G37*
G04 #@! TD.AperFunction*
G04 #@! TA.AperFunction,Conductor*
G36*
X51153869Y-39644431D02*
G01*
X51154910Y-39646376D01*
X51370184Y-40159912D01*
X51370222Y-40168866D01*
X51367667Y-40172708D01*
X51272708Y-40267667D01*
X51264435Y-40271094D01*
X51259912Y-40270184D01*
X50746376Y-40054910D01*
X50740071Y-40048551D01*
X50740109Y-40039597D01*
X50741147Y-40037656D01*
X50897985Y-39801263D01*
X50901263Y-39797985D01*
X51137653Y-39641149D01*
X51146440Y-39639431D01*
X51153869Y-39644431D01*
G37*
G04 #@! TD.AperFunction*
G04 #@! TA.AperFunction,Conductor*
G36*
X46805269Y-32518502D02*
G01*
X46805660Y-32519132D01*
X47071780Y-32981351D01*
X47072938Y-32990231D01*
X47069913Y-32995462D01*
X46870462Y-33194913D01*
X46862189Y-33198340D01*
X46856351Y-33196780D01*
X46394132Y-32930660D01*
X46388672Y-32923562D01*
X46389830Y-32914682D01*
X46390210Y-32914068D01*
X46547985Y-32676263D01*
X46551263Y-32672985D01*
X46789053Y-32515220D01*
X46797840Y-32513502D01*
X46805269Y-32518502D01*
G37*
G04 #@! TD.AperFunction*
G04 #@! TA.AperFunction,Conductor*
G36*
X47512748Y-38909191D02*
G01*
X47515390Y-38913252D01*
X47714245Y-39428541D01*
X47714027Y-39437493D01*
X47707542Y-39443668D01*
X47705650Y-39444221D01*
X47427320Y-39500530D01*
X47422680Y-39500530D01*
X47143795Y-39444109D01*
X47136366Y-39439109D01*
X47134647Y-39430321D01*
X47135035Y-39428882D01*
X47309806Y-38913705D01*
X47315709Y-38906972D01*
X47320886Y-38905764D01*
X47504475Y-38905764D01*
X47512748Y-38909191D01*
G37*
G04 #@! TD.AperFunction*
G04 #@! TA.AperFunction,Conductor*
G36*
X60387622Y-36810828D02*
G01*
X60393691Y-36817413D01*
X60394176Y-36819126D01*
X60450530Y-37097680D01*
X60450530Y-37102320D01*
X60394154Y-37380983D01*
X60389154Y-37388412D01*
X60380366Y-37390131D01*
X60378743Y-37389679D01*
X59863521Y-37205276D01*
X59856887Y-37199261D01*
X59855764Y-37194260D01*
X59855764Y-37010667D01*
X59859191Y-37002394D01*
X59863429Y-36999684D01*
X60378677Y-36810463D01*
X60387622Y-36810828D01*
G37*
G04 #@! TD.AperFunction*
G04 #@! TA.AperFunction,Conductor*
G36*
X39540087Y-39329815D02*
G01*
X39722668Y-39406353D01*
X40053623Y-39545089D01*
X40059928Y-39551448D01*
X40059890Y-39560402D01*
X40058849Y-39562347D01*
X39902015Y-39798734D01*
X39898734Y-39802015D01*
X39662347Y-39958849D01*
X39653559Y-39960568D01*
X39646130Y-39955568D01*
X39645089Y-39953623D01*
X39429815Y-39440087D01*
X39429777Y-39431133D01*
X39432330Y-39427293D01*
X39527292Y-39332331D01*
X39535564Y-39328905D01*
X39540087Y-39329815D01*
G37*
G04 #@! TD.AperFunction*
G04 #@! TA.AperFunction,Conductor*
G36*
X51359061Y-40148241D02*
G01*
X52685346Y-40513447D01*
X52692412Y-40518946D01*
X52693716Y-40526997D01*
X52532227Y-41343021D01*
X52527260Y-41350472D01*
X52523021Y-41352227D01*
X51706238Y-41513866D01*
X51697457Y-41512111D01*
X51692945Y-41506314D01*
X51248916Y-40259468D01*
X51249369Y-40250525D01*
X51251662Y-40247273D01*
X51347687Y-40151248D01*
X51355959Y-40147822D01*
X51359061Y-40148241D01*
G37*
G04 #@! TD.AperFunction*
G04 #@! TA.AperFunction,Conductor*
G36*
X55011051Y-30604416D02*
G01*
X55015919Y-30611932D01*
X55016112Y-30614050D01*
X55016112Y-30993976D01*
X55012685Y-31002249D01*
X55011210Y-31003499D01*
X54676465Y-31242449D01*
X54667740Y-31244466D01*
X54660144Y-31239724D01*
X54659957Y-31239453D01*
X54500318Y-31001961D01*
X54498547Y-30997683D01*
X54443743Y-30717374D01*
X54445519Y-30708597D01*
X54452981Y-30703646D01*
X54452997Y-30703642D01*
X55002294Y-30602543D01*
X55011051Y-30604416D01*
G37*
G04 #@! TD.AperFunction*
G04 #@! TA.AperFunction,Conductor*
G36*
X54438673Y-36059884D02*
G01*
X54443791Y-36067233D01*
X54443830Y-36067416D01*
X54500530Y-36347680D01*
X54500530Y-36352320D01*
X54443641Y-36633518D01*
X54438641Y-36640947D01*
X54430633Y-36642796D01*
X53915924Y-36574455D01*
X53908174Y-36569969D01*
X53905764Y-36562857D01*
X53905764Y-36182520D01*
X53909191Y-36174247D01*
X53914959Y-36171091D01*
X54429861Y-36058307D01*
X54438673Y-36059884D01*
G37*
G04 #@! TD.AperFunction*
G04 #@! TA.AperFunction,Conductor*
G36*
X52159191Y-22218907D02*
G01*
X52195155Y-22268407D01*
X52200000Y-22299000D01*
X52200000Y-24901000D01*
X52181093Y-24959191D01*
X52131593Y-24995155D01*
X52101000Y-25000000D01*
X47899000Y-25000000D01*
X47840809Y-24981093D01*
X47804845Y-24931593D01*
X47800000Y-24901000D01*
X47800000Y-24199000D01*
X47818907Y-24140809D01*
X47868407Y-24104845D01*
X47899000Y-24100000D01*
X49499999Y-24100000D01*
X49500000Y-24100000D01*
X49500000Y-22299000D01*
X49518907Y-22240809D01*
X49568407Y-22204845D01*
X49599000Y-22200000D01*
X52101000Y-22200000D01*
X52159191Y-22218907D01*
G37*
G04 #@! TD.AperFunction*
G04 #@! TA.AperFunction,Conductor*
G36*
X48995135Y-39985013D02*
G01*
X49237765Y-40093873D01*
X50449620Y-40637591D01*
X50455766Y-40644104D01*
X50455506Y-40653055D01*
X50454567Y-40654755D01*
X49993402Y-41346662D01*
X49985962Y-41351646D01*
X49985937Y-41351650D01*
X49167871Y-41513543D01*
X49159090Y-41511788D01*
X49154123Y-41504337D01*
X49154111Y-41504275D01*
X48882884Y-40093870D01*
X48884686Y-40085102D01*
X48886095Y-40083396D01*
X48982076Y-39987415D01*
X48990348Y-39983989D01*
X48995135Y-39985013D01*
G37*
G04 #@! TD.AperFunction*
G04 #@! TA.AperFunction,Conductor*
G36*
X57488981Y-36082788D02*
G01*
X57493734Y-36090049D01*
X57550530Y-36370786D01*
X57550530Y-36375426D01*
X57493734Y-36656162D01*
X57488734Y-36663591D01*
X57480239Y-36665365D01*
X56965437Y-36574807D01*
X56957883Y-36569999D01*
X56955764Y-36563284D01*
X56955764Y-36182927D01*
X56959191Y-36174654D01*
X56965435Y-36171404D01*
X57480239Y-36080846D01*
X57488981Y-36082788D01*
G37*
G04 #@! TD.AperFunction*
G04 #@! TA.AperFunction,Conductor*
G36*
X50558691Y-26918907D02*
G01*
X50594655Y-26968407D01*
X50599500Y-26999000D01*
X50599500Y-28880383D01*
X50600000Y-28888013D01*
X50600000Y-29001000D01*
X50581093Y-29059191D01*
X50531593Y-29095155D01*
X50501000Y-29100000D01*
X47399000Y-29100000D01*
X47340809Y-29081093D01*
X47304845Y-29031593D01*
X47300000Y-29001000D01*
X47300000Y-26999000D01*
X47318907Y-26940809D01*
X47368407Y-26904845D01*
X47399000Y-26900000D01*
X50500500Y-26900000D01*
X50558691Y-26918907D01*
G37*
G04 #@! TD.AperFunction*
G04 #@! TA.AperFunction,Conductor*
G36*
X48283004Y-41187796D02*
G01*
X48287319Y-41193078D01*
X48778998Y-42391905D01*
X48778967Y-42400860D01*
X48776446Y-42404618D01*
X48504618Y-42676446D01*
X48496345Y-42679873D01*
X48491905Y-42678998D01*
X47293078Y-42187319D01*
X47286724Y-42181009D01*
X47286041Y-42174226D01*
X47447772Y-41356977D01*
X47452739Y-41349527D01*
X47456977Y-41347772D01*
X48274225Y-41186041D01*
X48283004Y-41187796D01*
G37*
G04 #@! TD.AperFunction*
G04 #@! TA.AperFunction,Conductor*
G36*
X46031898Y-40091677D02*
G01*
X46034931Y-40093865D01*
X46166133Y-40225067D01*
X46169560Y-40233340D01*
X46168962Y-40237032D01*
X45746922Y-41506039D01*
X45741060Y-41512808D01*
X45733549Y-41513824D01*
X44916978Y-41352227D01*
X44909527Y-41347260D01*
X44907772Y-41343021D01*
X44746175Y-40526450D01*
X44747930Y-40517669D01*
X44753957Y-40513078D01*
X46022966Y-40091036D01*
X46031898Y-40091677D01*
G37*
G04 #@! TD.AperFunction*
G04 #@! TA.AperFunction,Conductor*
G36*
X43704173Y-40435884D02*
G01*
X43704648Y-40436333D01*
X43835843Y-40567528D01*
X43839270Y-40575801D01*
X43837543Y-40581918D01*
X43083101Y-41811878D01*
X43075854Y-41817139D01*
X43067011Y-41815734D01*
X43066653Y-41815506D01*
X42693310Y-41566668D01*
X42373337Y-41353402D01*
X42368354Y-41345964D01*
X42206785Y-40529532D01*
X42208540Y-40520753D01*
X42215991Y-40515786D01*
X42217599Y-40515582D01*
X43695722Y-40432924D01*
X43704173Y-40435884D01*
G37*
G04 #@! TD.AperFunction*
G04 #@! TA.AperFunction,Conductor*
G36*
X46943039Y-24519685D02*
G01*
X46988794Y-24572489D01*
X47000000Y-24624000D01*
X47000000Y-28976000D01*
X46980315Y-29043039D01*
X46927511Y-29088794D01*
X46876000Y-29100000D01*
X45124000Y-29100000D01*
X45056961Y-29080315D01*
X45011206Y-29027511D01*
X45000000Y-28976000D01*
X45000000Y-24624000D01*
X45019685Y-24556961D01*
X45072489Y-24511206D01*
X45124000Y-24500000D01*
X46876000Y-24500000D01*
X46943039Y-24519685D01*
G37*
G04 #@! TD.AperFunction*
G04 #@! TA.AperFunction,Conductor*
G36*
X47685390Y-25119685D02*
G01*
X47697817Y-25128810D01*
X47698796Y-25129628D01*
X47744544Y-25156961D01*
X47777307Y-25176536D01*
X47835498Y-25195443D01*
X47864268Y-25199999D01*
X47898996Y-25205500D01*
X52076000Y-25205500D01*
X52143039Y-25225185D01*
X52188794Y-25277989D01*
X52200000Y-25329500D01*
X52200000Y-26576000D01*
X52180315Y-26643039D01*
X52127511Y-26688794D01*
X52076000Y-26700000D01*
X50544989Y-26700000D01*
X50525593Y-26698474D01*
X50500500Y-26694500D01*
X47424000Y-26694500D01*
X47356961Y-26674815D01*
X47311206Y-26622011D01*
X47300000Y-26570500D01*
X47300000Y-25224000D01*
X47302550Y-25215314D01*
X47301262Y-25206353D01*
X47312240Y-25182312D01*
X47319685Y-25156961D01*
X47326525Y-25151033D01*
X47330287Y-25142797D01*
X47352521Y-25128507D01*
X47372489Y-25111206D01*
X47383003Y-25108918D01*
X47389065Y-25105023D01*
X47424000Y-25100000D01*
X47618351Y-25100000D01*
X47685390Y-25119685D01*
G37*
G04 #@! TD.AperFunction*
G04 #@! TA.AperFunction,Conductor*
G36*
X56035710Y-27945335D02*
G01*
X56304664Y-28214289D01*
X56308091Y-28222562D01*
X56305972Y-28229277D01*
X56005986Y-28657331D01*
X55998432Y-28662139D01*
X55989937Y-28660365D01*
X55751265Y-28502015D01*
X55747984Y-28498734D01*
X55589634Y-28260062D01*
X55587915Y-28251274D01*
X55592666Y-28244015D01*
X56020724Y-27944026D01*
X56029464Y-27942085D01*
X56035710Y-27945335D01*
G37*
G04 #@! TD.AperFunction*
G04 #@! TA.AperFunction,Conductor*
G36*
X60387655Y-35810792D02*
G01*
X60393696Y-35817402D01*
X60394165Y-35819070D01*
X60450530Y-36097680D01*
X60450530Y-36102320D01*
X60394165Y-36380929D01*
X60389165Y-36388358D01*
X60380377Y-36390077D01*
X60378709Y-36389608D01*
X59863476Y-36202796D01*
X59856866Y-36196755D01*
X59855764Y-36191797D01*
X59855764Y-36008202D01*
X59859191Y-35999929D01*
X59863473Y-35997204D01*
X60378711Y-35810391D01*
X60387655Y-35810792D01*
G37*
G04 #@! TD.AperFunction*
G04 #@! TA.AperFunction,Conductor*
G36*
X61971617Y-28011121D02*
G01*
X62486967Y-28222025D01*
X62493326Y-28228330D01*
X62494236Y-28232853D01*
X62494236Y-28367146D01*
X62490809Y-28375419D01*
X62486967Y-28377974D01*
X61971620Y-28588877D01*
X61962666Y-28588839D01*
X61956361Y-28582480D01*
X61955722Y-28580374D01*
X61899469Y-28302318D01*
X61899469Y-28297680D01*
X61955722Y-28019628D01*
X61960721Y-28012201D01*
X61969509Y-28010482D01*
X61971617Y-28011121D01*
G37*
G04 #@! TD.AperFunction*
G04 #@! TA.AperFunction,Conductor*
G36*
X44204275Y-28919026D02*
G01*
X44632331Y-29219013D01*
X44637139Y-29226567D01*
X44635365Y-29235062D01*
X44477015Y-29473734D01*
X44473734Y-29477015D01*
X44235062Y-29635365D01*
X44226274Y-29637084D01*
X44219013Y-29632331D01*
X43919026Y-29204275D01*
X43917085Y-29195535D01*
X43920333Y-29189291D01*
X44189290Y-28920334D01*
X44197562Y-28916908D01*
X44204275Y-28919026D01*
G37*
G04 #@! TD.AperFunction*
G04 #@! TA.AperFunction,Conductor*
G36*
X65022988Y-30409191D02*
G01*
X65026318Y-30415964D01*
X65092839Y-30930665D01*
X65090501Y-30939309D01*
X65083556Y-30943633D01*
X64802320Y-31000530D01*
X64797680Y-31000530D01*
X64517456Y-30943838D01*
X64510027Y-30938838D01*
X64508308Y-30930050D01*
X64508337Y-30929910D01*
X64622962Y-30414922D01*
X64628105Y-30407591D01*
X64634383Y-30405764D01*
X65014715Y-30405764D01*
X65022988Y-30409191D01*
G37*
G04 #@! TD.AperFunction*
G04 #@! TA.AperFunction,Conductor*
G36*
X41187458Y-38994638D02*
G01*
X41603572Y-39092800D01*
X41647565Y-39103178D01*
X41654831Y-39108412D01*
X41656360Y-39116816D01*
X41601647Y-39395911D01*
X41596693Y-39403370D01*
X41596634Y-39403409D01*
X41360841Y-39559848D01*
X41352053Y-39561567D01*
X41344624Y-39556567D01*
X41344293Y-39556040D01*
X41249917Y-39395911D01*
X41079647Y-39107012D01*
X41078400Y-39098146D01*
X41081453Y-39092802D01*
X41176503Y-38997752D01*
X41184775Y-38994326D01*
X41187458Y-38994638D01*
G37*
G04 #@! TD.AperFunction*
G04 #@! TA.AperFunction,Conductor*
G36*
X41937983Y-36710460D02*
G01*
X41943743Y-36717317D01*
X41944054Y-36718521D01*
X42000030Y-36995210D01*
X41998311Y-37003998D01*
X41998272Y-37004057D01*
X41839183Y-37240730D01*
X41831724Y-37245684D01*
X41824035Y-37244562D01*
X41412026Y-37028287D01*
X41406294Y-37021408D01*
X41405764Y-37017928D01*
X41405764Y-36883574D01*
X41409191Y-36875301D01*
X41413940Y-36872417D01*
X41929063Y-36709684D01*
X41937983Y-36710460D01*
G37*
G04 #@! TD.AperFunction*
G04 #@! TA.AperFunction,Conductor*
G36*
X48953869Y-39644431D02*
G01*
X48954910Y-39646376D01*
X49170184Y-40159912D01*
X49170222Y-40168866D01*
X49167667Y-40172708D01*
X49072708Y-40267667D01*
X49064435Y-40271094D01*
X49059912Y-40270184D01*
X48546376Y-40054910D01*
X48540071Y-40048551D01*
X48540109Y-40039597D01*
X48541147Y-40037656D01*
X48697985Y-39801263D01*
X48701263Y-39797985D01*
X48937653Y-39641149D01*
X48946440Y-39639431D01*
X48953869Y-39644431D01*
G37*
G04 #@! TD.AperFunction*
M02*
