%TF.GenerationSoftware,KiCad,Pcbnew,9.0.1*%
%TF.CreationDate,2025-04-15T14:17:50+12:00*%
%TF.ProjectId,ESPFlash,45535046-6c61-4736-982e-6b696361645f,rev?*%
%TF.SameCoordinates,Original*%
%TF.FileFunction,Drillmap*%
%TF.FilePolarity,Positive*%
%FSLAX45Y45*%
G04 Gerber Fmt 4.5, Leading zero omitted, Abs format (unit mm)*
G04 Created by KiCad (PCBNEW 9.0.1) date 2025-04-15 14:17:50*
%MOMM*%
%LPD*%
G01*
G04 APERTURE LIST*
%ADD10C,0.038100*%
%ADD11C,0.010000*%
%ADD12C,0.200000*%
%ADD13C,0.100000*%
G04 APERTURE END LIST*
D10*
X6675000Y-4225000D02*
G75*
G02*
X6475000Y-4425000I-200000J0D01*
G01*
X6475000Y-4425000D02*
X3900000Y-4425000D01*
X6675000Y-2325000D02*
X6675000Y-4225000D01*
X3700000Y-4225000D02*
X3700000Y-2325000D01*
X3900000Y-2125000D02*
X6475000Y-2125000D01*
X3700000Y-2325000D02*
G75*
G02*
X3900000Y-2125000I200000J0D01*
G01*
X3900000Y-4425000D02*
G75*
G02*
X3700000Y-4225000I0J200000D01*
G01*
X6475000Y-2125000D02*
G75*
G02*
X6675000Y-2325000I0J-200000D01*
G01*
D11*
X6361250Y-3173250D02*
X6441250Y-3173250D01*
X6361250Y-4037250D02*
X6441250Y-4037250D01*
X6441250Y-3233250D02*
X6361250Y-3233250D01*
X6441250Y-4097250D02*
X6361250Y-4097250D01*
X6331250Y-3203250D02*
G75*
G02*
X6361250Y-3173250I30000J0D01*
G01*
X6331250Y-4067250D02*
G75*
G02*
X6361250Y-4037250I30000J0D01*
G01*
X6361250Y-3233250D02*
G75*
G02*
X6331250Y-3203250I0J30000D01*
G01*
X6361250Y-4097250D02*
G75*
G02*
X6331250Y-4067250I0J30000D01*
G01*
X6441250Y-3173250D02*
G75*
G02*
X6471250Y-3203250I0J-30000D01*
G01*
X6441250Y-4037250D02*
G75*
G02*
X6471250Y-4067250I0J-30000D01*
G01*
X6471250Y-3203250D02*
G75*
G02*
X6441250Y-3233250I-30000J0D01*
G01*
X6471250Y-4067250D02*
G75*
G02*
X6441250Y-4097250I-30000J0D01*
G01*
D12*
D13*
X6000750Y-3313750D02*
X6065750Y-3378750D01*
X6065750Y-3313750D02*
X6000750Y-3378750D01*
X6000750Y-3891750D02*
X6065750Y-3956750D01*
X6065750Y-3891750D02*
X6000750Y-3956750D01*
X5410000Y-2450000D02*
G75*
G02*
X5310000Y-2450000I-50000J0D01*
G01*
X5310000Y-2450000D02*
G75*
G02*
X5410000Y-2450000I50000J0D01*
G01*
X6090000Y-2450000D02*
G75*
G02*
X5990000Y-2450000I-50000J0D01*
G01*
X5990000Y-2450000D02*
G75*
G02*
X6090000Y-2450000I50000J0D01*
G01*
D12*
X3958872Y-4738389D02*
X3958872Y-4538389D01*
X3958872Y-4538389D02*
X4006491Y-4538389D01*
X4006491Y-4538389D02*
X4035062Y-4547913D01*
X4035062Y-4547913D02*
X4054110Y-4566960D01*
X4054110Y-4566960D02*
X4063634Y-4586008D01*
X4063634Y-4586008D02*
X4073157Y-4624103D01*
X4073157Y-4624103D02*
X4073157Y-4652675D01*
X4073157Y-4652675D02*
X4063634Y-4690770D01*
X4063634Y-4690770D02*
X4054110Y-4709817D01*
X4054110Y-4709817D02*
X4035062Y-4728865D01*
X4035062Y-4728865D02*
X4006491Y-4738389D01*
X4006491Y-4738389D02*
X3958872Y-4738389D01*
X4158872Y-4738389D02*
X4158872Y-4605055D01*
X4158872Y-4643151D02*
X4168396Y-4624103D01*
X4168396Y-4624103D02*
X4177919Y-4614579D01*
X4177919Y-4614579D02*
X4196967Y-4605055D01*
X4196967Y-4605055D02*
X4216015Y-4605055D01*
X4282681Y-4738389D02*
X4282681Y-4605055D01*
X4282681Y-4538389D02*
X4273158Y-4547913D01*
X4273158Y-4547913D02*
X4282681Y-4557436D01*
X4282681Y-4557436D02*
X4292205Y-4547913D01*
X4292205Y-4547913D02*
X4282681Y-4538389D01*
X4282681Y-4538389D02*
X4282681Y-4557436D01*
X4406491Y-4738389D02*
X4387443Y-4728865D01*
X4387443Y-4728865D02*
X4377919Y-4709817D01*
X4377919Y-4709817D02*
X4377919Y-4538389D01*
X4511253Y-4738389D02*
X4492205Y-4728865D01*
X4492205Y-4728865D02*
X4482681Y-4709817D01*
X4482681Y-4709817D02*
X4482681Y-4538389D01*
X4739824Y-4738389D02*
X4739824Y-4538389D01*
X4739824Y-4538389D02*
X4806491Y-4681246D01*
X4806491Y-4681246D02*
X4873158Y-4538389D01*
X4873158Y-4538389D02*
X4873158Y-4738389D01*
X5054110Y-4738389D02*
X5054110Y-4633627D01*
X5054110Y-4633627D02*
X5044586Y-4614579D01*
X5044586Y-4614579D02*
X5025539Y-4605055D01*
X5025539Y-4605055D02*
X4987443Y-4605055D01*
X4987443Y-4605055D02*
X4968396Y-4614579D01*
X5054110Y-4728865D02*
X5035062Y-4738389D01*
X5035062Y-4738389D02*
X4987443Y-4738389D01*
X4987443Y-4738389D02*
X4968396Y-4728865D01*
X4968396Y-4728865D02*
X4958872Y-4709817D01*
X4958872Y-4709817D02*
X4958872Y-4690770D01*
X4958872Y-4690770D02*
X4968396Y-4671722D01*
X4968396Y-4671722D02*
X4987443Y-4662198D01*
X4987443Y-4662198D02*
X5035062Y-4662198D01*
X5035062Y-4662198D02*
X5054110Y-4652675D01*
X5149348Y-4605055D02*
X5149348Y-4805055D01*
X5149348Y-4614579D02*
X5168396Y-4605055D01*
X5168396Y-4605055D02*
X5206491Y-4605055D01*
X5206491Y-4605055D02*
X5225539Y-4614579D01*
X5225539Y-4614579D02*
X5235062Y-4624103D01*
X5235062Y-4624103D02*
X5244586Y-4643151D01*
X5244586Y-4643151D02*
X5244586Y-4700294D01*
X5244586Y-4700294D02*
X5235062Y-4719341D01*
X5235062Y-4719341D02*
X5225539Y-4728865D01*
X5225539Y-4728865D02*
X5206491Y-4738389D01*
X5206491Y-4738389D02*
X5168396Y-4738389D01*
X5168396Y-4738389D02*
X5149348Y-4728865D01*
X5330300Y-4719341D02*
X5339824Y-4728865D01*
X5339824Y-4728865D02*
X5330300Y-4738389D01*
X5330300Y-4738389D02*
X5320777Y-4728865D01*
X5320777Y-4728865D02*
X5330300Y-4719341D01*
X5330300Y-4719341D02*
X5330300Y-4738389D01*
X5330300Y-4614579D02*
X5339824Y-4624103D01*
X5339824Y-4624103D02*
X5330300Y-4633627D01*
X5330300Y-4633627D02*
X5320777Y-4624103D01*
X5320777Y-4624103D02*
X5330300Y-4614579D01*
X5330300Y-4614579D02*
X5330300Y-4633627D01*
D13*
X3633095Y-5034405D02*
X3698095Y-5099405D01*
X3698095Y-5034405D02*
X3633095Y-5099405D01*
D12*
X3996967Y-4958389D02*
X4016015Y-4958389D01*
X4016015Y-4958389D02*
X4035062Y-4967913D01*
X4035062Y-4967913D02*
X4044586Y-4977436D01*
X4044586Y-4977436D02*
X4054110Y-4996484D01*
X4054110Y-4996484D02*
X4063634Y-5034579D01*
X4063634Y-5034579D02*
X4063634Y-5082198D01*
X4063634Y-5082198D02*
X4054110Y-5120294D01*
X4054110Y-5120294D02*
X4044586Y-5139341D01*
X4044586Y-5139341D02*
X4035062Y-5148865D01*
X4035062Y-5148865D02*
X4016015Y-5158389D01*
X4016015Y-5158389D02*
X3996967Y-5158389D01*
X3996967Y-5158389D02*
X3977919Y-5148865D01*
X3977919Y-5148865D02*
X3968396Y-5139341D01*
X3968396Y-5139341D02*
X3958872Y-5120294D01*
X3958872Y-5120294D02*
X3949348Y-5082198D01*
X3949348Y-5082198D02*
X3949348Y-5034579D01*
X3949348Y-5034579D02*
X3958872Y-4996484D01*
X3958872Y-4996484D02*
X3968396Y-4977436D01*
X3968396Y-4977436D02*
X3977919Y-4967913D01*
X3977919Y-4967913D02*
X3996967Y-4958389D01*
X4149348Y-5139341D02*
X4158872Y-5148865D01*
X4158872Y-5148865D02*
X4149348Y-5158389D01*
X4149348Y-5158389D02*
X4139824Y-5148865D01*
X4139824Y-5148865D02*
X4149348Y-5139341D01*
X4149348Y-5139341D02*
X4149348Y-5158389D01*
X4330300Y-4958389D02*
X4292205Y-4958389D01*
X4292205Y-4958389D02*
X4273158Y-4967913D01*
X4273158Y-4967913D02*
X4263634Y-4977436D01*
X4263634Y-4977436D02*
X4244586Y-5006008D01*
X4244586Y-5006008D02*
X4235062Y-5044103D01*
X4235062Y-5044103D02*
X4235062Y-5120294D01*
X4235062Y-5120294D02*
X4244586Y-5139341D01*
X4244586Y-5139341D02*
X4254110Y-5148865D01*
X4254110Y-5148865D02*
X4273158Y-5158389D01*
X4273158Y-5158389D02*
X4311253Y-5158389D01*
X4311253Y-5158389D02*
X4330300Y-5148865D01*
X4330300Y-5148865D02*
X4339824Y-5139341D01*
X4339824Y-5139341D02*
X4349348Y-5120294D01*
X4349348Y-5120294D02*
X4349348Y-5072675D01*
X4349348Y-5072675D02*
X4339824Y-5053627D01*
X4339824Y-5053627D02*
X4330300Y-5044103D01*
X4330300Y-5044103D02*
X4311253Y-5034579D01*
X4311253Y-5034579D02*
X4273158Y-5034579D01*
X4273158Y-5034579D02*
X4254110Y-5044103D01*
X4254110Y-5044103D02*
X4244586Y-5053627D01*
X4244586Y-5053627D02*
X4235062Y-5072675D01*
X4530300Y-4958389D02*
X4435062Y-4958389D01*
X4435062Y-4958389D02*
X4425539Y-5053627D01*
X4425539Y-5053627D02*
X4435062Y-5044103D01*
X4435062Y-5044103D02*
X4454110Y-5034579D01*
X4454110Y-5034579D02*
X4501729Y-5034579D01*
X4501729Y-5034579D02*
X4520777Y-5044103D01*
X4520777Y-5044103D02*
X4530300Y-5053627D01*
X4530300Y-5053627D02*
X4539824Y-5072675D01*
X4539824Y-5072675D02*
X4539824Y-5120294D01*
X4539824Y-5120294D02*
X4530300Y-5139341D01*
X4530300Y-5139341D02*
X4520777Y-5148865D01*
X4520777Y-5148865D02*
X4501729Y-5158389D01*
X4501729Y-5158389D02*
X4454110Y-5158389D01*
X4454110Y-5158389D02*
X4435062Y-5148865D01*
X4435062Y-5148865D02*
X4425539Y-5139341D01*
X4663634Y-4958389D02*
X4682681Y-4958389D01*
X4682681Y-4958389D02*
X4701729Y-4967913D01*
X4701729Y-4967913D02*
X4711253Y-4977436D01*
X4711253Y-4977436D02*
X4720777Y-4996484D01*
X4720777Y-4996484D02*
X4730300Y-5034579D01*
X4730300Y-5034579D02*
X4730300Y-5082198D01*
X4730300Y-5082198D02*
X4720777Y-5120294D01*
X4720777Y-5120294D02*
X4711253Y-5139341D01*
X4711253Y-5139341D02*
X4701729Y-5148865D01*
X4701729Y-5148865D02*
X4682681Y-5158389D01*
X4682681Y-5158389D02*
X4663634Y-5158389D01*
X4663634Y-5158389D02*
X4644586Y-5148865D01*
X4644586Y-5148865D02*
X4635062Y-5139341D01*
X4635062Y-5139341D02*
X4625539Y-5120294D01*
X4625539Y-5120294D02*
X4616015Y-5082198D01*
X4616015Y-5082198D02*
X4616015Y-5034579D01*
X4616015Y-5034579D02*
X4625539Y-4996484D01*
X4625539Y-4996484D02*
X4635062Y-4977436D01*
X4635062Y-4977436D02*
X4644586Y-4967913D01*
X4644586Y-4967913D02*
X4663634Y-4958389D01*
X4816015Y-5158389D02*
X4816015Y-5025055D01*
X4816015Y-5044103D02*
X4825539Y-5034579D01*
X4825539Y-5034579D02*
X4844586Y-5025055D01*
X4844586Y-5025055D02*
X4873158Y-5025055D01*
X4873158Y-5025055D02*
X4892205Y-5034579D01*
X4892205Y-5034579D02*
X4901729Y-5053627D01*
X4901729Y-5053627D02*
X4901729Y-5158389D01*
X4901729Y-5053627D02*
X4911253Y-5034579D01*
X4911253Y-5034579D02*
X4930300Y-5025055D01*
X4930300Y-5025055D02*
X4958872Y-5025055D01*
X4958872Y-5025055D02*
X4977920Y-5034579D01*
X4977920Y-5034579D02*
X4987443Y-5053627D01*
X4987443Y-5053627D02*
X4987443Y-5158389D01*
X5082681Y-5158389D02*
X5082681Y-5025055D01*
X5082681Y-5044103D02*
X5092205Y-5034579D01*
X5092205Y-5034579D02*
X5111253Y-5025055D01*
X5111253Y-5025055D02*
X5139824Y-5025055D01*
X5139824Y-5025055D02*
X5158872Y-5034579D01*
X5158872Y-5034579D02*
X5168396Y-5053627D01*
X5168396Y-5053627D02*
X5168396Y-5158389D01*
X5168396Y-5053627D02*
X5177920Y-5034579D01*
X5177920Y-5034579D02*
X5196967Y-5025055D01*
X5196967Y-5025055D02*
X5225539Y-5025055D01*
X5225539Y-5025055D02*
X5244586Y-5034579D01*
X5244586Y-5034579D02*
X5254110Y-5053627D01*
X5254110Y-5053627D02*
X5254110Y-5158389D01*
X5644586Y-4948865D02*
X5473158Y-5206008D01*
X5901729Y-4958389D02*
X5920777Y-4958389D01*
X5920777Y-4958389D02*
X5939824Y-4967913D01*
X5939824Y-4967913D02*
X5949348Y-4977436D01*
X5949348Y-4977436D02*
X5958872Y-4996484D01*
X5958872Y-4996484D02*
X5968396Y-5034579D01*
X5968396Y-5034579D02*
X5968396Y-5082198D01*
X5968396Y-5082198D02*
X5958872Y-5120294D01*
X5958872Y-5120294D02*
X5949348Y-5139341D01*
X5949348Y-5139341D02*
X5939824Y-5148865D01*
X5939824Y-5148865D02*
X5920777Y-5158389D01*
X5920777Y-5158389D02*
X5901729Y-5158389D01*
X5901729Y-5158389D02*
X5882681Y-5148865D01*
X5882681Y-5148865D02*
X5873158Y-5139341D01*
X5873158Y-5139341D02*
X5863634Y-5120294D01*
X5863634Y-5120294D02*
X5854110Y-5082198D01*
X5854110Y-5082198D02*
X5854110Y-5034579D01*
X5854110Y-5034579D02*
X5863634Y-4996484D01*
X5863634Y-4996484D02*
X5873158Y-4977436D01*
X5873158Y-4977436D02*
X5882681Y-4967913D01*
X5882681Y-4967913D02*
X5901729Y-4958389D01*
X6054110Y-5139341D02*
X6063634Y-5148865D01*
X6063634Y-5148865D02*
X6054110Y-5158389D01*
X6054110Y-5158389D02*
X6044586Y-5148865D01*
X6044586Y-5148865D02*
X6054110Y-5139341D01*
X6054110Y-5139341D02*
X6054110Y-5158389D01*
X6187443Y-4958389D02*
X6206491Y-4958389D01*
X6206491Y-4958389D02*
X6225539Y-4967913D01*
X6225539Y-4967913D02*
X6235062Y-4977436D01*
X6235062Y-4977436D02*
X6244586Y-4996484D01*
X6244586Y-4996484D02*
X6254110Y-5034579D01*
X6254110Y-5034579D02*
X6254110Y-5082198D01*
X6254110Y-5082198D02*
X6244586Y-5120294D01*
X6244586Y-5120294D02*
X6235062Y-5139341D01*
X6235062Y-5139341D02*
X6225539Y-5148865D01*
X6225539Y-5148865D02*
X6206491Y-5158389D01*
X6206491Y-5158389D02*
X6187443Y-5158389D01*
X6187443Y-5158389D02*
X6168396Y-5148865D01*
X6168396Y-5148865D02*
X6158872Y-5139341D01*
X6158872Y-5139341D02*
X6149348Y-5120294D01*
X6149348Y-5120294D02*
X6139824Y-5082198D01*
X6139824Y-5082198D02*
X6139824Y-5034579D01*
X6139824Y-5034579D02*
X6149348Y-4996484D01*
X6149348Y-4996484D02*
X6158872Y-4977436D01*
X6158872Y-4977436D02*
X6168396Y-4967913D01*
X6168396Y-4967913D02*
X6187443Y-4958389D01*
X6330301Y-4977436D02*
X6339824Y-4967913D01*
X6339824Y-4967913D02*
X6358872Y-4958389D01*
X6358872Y-4958389D02*
X6406491Y-4958389D01*
X6406491Y-4958389D02*
X6425539Y-4967913D01*
X6425539Y-4967913D02*
X6435062Y-4977436D01*
X6435062Y-4977436D02*
X6444586Y-4996484D01*
X6444586Y-4996484D02*
X6444586Y-5015532D01*
X6444586Y-5015532D02*
X6435062Y-5044103D01*
X6435062Y-5044103D02*
X6320777Y-5158389D01*
X6320777Y-5158389D02*
X6444586Y-5158389D01*
X6625539Y-4958389D02*
X6530301Y-4958389D01*
X6530301Y-4958389D02*
X6520777Y-5053627D01*
X6520777Y-5053627D02*
X6530301Y-5044103D01*
X6530301Y-5044103D02*
X6549348Y-5034579D01*
X6549348Y-5034579D02*
X6596967Y-5034579D01*
X6596967Y-5034579D02*
X6616015Y-5044103D01*
X6616015Y-5044103D02*
X6625539Y-5053627D01*
X6625539Y-5053627D02*
X6635062Y-5072675D01*
X6635062Y-5072675D02*
X6635062Y-5120294D01*
X6635062Y-5120294D02*
X6625539Y-5139341D01*
X6625539Y-5139341D02*
X6616015Y-5148865D01*
X6616015Y-5148865D02*
X6596967Y-5158389D01*
X6596967Y-5158389D02*
X6549348Y-5158389D01*
X6549348Y-5158389D02*
X6530301Y-5148865D01*
X6530301Y-5148865D02*
X6520777Y-5139341D01*
X6806491Y-4958389D02*
X6768396Y-4958389D01*
X6768396Y-4958389D02*
X6749348Y-4967913D01*
X6749348Y-4967913D02*
X6739824Y-4977436D01*
X6739824Y-4977436D02*
X6720777Y-5006008D01*
X6720777Y-5006008D02*
X6711253Y-5044103D01*
X6711253Y-5044103D02*
X6711253Y-5120294D01*
X6711253Y-5120294D02*
X6720777Y-5139341D01*
X6720777Y-5139341D02*
X6730301Y-5148865D01*
X6730301Y-5148865D02*
X6749348Y-5158389D01*
X6749348Y-5158389D02*
X6787443Y-5158389D01*
X6787443Y-5158389D02*
X6806491Y-5148865D01*
X6806491Y-5148865D02*
X6816015Y-5139341D01*
X6816015Y-5139341D02*
X6825539Y-5120294D01*
X6825539Y-5120294D02*
X6825539Y-5072675D01*
X6825539Y-5072675D02*
X6816015Y-5053627D01*
X6816015Y-5053627D02*
X6806491Y-5044103D01*
X6806491Y-5044103D02*
X6787443Y-5034579D01*
X6787443Y-5034579D02*
X6749348Y-5034579D01*
X6749348Y-5034579D02*
X6730301Y-5044103D01*
X6730301Y-5044103D02*
X6720777Y-5053627D01*
X6720777Y-5053627D02*
X6711253Y-5072675D01*
X6901729Y-4958389D02*
X6901729Y-4996484D01*
X6977920Y-4958389D02*
X6977920Y-4996484D01*
X7273158Y-5234579D02*
X7263634Y-5225055D01*
X7263634Y-5225055D02*
X7244586Y-5196484D01*
X7244586Y-5196484D02*
X7235063Y-5177436D01*
X7235063Y-5177436D02*
X7225539Y-5148865D01*
X7225539Y-5148865D02*
X7216015Y-5101246D01*
X7216015Y-5101246D02*
X7216015Y-5063151D01*
X7216015Y-5063151D02*
X7225539Y-5015532D01*
X7225539Y-5015532D02*
X7235063Y-4986960D01*
X7235063Y-4986960D02*
X7244586Y-4967913D01*
X7244586Y-4967913D02*
X7263634Y-4939341D01*
X7263634Y-4939341D02*
X7273158Y-4929817D01*
X7339824Y-4977436D02*
X7349348Y-4967913D01*
X7349348Y-4967913D02*
X7368396Y-4958389D01*
X7368396Y-4958389D02*
X7416015Y-4958389D01*
X7416015Y-4958389D02*
X7435063Y-4967913D01*
X7435063Y-4967913D02*
X7444586Y-4977436D01*
X7444586Y-4977436D02*
X7454110Y-4996484D01*
X7454110Y-4996484D02*
X7454110Y-5015532D01*
X7454110Y-5015532D02*
X7444586Y-5044103D01*
X7444586Y-5044103D02*
X7330301Y-5158389D01*
X7330301Y-5158389D02*
X7454110Y-5158389D01*
X7692205Y-5158389D02*
X7692205Y-4958389D01*
X7777920Y-5158389D02*
X7777920Y-5053627D01*
X7777920Y-5053627D02*
X7768396Y-5034579D01*
X7768396Y-5034579D02*
X7749348Y-5025055D01*
X7749348Y-5025055D02*
X7720777Y-5025055D01*
X7720777Y-5025055D02*
X7701729Y-5034579D01*
X7701729Y-5034579D02*
X7692205Y-5044103D01*
X7901729Y-5158389D02*
X7882682Y-5148865D01*
X7882682Y-5148865D02*
X7873158Y-5139341D01*
X7873158Y-5139341D02*
X7863634Y-5120294D01*
X7863634Y-5120294D02*
X7863634Y-5063151D01*
X7863634Y-5063151D02*
X7873158Y-5044103D01*
X7873158Y-5044103D02*
X7882682Y-5034579D01*
X7882682Y-5034579D02*
X7901729Y-5025055D01*
X7901729Y-5025055D02*
X7930301Y-5025055D01*
X7930301Y-5025055D02*
X7949348Y-5034579D01*
X7949348Y-5034579D02*
X7958872Y-5044103D01*
X7958872Y-5044103D02*
X7968396Y-5063151D01*
X7968396Y-5063151D02*
X7968396Y-5120294D01*
X7968396Y-5120294D02*
X7958872Y-5139341D01*
X7958872Y-5139341D02*
X7949348Y-5148865D01*
X7949348Y-5148865D02*
X7930301Y-5158389D01*
X7930301Y-5158389D02*
X7901729Y-5158389D01*
X8082682Y-5158389D02*
X8063634Y-5148865D01*
X8063634Y-5148865D02*
X8054110Y-5129817D01*
X8054110Y-5129817D02*
X8054110Y-4958389D01*
X8235063Y-5148865D02*
X8216015Y-5158389D01*
X8216015Y-5158389D02*
X8177920Y-5158389D01*
X8177920Y-5158389D02*
X8158872Y-5148865D01*
X8158872Y-5148865D02*
X8149348Y-5129817D01*
X8149348Y-5129817D02*
X8149348Y-5053627D01*
X8149348Y-5053627D02*
X8158872Y-5034579D01*
X8158872Y-5034579D02*
X8177920Y-5025055D01*
X8177920Y-5025055D02*
X8216015Y-5025055D01*
X8216015Y-5025055D02*
X8235063Y-5034579D01*
X8235063Y-5034579D02*
X8244586Y-5053627D01*
X8244586Y-5053627D02*
X8244586Y-5072675D01*
X8244586Y-5072675D02*
X8149348Y-5091722D01*
X8320777Y-5148865D02*
X8339825Y-5158389D01*
X8339825Y-5158389D02*
X8377920Y-5158389D01*
X8377920Y-5158389D02*
X8396968Y-5148865D01*
X8396968Y-5148865D02*
X8406491Y-5129817D01*
X8406491Y-5129817D02*
X8406491Y-5120294D01*
X8406491Y-5120294D02*
X8396968Y-5101246D01*
X8396968Y-5101246D02*
X8377920Y-5091722D01*
X8377920Y-5091722D02*
X8349348Y-5091722D01*
X8349348Y-5091722D02*
X8330301Y-5082198D01*
X8330301Y-5082198D02*
X8320777Y-5063151D01*
X8320777Y-5063151D02*
X8320777Y-5053627D01*
X8320777Y-5053627D02*
X8330301Y-5034579D01*
X8330301Y-5034579D02*
X8349348Y-5025055D01*
X8349348Y-5025055D02*
X8377920Y-5025055D01*
X8377920Y-5025055D02*
X8396968Y-5034579D01*
X8473158Y-5234579D02*
X8482682Y-5225055D01*
X8482682Y-5225055D02*
X8501729Y-5196484D01*
X8501729Y-5196484D02*
X8511253Y-5177436D01*
X8511253Y-5177436D02*
X8520777Y-5148865D01*
X8520777Y-5148865D02*
X8530301Y-5101246D01*
X8530301Y-5101246D02*
X8530301Y-5063151D01*
X8530301Y-5063151D02*
X8520777Y-5015532D01*
X8520777Y-5015532D02*
X8511253Y-4986960D01*
X8511253Y-4986960D02*
X8501729Y-4967913D01*
X8501729Y-4967913D02*
X8482682Y-4939341D01*
X8482682Y-4939341D02*
X8473158Y-4929817D01*
X8835063Y-5234579D02*
X8825539Y-5225055D01*
X8825539Y-5225055D02*
X8806491Y-5196484D01*
X8806491Y-5196484D02*
X8796968Y-5177436D01*
X8796968Y-5177436D02*
X8787444Y-5148865D01*
X8787444Y-5148865D02*
X8777920Y-5101246D01*
X8777920Y-5101246D02*
X8777920Y-5063151D01*
X8777920Y-5063151D02*
X8787444Y-5015532D01*
X8787444Y-5015532D02*
X8796968Y-4986960D01*
X8796968Y-4986960D02*
X8806491Y-4967913D01*
X8806491Y-4967913D02*
X8825539Y-4939341D01*
X8825539Y-4939341D02*
X8835063Y-4929817D01*
X8911253Y-5025055D02*
X8911253Y-5158389D01*
X8911253Y-5044103D02*
X8920777Y-5034579D01*
X8920777Y-5034579D02*
X8939825Y-5025055D01*
X8939825Y-5025055D02*
X8968396Y-5025055D01*
X8968396Y-5025055D02*
X8987444Y-5034579D01*
X8987444Y-5034579D02*
X8996968Y-5053627D01*
X8996968Y-5053627D02*
X8996968Y-5158389D01*
X9120777Y-5158389D02*
X9101729Y-5148865D01*
X9101729Y-5148865D02*
X9092206Y-5139341D01*
X9092206Y-5139341D02*
X9082682Y-5120294D01*
X9082682Y-5120294D02*
X9082682Y-5063151D01*
X9082682Y-5063151D02*
X9092206Y-5044103D01*
X9092206Y-5044103D02*
X9101729Y-5034579D01*
X9101729Y-5034579D02*
X9120777Y-5025055D01*
X9120777Y-5025055D02*
X9149349Y-5025055D01*
X9149349Y-5025055D02*
X9168396Y-5034579D01*
X9168396Y-5034579D02*
X9177920Y-5044103D01*
X9177920Y-5044103D02*
X9187444Y-5063151D01*
X9187444Y-5063151D02*
X9187444Y-5120294D01*
X9187444Y-5120294D02*
X9177920Y-5139341D01*
X9177920Y-5139341D02*
X9168396Y-5148865D01*
X9168396Y-5148865D02*
X9149349Y-5158389D01*
X9149349Y-5158389D02*
X9120777Y-5158389D01*
X9244587Y-5025055D02*
X9320777Y-5025055D01*
X9273158Y-4958389D02*
X9273158Y-5129817D01*
X9273158Y-5129817D02*
X9282682Y-5148865D01*
X9282682Y-5148865D02*
X9301729Y-5158389D01*
X9301729Y-5158389D02*
X9320777Y-5158389D01*
X9539825Y-5025055D02*
X9539825Y-5225055D01*
X9539825Y-5034579D02*
X9558872Y-5025055D01*
X9558872Y-5025055D02*
X9596968Y-5025055D01*
X9596968Y-5025055D02*
X9616015Y-5034579D01*
X9616015Y-5034579D02*
X9625539Y-5044103D01*
X9625539Y-5044103D02*
X9635063Y-5063151D01*
X9635063Y-5063151D02*
X9635063Y-5120294D01*
X9635063Y-5120294D02*
X9625539Y-5139341D01*
X9625539Y-5139341D02*
X9616015Y-5148865D01*
X9616015Y-5148865D02*
X9596968Y-5158389D01*
X9596968Y-5158389D02*
X9558872Y-5158389D01*
X9558872Y-5158389D02*
X9539825Y-5148865D01*
X9749349Y-5158389D02*
X9730301Y-5148865D01*
X9730301Y-5148865D02*
X9720777Y-5129817D01*
X9720777Y-5129817D02*
X9720777Y-4958389D01*
X9911253Y-5158389D02*
X9911253Y-5053627D01*
X9911253Y-5053627D02*
X9901730Y-5034579D01*
X9901730Y-5034579D02*
X9882682Y-5025055D01*
X9882682Y-5025055D02*
X9844587Y-5025055D01*
X9844587Y-5025055D02*
X9825539Y-5034579D01*
X9911253Y-5148865D02*
X9892206Y-5158389D01*
X9892206Y-5158389D02*
X9844587Y-5158389D01*
X9844587Y-5158389D02*
X9825539Y-5148865D01*
X9825539Y-5148865D02*
X9816015Y-5129817D01*
X9816015Y-5129817D02*
X9816015Y-5110770D01*
X9816015Y-5110770D02*
X9825539Y-5091722D01*
X9825539Y-5091722D02*
X9844587Y-5082198D01*
X9844587Y-5082198D02*
X9892206Y-5082198D01*
X9892206Y-5082198D02*
X9911253Y-5072675D01*
X9977920Y-5025055D02*
X10054110Y-5025055D01*
X10006491Y-4958389D02*
X10006491Y-5129817D01*
X10006491Y-5129817D02*
X10016015Y-5148865D01*
X10016015Y-5148865D02*
X10035063Y-5158389D01*
X10035063Y-5158389D02*
X10054110Y-5158389D01*
X10196968Y-5148865D02*
X10177920Y-5158389D01*
X10177920Y-5158389D02*
X10139825Y-5158389D01*
X10139825Y-5158389D02*
X10120777Y-5148865D01*
X10120777Y-5148865D02*
X10111253Y-5129817D01*
X10111253Y-5129817D02*
X10111253Y-5053627D01*
X10111253Y-5053627D02*
X10120777Y-5034579D01*
X10120777Y-5034579D02*
X10139825Y-5025055D01*
X10139825Y-5025055D02*
X10177920Y-5025055D01*
X10177920Y-5025055D02*
X10196968Y-5034579D01*
X10196968Y-5034579D02*
X10206491Y-5053627D01*
X10206491Y-5053627D02*
X10206491Y-5072675D01*
X10206491Y-5072675D02*
X10111253Y-5091722D01*
X10377920Y-5158389D02*
X10377920Y-4958389D01*
X10377920Y-5148865D02*
X10358872Y-5158389D01*
X10358872Y-5158389D02*
X10320777Y-5158389D01*
X10320777Y-5158389D02*
X10301730Y-5148865D01*
X10301730Y-5148865D02*
X10292206Y-5139341D01*
X10292206Y-5139341D02*
X10282682Y-5120294D01*
X10282682Y-5120294D02*
X10282682Y-5063151D01*
X10282682Y-5063151D02*
X10292206Y-5044103D01*
X10292206Y-5044103D02*
X10301730Y-5034579D01*
X10301730Y-5034579D02*
X10320777Y-5025055D01*
X10320777Y-5025055D02*
X10358872Y-5025055D01*
X10358872Y-5025055D02*
X10377920Y-5034579D01*
X10454111Y-5234579D02*
X10463634Y-5225055D01*
X10463634Y-5225055D02*
X10482682Y-5196484D01*
X10482682Y-5196484D02*
X10492206Y-5177436D01*
X10492206Y-5177436D02*
X10501730Y-5148865D01*
X10501730Y-5148865D02*
X10511253Y-5101246D01*
X10511253Y-5101246D02*
X10511253Y-5063151D01*
X10511253Y-5063151D02*
X10501730Y-5015532D01*
X10501730Y-5015532D02*
X10492206Y-4986960D01*
X10492206Y-4986960D02*
X10482682Y-4967913D01*
X10482682Y-4967913D02*
X10463634Y-4939341D01*
X10463634Y-4939341D02*
X10454111Y-4929817D01*
D13*
X3698095Y-5330905D02*
G75*
G02*
X3598095Y-5330905I-50000J0D01*
G01*
X3598095Y-5330905D02*
G75*
G02*
X3698095Y-5330905I50000J0D01*
G01*
D12*
X4063634Y-5422389D02*
X3949348Y-5422389D01*
X4006491Y-5422389D02*
X4006491Y-5222389D01*
X4006491Y-5222389D02*
X3987443Y-5250960D01*
X3987443Y-5250960D02*
X3968396Y-5270008D01*
X3968396Y-5270008D02*
X3949348Y-5279532D01*
X4149348Y-5403341D02*
X4158872Y-5412865D01*
X4158872Y-5412865D02*
X4149348Y-5422389D01*
X4149348Y-5422389D02*
X4139824Y-5412865D01*
X4139824Y-5412865D02*
X4149348Y-5403341D01*
X4149348Y-5403341D02*
X4149348Y-5422389D01*
X4282681Y-5222389D02*
X4301729Y-5222389D01*
X4301729Y-5222389D02*
X4320777Y-5231913D01*
X4320777Y-5231913D02*
X4330300Y-5241436D01*
X4330300Y-5241436D02*
X4339824Y-5260484D01*
X4339824Y-5260484D02*
X4349348Y-5298579D01*
X4349348Y-5298579D02*
X4349348Y-5346198D01*
X4349348Y-5346198D02*
X4339824Y-5384294D01*
X4339824Y-5384294D02*
X4330300Y-5403341D01*
X4330300Y-5403341D02*
X4320777Y-5412865D01*
X4320777Y-5412865D02*
X4301729Y-5422389D01*
X4301729Y-5422389D02*
X4282681Y-5422389D01*
X4282681Y-5422389D02*
X4263634Y-5412865D01*
X4263634Y-5412865D02*
X4254110Y-5403341D01*
X4254110Y-5403341D02*
X4244586Y-5384294D01*
X4244586Y-5384294D02*
X4235062Y-5346198D01*
X4235062Y-5346198D02*
X4235062Y-5298579D01*
X4235062Y-5298579D02*
X4244586Y-5260484D01*
X4244586Y-5260484D02*
X4254110Y-5241436D01*
X4254110Y-5241436D02*
X4263634Y-5231913D01*
X4263634Y-5231913D02*
X4282681Y-5222389D01*
X4473158Y-5222389D02*
X4492205Y-5222389D01*
X4492205Y-5222389D02*
X4511253Y-5231913D01*
X4511253Y-5231913D02*
X4520777Y-5241436D01*
X4520777Y-5241436D02*
X4530300Y-5260484D01*
X4530300Y-5260484D02*
X4539824Y-5298579D01*
X4539824Y-5298579D02*
X4539824Y-5346198D01*
X4539824Y-5346198D02*
X4530300Y-5384294D01*
X4530300Y-5384294D02*
X4520777Y-5403341D01*
X4520777Y-5403341D02*
X4511253Y-5412865D01*
X4511253Y-5412865D02*
X4492205Y-5422389D01*
X4492205Y-5422389D02*
X4473158Y-5422389D01*
X4473158Y-5422389D02*
X4454110Y-5412865D01*
X4454110Y-5412865D02*
X4444586Y-5403341D01*
X4444586Y-5403341D02*
X4435062Y-5384294D01*
X4435062Y-5384294D02*
X4425539Y-5346198D01*
X4425539Y-5346198D02*
X4425539Y-5298579D01*
X4425539Y-5298579D02*
X4435062Y-5260484D01*
X4435062Y-5260484D02*
X4444586Y-5241436D01*
X4444586Y-5241436D02*
X4454110Y-5231913D01*
X4454110Y-5231913D02*
X4473158Y-5222389D01*
X4663634Y-5222389D02*
X4682681Y-5222389D01*
X4682681Y-5222389D02*
X4701729Y-5231913D01*
X4701729Y-5231913D02*
X4711253Y-5241436D01*
X4711253Y-5241436D02*
X4720777Y-5260484D01*
X4720777Y-5260484D02*
X4730300Y-5298579D01*
X4730300Y-5298579D02*
X4730300Y-5346198D01*
X4730300Y-5346198D02*
X4720777Y-5384294D01*
X4720777Y-5384294D02*
X4711253Y-5403341D01*
X4711253Y-5403341D02*
X4701729Y-5412865D01*
X4701729Y-5412865D02*
X4682681Y-5422389D01*
X4682681Y-5422389D02*
X4663634Y-5422389D01*
X4663634Y-5422389D02*
X4644586Y-5412865D01*
X4644586Y-5412865D02*
X4635062Y-5403341D01*
X4635062Y-5403341D02*
X4625539Y-5384294D01*
X4625539Y-5384294D02*
X4616015Y-5346198D01*
X4616015Y-5346198D02*
X4616015Y-5298579D01*
X4616015Y-5298579D02*
X4625539Y-5260484D01*
X4625539Y-5260484D02*
X4635062Y-5241436D01*
X4635062Y-5241436D02*
X4644586Y-5231913D01*
X4644586Y-5231913D02*
X4663634Y-5222389D01*
X4816015Y-5422389D02*
X4816015Y-5289055D01*
X4816015Y-5308103D02*
X4825539Y-5298579D01*
X4825539Y-5298579D02*
X4844586Y-5289055D01*
X4844586Y-5289055D02*
X4873158Y-5289055D01*
X4873158Y-5289055D02*
X4892205Y-5298579D01*
X4892205Y-5298579D02*
X4901729Y-5317627D01*
X4901729Y-5317627D02*
X4901729Y-5422389D01*
X4901729Y-5317627D02*
X4911253Y-5298579D01*
X4911253Y-5298579D02*
X4930300Y-5289055D01*
X4930300Y-5289055D02*
X4958872Y-5289055D01*
X4958872Y-5289055D02*
X4977920Y-5298579D01*
X4977920Y-5298579D02*
X4987443Y-5317627D01*
X4987443Y-5317627D02*
X4987443Y-5422389D01*
X5082681Y-5422389D02*
X5082681Y-5289055D01*
X5082681Y-5308103D02*
X5092205Y-5298579D01*
X5092205Y-5298579D02*
X5111253Y-5289055D01*
X5111253Y-5289055D02*
X5139824Y-5289055D01*
X5139824Y-5289055D02*
X5158872Y-5298579D01*
X5158872Y-5298579D02*
X5168396Y-5317627D01*
X5168396Y-5317627D02*
X5168396Y-5422389D01*
X5168396Y-5317627D02*
X5177920Y-5298579D01*
X5177920Y-5298579D02*
X5196967Y-5289055D01*
X5196967Y-5289055D02*
X5225539Y-5289055D01*
X5225539Y-5289055D02*
X5244586Y-5298579D01*
X5244586Y-5298579D02*
X5254110Y-5317627D01*
X5254110Y-5317627D02*
X5254110Y-5422389D01*
X5644586Y-5212865D02*
X5473158Y-5470008D01*
X5901729Y-5222389D02*
X5920777Y-5222389D01*
X5920777Y-5222389D02*
X5939824Y-5231913D01*
X5939824Y-5231913D02*
X5949348Y-5241436D01*
X5949348Y-5241436D02*
X5958872Y-5260484D01*
X5958872Y-5260484D02*
X5968396Y-5298579D01*
X5968396Y-5298579D02*
X5968396Y-5346198D01*
X5968396Y-5346198D02*
X5958872Y-5384294D01*
X5958872Y-5384294D02*
X5949348Y-5403341D01*
X5949348Y-5403341D02*
X5939824Y-5412865D01*
X5939824Y-5412865D02*
X5920777Y-5422389D01*
X5920777Y-5422389D02*
X5901729Y-5422389D01*
X5901729Y-5422389D02*
X5882681Y-5412865D01*
X5882681Y-5412865D02*
X5873158Y-5403341D01*
X5873158Y-5403341D02*
X5863634Y-5384294D01*
X5863634Y-5384294D02*
X5854110Y-5346198D01*
X5854110Y-5346198D02*
X5854110Y-5298579D01*
X5854110Y-5298579D02*
X5863634Y-5260484D01*
X5863634Y-5260484D02*
X5873158Y-5241436D01*
X5873158Y-5241436D02*
X5882681Y-5231913D01*
X5882681Y-5231913D02*
X5901729Y-5222389D01*
X6054110Y-5403341D02*
X6063634Y-5412865D01*
X6063634Y-5412865D02*
X6054110Y-5422389D01*
X6054110Y-5422389D02*
X6044586Y-5412865D01*
X6044586Y-5412865D02*
X6054110Y-5403341D01*
X6054110Y-5403341D02*
X6054110Y-5422389D01*
X6187443Y-5222389D02*
X6206491Y-5222389D01*
X6206491Y-5222389D02*
X6225539Y-5231913D01*
X6225539Y-5231913D02*
X6235062Y-5241436D01*
X6235062Y-5241436D02*
X6244586Y-5260484D01*
X6244586Y-5260484D02*
X6254110Y-5298579D01*
X6254110Y-5298579D02*
X6254110Y-5346198D01*
X6254110Y-5346198D02*
X6244586Y-5384294D01*
X6244586Y-5384294D02*
X6235062Y-5403341D01*
X6235062Y-5403341D02*
X6225539Y-5412865D01*
X6225539Y-5412865D02*
X6206491Y-5422389D01*
X6206491Y-5422389D02*
X6187443Y-5422389D01*
X6187443Y-5422389D02*
X6168396Y-5412865D01*
X6168396Y-5412865D02*
X6158872Y-5403341D01*
X6158872Y-5403341D02*
X6149348Y-5384294D01*
X6149348Y-5384294D02*
X6139824Y-5346198D01*
X6139824Y-5346198D02*
X6139824Y-5298579D01*
X6139824Y-5298579D02*
X6149348Y-5260484D01*
X6149348Y-5260484D02*
X6158872Y-5241436D01*
X6158872Y-5241436D02*
X6168396Y-5231913D01*
X6168396Y-5231913D02*
X6187443Y-5222389D01*
X6320777Y-5222389D02*
X6444586Y-5222389D01*
X6444586Y-5222389D02*
X6377920Y-5298579D01*
X6377920Y-5298579D02*
X6406491Y-5298579D01*
X6406491Y-5298579D02*
X6425539Y-5308103D01*
X6425539Y-5308103D02*
X6435062Y-5317627D01*
X6435062Y-5317627D02*
X6444586Y-5336675D01*
X6444586Y-5336675D02*
X6444586Y-5384294D01*
X6444586Y-5384294D02*
X6435062Y-5403341D01*
X6435062Y-5403341D02*
X6425539Y-5412865D01*
X6425539Y-5412865D02*
X6406491Y-5422389D01*
X6406491Y-5422389D02*
X6349348Y-5422389D01*
X6349348Y-5422389D02*
X6330301Y-5412865D01*
X6330301Y-5412865D02*
X6320777Y-5403341D01*
X6539824Y-5422389D02*
X6577920Y-5422389D01*
X6577920Y-5422389D02*
X6596967Y-5412865D01*
X6596967Y-5412865D02*
X6606491Y-5403341D01*
X6606491Y-5403341D02*
X6625539Y-5374770D01*
X6625539Y-5374770D02*
X6635062Y-5336675D01*
X6635062Y-5336675D02*
X6635062Y-5260484D01*
X6635062Y-5260484D02*
X6625539Y-5241436D01*
X6625539Y-5241436D02*
X6616015Y-5231913D01*
X6616015Y-5231913D02*
X6596967Y-5222389D01*
X6596967Y-5222389D02*
X6558872Y-5222389D01*
X6558872Y-5222389D02*
X6539824Y-5231913D01*
X6539824Y-5231913D02*
X6530301Y-5241436D01*
X6530301Y-5241436D02*
X6520777Y-5260484D01*
X6520777Y-5260484D02*
X6520777Y-5308103D01*
X6520777Y-5308103D02*
X6530301Y-5327151D01*
X6530301Y-5327151D02*
X6539824Y-5336675D01*
X6539824Y-5336675D02*
X6558872Y-5346198D01*
X6558872Y-5346198D02*
X6596967Y-5346198D01*
X6596967Y-5346198D02*
X6616015Y-5336675D01*
X6616015Y-5336675D02*
X6625539Y-5327151D01*
X6625539Y-5327151D02*
X6635062Y-5308103D01*
X6806491Y-5289055D02*
X6806491Y-5422389D01*
X6758872Y-5212865D02*
X6711253Y-5355722D01*
X6711253Y-5355722D02*
X6835062Y-5355722D01*
X6901729Y-5222389D02*
X6901729Y-5260484D01*
X6977920Y-5222389D02*
X6977920Y-5260484D01*
X7273158Y-5498579D02*
X7263634Y-5489055D01*
X7263634Y-5489055D02*
X7244586Y-5460484D01*
X7244586Y-5460484D02*
X7235063Y-5441436D01*
X7235063Y-5441436D02*
X7225539Y-5412865D01*
X7225539Y-5412865D02*
X7216015Y-5365246D01*
X7216015Y-5365246D02*
X7216015Y-5327151D01*
X7216015Y-5327151D02*
X7225539Y-5279532D01*
X7225539Y-5279532D02*
X7235063Y-5250960D01*
X7235063Y-5250960D02*
X7244586Y-5231913D01*
X7244586Y-5231913D02*
X7263634Y-5203341D01*
X7263634Y-5203341D02*
X7273158Y-5193817D01*
X7339824Y-5241436D02*
X7349348Y-5231913D01*
X7349348Y-5231913D02*
X7368396Y-5222389D01*
X7368396Y-5222389D02*
X7416015Y-5222389D01*
X7416015Y-5222389D02*
X7435063Y-5231913D01*
X7435063Y-5231913D02*
X7444586Y-5241436D01*
X7444586Y-5241436D02*
X7454110Y-5260484D01*
X7454110Y-5260484D02*
X7454110Y-5279532D01*
X7454110Y-5279532D02*
X7444586Y-5308103D01*
X7444586Y-5308103D02*
X7330301Y-5422389D01*
X7330301Y-5422389D02*
X7454110Y-5422389D01*
X7692205Y-5422389D02*
X7692205Y-5222389D01*
X7777920Y-5422389D02*
X7777920Y-5317627D01*
X7777920Y-5317627D02*
X7768396Y-5298579D01*
X7768396Y-5298579D02*
X7749348Y-5289055D01*
X7749348Y-5289055D02*
X7720777Y-5289055D01*
X7720777Y-5289055D02*
X7701729Y-5298579D01*
X7701729Y-5298579D02*
X7692205Y-5308103D01*
X7901729Y-5422389D02*
X7882682Y-5412865D01*
X7882682Y-5412865D02*
X7873158Y-5403341D01*
X7873158Y-5403341D02*
X7863634Y-5384294D01*
X7863634Y-5384294D02*
X7863634Y-5327151D01*
X7863634Y-5327151D02*
X7873158Y-5308103D01*
X7873158Y-5308103D02*
X7882682Y-5298579D01*
X7882682Y-5298579D02*
X7901729Y-5289055D01*
X7901729Y-5289055D02*
X7930301Y-5289055D01*
X7930301Y-5289055D02*
X7949348Y-5298579D01*
X7949348Y-5298579D02*
X7958872Y-5308103D01*
X7958872Y-5308103D02*
X7968396Y-5327151D01*
X7968396Y-5327151D02*
X7968396Y-5384294D01*
X7968396Y-5384294D02*
X7958872Y-5403341D01*
X7958872Y-5403341D02*
X7949348Y-5412865D01*
X7949348Y-5412865D02*
X7930301Y-5422389D01*
X7930301Y-5422389D02*
X7901729Y-5422389D01*
X8082682Y-5422389D02*
X8063634Y-5412865D01*
X8063634Y-5412865D02*
X8054110Y-5393817D01*
X8054110Y-5393817D02*
X8054110Y-5222389D01*
X8235063Y-5412865D02*
X8216015Y-5422389D01*
X8216015Y-5422389D02*
X8177920Y-5422389D01*
X8177920Y-5422389D02*
X8158872Y-5412865D01*
X8158872Y-5412865D02*
X8149348Y-5393817D01*
X8149348Y-5393817D02*
X8149348Y-5317627D01*
X8149348Y-5317627D02*
X8158872Y-5298579D01*
X8158872Y-5298579D02*
X8177920Y-5289055D01*
X8177920Y-5289055D02*
X8216015Y-5289055D01*
X8216015Y-5289055D02*
X8235063Y-5298579D01*
X8235063Y-5298579D02*
X8244586Y-5317627D01*
X8244586Y-5317627D02*
X8244586Y-5336675D01*
X8244586Y-5336675D02*
X8149348Y-5355722D01*
X8320777Y-5412865D02*
X8339825Y-5422389D01*
X8339825Y-5422389D02*
X8377920Y-5422389D01*
X8377920Y-5422389D02*
X8396968Y-5412865D01*
X8396968Y-5412865D02*
X8406491Y-5393817D01*
X8406491Y-5393817D02*
X8406491Y-5384294D01*
X8406491Y-5384294D02*
X8396968Y-5365246D01*
X8396968Y-5365246D02*
X8377920Y-5355722D01*
X8377920Y-5355722D02*
X8349348Y-5355722D01*
X8349348Y-5355722D02*
X8330301Y-5346198D01*
X8330301Y-5346198D02*
X8320777Y-5327151D01*
X8320777Y-5327151D02*
X8320777Y-5317627D01*
X8320777Y-5317627D02*
X8330301Y-5298579D01*
X8330301Y-5298579D02*
X8349348Y-5289055D01*
X8349348Y-5289055D02*
X8377920Y-5289055D01*
X8377920Y-5289055D02*
X8396968Y-5298579D01*
X8473158Y-5498579D02*
X8482682Y-5489055D01*
X8482682Y-5489055D02*
X8501729Y-5460484D01*
X8501729Y-5460484D02*
X8511253Y-5441436D01*
X8511253Y-5441436D02*
X8520777Y-5412865D01*
X8520777Y-5412865D02*
X8530301Y-5365246D01*
X8530301Y-5365246D02*
X8530301Y-5327151D01*
X8530301Y-5327151D02*
X8520777Y-5279532D01*
X8520777Y-5279532D02*
X8511253Y-5250960D01*
X8511253Y-5250960D02*
X8501729Y-5231913D01*
X8501729Y-5231913D02*
X8482682Y-5203341D01*
X8482682Y-5203341D02*
X8473158Y-5193817D01*
X8835063Y-5498579D02*
X8825539Y-5489055D01*
X8825539Y-5489055D02*
X8806491Y-5460484D01*
X8806491Y-5460484D02*
X8796968Y-5441436D01*
X8796968Y-5441436D02*
X8787444Y-5412865D01*
X8787444Y-5412865D02*
X8777920Y-5365246D01*
X8777920Y-5365246D02*
X8777920Y-5327151D01*
X8777920Y-5327151D02*
X8787444Y-5279532D01*
X8787444Y-5279532D02*
X8796968Y-5250960D01*
X8796968Y-5250960D02*
X8806491Y-5231913D01*
X8806491Y-5231913D02*
X8825539Y-5203341D01*
X8825539Y-5203341D02*
X8835063Y-5193817D01*
X8911253Y-5289055D02*
X8911253Y-5422389D01*
X8911253Y-5308103D02*
X8920777Y-5298579D01*
X8920777Y-5298579D02*
X8939825Y-5289055D01*
X8939825Y-5289055D02*
X8968396Y-5289055D01*
X8968396Y-5289055D02*
X8987444Y-5298579D01*
X8987444Y-5298579D02*
X8996968Y-5317627D01*
X8996968Y-5317627D02*
X8996968Y-5422389D01*
X9120777Y-5422389D02*
X9101729Y-5412865D01*
X9101729Y-5412865D02*
X9092206Y-5403341D01*
X9092206Y-5403341D02*
X9082682Y-5384294D01*
X9082682Y-5384294D02*
X9082682Y-5327151D01*
X9082682Y-5327151D02*
X9092206Y-5308103D01*
X9092206Y-5308103D02*
X9101729Y-5298579D01*
X9101729Y-5298579D02*
X9120777Y-5289055D01*
X9120777Y-5289055D02*
X9149349Y-5289055D01*
X9149349Y-5289055D02*
X9168396Y-5298579D01*
X9168396Y-5298579D02*
X9177920Y-5308103D01*
X9177920Y-5308103D02*
X9187444Y-5327151D01*
X9187444Y-5327151D02*
X9187444Y-5384294D01*
X9187444Y-5384294D02*
X9177920Y-5403341D01*
X9177920Y-5403341D02*
X9168396Y-5412865D01*
X9168396Y-5412865D02*
X9149349Y-5422389D01*
X9149349Y-5422389D02*
X9120777Y-5422389D01*
X9244587Y-5289055D02*
X9320777Y-5289055D01*
X9273158Y-5222389D02*
X9273158Y-5393817D01*
X9273158Y-5393817D02*
X9282682Y-5412865D01*
X9282682Y-5412865D02*
X9301729Y-5422389D01*
X9301729Y-5422389D02*
X9320777Y-5422389D01*
X9539825Y-5289055D02*
X9539825Y-5489055D01*
X9539825Y-5298579D02*
X9558872Y-5289055D01*
X9558872Y-5289055D02*
X9596968Y-5289055D01*
X9596968Y-5289055D02*
X9616015Y-5298579D01*
X9616015Y-5298579D02*
X9625539Y-5308103D01*
X9625539Y-5308103D02*
X9635063Y-5327151D01*
X9635063Y-5327151D02*
X9635063Y-5384294D01*
X9635063Y-5384294D02*
X9625539Y-5403341D01*
X9625539Y-5403341D02*
X9616015Y-5412865D01*
X9616015Y-5412865D02*
X9596968Y-5422389D01*
X9596968Y-5422389D02*
X9558872Y-5422389D01*
X9558872Y-5422389D02*
X9539825Y-5412865D01*
X9749349Y-5422389D02*
X9730301Y-5412865D01*
X9730301Y-5412865D02*
X9720777Y-5393817D01*
X9720777Y-5393817D02*
X9720777Y-5222389D01*
X9911253Y-5422389D02*
X9911253Y-5317627D01*
X9911253Y-5317627D02*
X9901730Y-5298579D01*
X9901730Y-5298579D02*
X9882682Y-5289055D01*
X9882682Y-5289055D02*
X9844587Y-5289055D01*
X9844587Y-5289055D02*
X9825539Y-5298579D01*
X9911253Y-5412865D02*
X9892206Y-5422389D01*
X9892206Y-5422389D02*
X9844587Y-5422389D01*
X9844587Y-5422389D02*
X9825539Y-5412865D01*
X9825539Y-5412865D02*
X9816015Y-5393817D01*
X9816015Y-5393817D02*
X9816015Y-5374770D01*
X9816015Y-5374770D02*
X9825539Y-5355722D01*
X9825539Y-5355722D02*
X9844587Y-5346198D01*
X9844587Y-5346198D02*
X9892206Y-5346198D01*
X9892206Y-5346198D02*
X9911253Y-5336675D01*
X9977920Y-5289055D02*
X10054110Y-5289055D01*
X10006491Y-5222389D02*
X10006491Y-5393817D01*
X10006491Y-5393817D02*
X10016015Y-5412865D01*
X10016015Y-5412865D02*
X10035063Y-5422389D01*
X10035063Y-5422389D02*
X10054110Y-5422389D01*
X10196968Y-5412865D02*
X10177920Y-5422389D01*
X10177920Y-5422389D02*
X10139825Y-5422389D01*
X10139825Y-5422389D02*
X10120777Y-5412865D01*
X10120777Y-5412865D02*
X10111253Y-5393817D01*
X10111253Y-5393817D02*
X10111253Y-5317627D01*
X10111253Y-5317627D02*
X10120777Y-5298579D01*
X10120777Y-5298579D02*
X10139825Y-5289055D01*
X10139825Y-5289055D02*
X10177920Y-5289055D01*
X10177920Y-5289055D02*
X10196968Y-5298579D01*
X10196968Y-5298579D02*
X10206491Y-5317627D01*
X10206491Y-5317627D02*
X10206491Y-5336675D01*
X10206491Y-5336675D02*
X10111253Y-5355722D01*
X10377920Y-5422389D02*
X10377920Y-5222389D01*
X10377920Y-5412865D02*
X10358872Y-5422389D01*
X10358872Y-5422389D02*
X10320777Y-5422389D01*
X10320777Y-5422389D02*
X10301730Y-5412865D01*
X10301730Y-5412865D02*
X10292206Y-5403341D01*
X10292206Y-5403341D02*
X10282682Y-5384294D01*
X10282682Y-5384294D02*
X10282682Y-5327151D01*
X10282682Y-5327151D02*
X10292206Y-5308103D01*
X10292206Y-5308103D02*
X10301730Y-5298579D01*
X10301730Y-5298579D02*
X10320777Y-5289055D01*
X10320777Y-5289055D02*
X10358872Y-5289055D01*
X10358872Y-5289055D02*
X10377920Y-5298579D01*
X10454111Y-5498579D02*
X10463634Y-5489055D01*
X10463634Y-5489055D02*
X10482682Y-5460484D01*
X10482682Y-5460484D02*
X10492206Y-5441436D01*
X10492206Y-5441436D02*
X10501730Y-5412865D01*
X10501730Y-5412865D02*
X10511253Y-5365246D01*
X10511253Y-5365246D02*
X10511253Y-5327151D01*
X10511253Y-5327151D02*
X10501730Y-5279532D01*
X10501730Y-5279532D02*
X10492206Y-5250960D01*
X10492206Y-5250960D02*
X10482682Y-5231913D01*
X10482682Y-5231913D02*
X10463634Y-5203341D01*
X10463634Y-5203341D02*
X10454111Y-5193817D01*
M02*
